<?xml version="1.0" standalone="no"?>
<!DOCTYPE svg PUBLIC "-//W3C//DTD SVG 20010904//EN"
 "http://www.w3.org/TR/2001/REC-SVG-20010904/DTD/svg10.dtd">
<svg version="1.0" xmlns="http://www.w3.org/2000/svg"
 width="275.000000pt" height="183.000000pt" viewBox="0 0 275.000000 183.000000"
 preserveAspectRatio="xMidYMid meet">

<g transform="translate(0.000000,183.000000) scale(0.100000,-0.100000)"
fill="#000000" stroke="none">
<path d="M0 1765 c0 -63 1 -65 21 -55 11 6 23 18 26 26 6 15 33 20 33 5 0 -12
29 -23 42 -15 6 4 5 10 -3 15 -9 5 -4 8 16 6 23 -1 29 2 27 15 -2 12 3 15 16
11 11 -3 40 8 67 25 l47 29 -146 2 -146 1 0 -65z"/>
<path d="M2590 1800 c0 -20 5 -30 15 -30 18 0 20 -16 3 -23 -8 -3 -6 -6 5 -6
10 -1 20 6 23 14 7 17 34 21 34 5 0 -5 -7 -10 -15 -10 -22 0 -18 -28 5 -35 11
-3 25 -15 30 -26 6 -11 21 -19 35 -19 24 0 25 2 25 80 l0 80 -80 0 -80 0 0
-30z"/>
<path d="M2560 1720 c0 -5 5 -10 10 -10 6 0 10 5 10 10 0 6 -4 10 -10 10 -5 0
-10 -4 -10 -10z"/>
<path d="M2620 1670 c-9 -6 -10 -10 -3 -10 6 0 15 5 18 10 8 12 4 12 -15 0z"/>
<path d="M8 1663 c7 -3 16 -2 19 1 4 3 -2 6 -13 5 -11 0 -14 -3 -6 -6z"/>
<path d="M198 1408 c9 -9 15 -9 24 0 9 9 7 12 -12 12 -19 0 -21 -3 -12 -12z"/>
<path d="M376 1375 c4 -8 7 -15 9 -15 2 0 5 7 9 15 3 9 0 15 -9 15 -9 0 -12
-6 -9 -15z"/>
<path d="M1025 1374 c-47 -14 -81 -20 -130 -23 -17 -1 -18 -3 -5 -11 11 -7 5
-10 -23 -10 -23 0 -36 -4 -32 -10 3 -5 17 -10 31 -10 20 0 24 -5 24 -30 0 -20
-6 -33 -17 -38 -15 -6 -17 -15 -12 -57 l6 -50 1 48 c2 47 22 69 22 23 0 -24 2
-24 69 -23 38 1 67 5 64 10 -2 4 10 7 26 7 l31 0 2 -140 c1 -77 2 -152 2 -167
l1 -28 -92 -3 -93 -3 -2 133 -2 133 -3 -120 c-3 -129 -10 -167 -23 -125 -7 20
-8 17 -9 -20 -2 -70 -9 -87 -42 -94 -25 -5 -29 -10 -29 -39 0 -18 7 -42 14
-53 13 -17 13 -21 -7 -37 -20 -17 -20 -18 -2 -11 11 4 38 9 60 10 66 3 290 26
294 30 2 2 -12 4 -32 4 -32 0 -39 4 -56 39 -16 31 -25 38 -45 36 -14 -2 -28 1
-31 6 -3 5 -14 4 -24 -3 -25 -15 -51 -3 -51 23 0 16 4 20 17 15 22 -9 163 -9
184 -1 12 4 18 -1 23 -19 5 -22 12 -26 40 -26 60 0 66 -6 66 -71 0 -66 3 -68
71 -49 32 9 37 15 41 45 3 24 0 35 -9 35 -7 0 -13 11 -13 25 0 20 5 25 25 25
14 0 25 4 25 9 0 5 9 7 20 4 18 -5 20 -2 15 31 -4 22 -2 36 4 36 6 0 10 10 10
23 -1 12 4 37 9 55 8 24 8 31 -1 25 -7 -4 -6 0 2 10 10 13 10 17 1 17 -8 0
-10 8 -7 21 4 15 2 19 -9 15 -8 -3 -14 -1 -14 4 0 6 4 10 9 10 5 0 14 14 20
30 6 18 6 30 0 30 -14 0 -11 148 4 153 6 2 -12 12 -40 21 -60 20 -69 42 -23
57 42 15 37 29 -9 29 -22 0 -41 5 -43 12 -3 8 -35 13 -99 14 -109 1 -169 11
-148 25 19 12 3 10 -56 -7z m369 -304 c-4 -19 -8 -44 -8 -55 -1 -15 -7 -19
-26 -17 -14 1 -33 4 -42 5 -10 0 -18 1 -18 2 -1 0 -3 18 -5 40 -2 22 -2 32 1
23 8 -26 23 -22 42 12 20 36 39 39 45 8 2 -13 6 6 7 42 3 57 4 59 7 20 3 -24
1 -60 -3 -80z m23 38 c-3 -8 -6 -5 -6 6 -1 11 2 17 5 13 3 -3 4 -12 1 -19z
m-60 -220 c-3 -7 -5 -2 -5 12 0 14 2 19 5 13 2 -7 2 -19 0 -25z m-475 -70 c-9
-9 -12 -7 -12 12 0 19 3 21 12 12 9 -9 9 -15 0 -24z"/>
<path d="M1356 1091 c-4 -7 -5 -15 -2 -18 9 -9 19 4 14 18 -4 11 -6 11 -12 0z"/>
<path d="M1350 1050 c0 -5 5 -10 10 -10 6 0 10 5 10 10 0 6 -4 10 -10 10 -5 0
-10 -4 -10 -10z"/>
<path d="M526 1361 c-4 -5 -2 -12 3 -15 5 -4 12 -2 15 3 4 5 2 12 -3 15 -5 4
-12 2 -15 -3z"/>
<path d="M0 1315 c0 -12 12 -15 53 -14 53 1 49 4 -25 23 -21 5 -28 3 -28 -9z"/>
<path d="M2118 1323 c6 -2 18 -2 25 0 6 3 1 5 -13 5 -14 0 -19 -2 -12 -5z"/>
<path d="M2030 1312 c0 -4 16 -6 35 -4 19 2 35 6 35 8 0 2 -16 4 -35 4 -19 0
-35 -4 -35 -8z"/>
<path d="M598 1222 c9 -10 19 -15 22 -11 3 4 23 4 45 0 54 -9 68 -8 72 5 4 11
-61 24 -123 24 -33 0 -33 -1 -16 -18z"/>
<path d="M2632 1225 c-51 -7 -95 -15 -98 -18 -3 -2 45 -5 106 -5 102 -1 110 1
110 19 0 10 -6 18 -12 18 -7 -1 -55 -7 -106 -14z"/>
<path d="M798 1223 c7 -3 16 -2 19 1 4 3 -2 6 -13 5 -11 0 -14 -3 -6 -6z"/>
<path d="M1478 1213 c7 -3 16 -2 19 1 4 3 -2 6 -13 5 -11 0 -14 -3 -6 -6z"/>
<path d="M1528 1203 c7 -3 16 -2 19 1 4 3 -2 6 -13 5 -11 0 -14 -3 -6 -6z"/>
<path d="M2338 1203 c12 -2 32 -2 45 0 12 2 2 4 -23 4 -25 0 -35 -2 -22 -4z"/>
<path d="M1578 1193 c7 -3 16 -2 19 1 4 3 -2 6 -13 5 -11 0 -14 -3 -6 -6z"/>
<path d="M612 1170 c0 -14 2 -19 5 -12 2 6 2 18 0 25 -3 6 -5 1 -5 -13z"/>
<path d="M1628 1183 c7 -3 16 -2 19 1 4 3 -2 6 -13 5 -11 0 -14 -3 -6 -6z"/>
<path d="M1712 1164 l47 -15 3 -157 c3 -172 2 -182 -18 -182 -17 0 -18 -16 -1
-24 6 -3 -1 -2 -17 1 -20 4 -27 3 -22 -6 4 -6 2 -11 -3 -11 -6 0 -11 7 -11 15
0 21 -18 19 -23 -2 -4 -14 -5 -13 -6 4 -1 16 -6 20 -21 16 -25 -7 -26 -23 -2
-24 11 -1 9 -4 -8 -9 l-25 -8 29 -1 c24 -1 27 -4 22 -23 -3 -13 -6 -26 -6 -30
0 -18 -20 -6 -20 12 0 11 -4 20 -10 20 -5 0 -10 -13 -10 -29 0 -24 5 -29 31
-35 17 -3 48 -6 69 -6 34 0 38 3 42 30 3 16 0 34 -6 40 -7 7 3 10 32 10 46 0
47 2 31 32 -8 15 -8 19 1 13 6 -4 16 -19 22 -33 6 -16 12 -22 15 -14 3 8 26
12 66 12 44 0 58 3 47 10 -8 5 -10 10 -5 11 6 0 1 4 -10 9 -17 7 -17 9 -3 9
10 1 24 -12 33 -29 14 -27 14 -30 0 -30 -8 0 -15 -9 -15 -20 0 -22 -15 -27
-26 -8 -5 7 -3 8 5 3 9 -5 12 -2 9 10 -1 10 -8 20 -13 22 -13 4 -39 -63 -30
-77 3 -6 -4 -10 -17 -11 -26 -1 103 -27 141 -28 20 -1 21 1 11 14 -12 14 -11
29 5 68 5 13 2 17 -14 17 -28 0 -27 11 5 46 15 16 24 24 21 18 -7 -13 51 -34
106 -38 26 -2 41 3 48 13 7 12 9 9 7 -14 -3 -24 1 -31 20 -33 21 -3 26 -12 23
-38 -2 -13 83 -29 100 -19 14 9 59 -3 59 -16 0 -6 -29 -8 -80 -4 -72 5 -80 4
-80 -12 0 -15 -2 -15 -9 -3 -6 8 -7 18 -5 22 3 4 -2 5 -10 2 -19 -7 -50 -98
-43 -130 9 -47 -10 -49 -203 -24 -170 22 -179 24 -185 47 -3 12 -12 23 -21 23
-8 0 -13 -4 -9 -9 3 -6 -11 -13 -32 -16 -83 -14 -133 -29 -121 -37 10 -6 8 -8
-4 -8 -11 0 -15 -6 -11 -20 3 -11 0 -20 -6 -20 -6 0 -10 6 -9 12 4 16 -6 16
-60 -2 -33 -10 -51 -11 -75 -3 -18 6 -63 17 -102 23 -38 7 -106 21 -150 31
-44 10 -106 21 -137 24 -70 9 -67 21 7 30 42 6 55 11 55 24 0 13 -2 14 -9 2
-8 -12 -18 -13 -55 -4 -40 9 -48 8 -56 -6 -7 -13 -23 -16 -78 -14 -51 2 -73
-2 -82 -12 -15 -18 -50 -20 -50 -2 0 8 -4 7 -10 -3 -6 -10 -10 -11 -10 -2 0 6
-9 12 -20 12 -11 0 -20 -4 -20 -10 0 -5 -5 -10 -11 -10 -8 0 -7 5 1 15 7 9 10
19 6 22 -4 4 -11 1 -16 -7 -7 -11 -9 -6 -6 16 5 51 -10 61 -97 61 -47 1 -83 6
-92 13 -9 7 -18 10 -22 6 -3 -3 -1 -6 5 -6 7 0 12 -4 12 -10 0 -5 -7 -7 -15
-4 -8 4 -15 15 -15 25 0 16 8 19 54 19 30 0 58 -4 61 -10 3 -5 22 -10 41 -10
21 0 33 4 29 10 -3 6 -16 10 -28 10 -25 1 -60 24 -50 33 3 4 19 7 33 7 15 0
33 7 40 15 14 17 45 12 73 -13 16 -14 17 -12 17 29 0 58 -9 89 -26 89 -8 0
-14 11 -15 28 0 15 -4 36 -9 47 -7 15 -9 10 -10 -25 -1 -32 -4 -39 -9 -26 -5
14 -10 16 -15 8 -14 -23 -34 -12 -44 26 l-11 37 4 -42 c3 -40 2 -42 -17 -32
-12 6 -18 7 -14 1 11 -18 -41 -21 -407 -26 -32 0 -51 4 -57 14 -8 13 -10 12
-10 -2 0 -12 -8 -18 -25 -18 -16 0 -25 -6 -25 -16 0 -8 -4 -13 -9 -9 -5 3 -12
-7 -14 -22 l-4 -28 -2 28 c-2 41 -27 34 -35 -10 -3 -21 -6 -208 -6 -415 l0
-378 793 0 792 1 -79 29 c-43 16 -81 31 -83 33 -2 2 17 15 42 28 l45 24 0 80
c0 69 3 82 20 92 10 7 27 10 36 6 13 -5 15 -3 9 7 -6 10 -4 12 9 7 9 -4 15 -3
12 1 -5 8 71 47 169 88 32 13 35 18 35 54 0 45 2 46 95 30 157 -25 289 -40
294 -32 3 4 24 9 45 9 22 1 34 -2 27 -6 -6 -4 17 -6 51 -3 l63 4 -75 -74 c-41
-40 -147 -142 -235 -226 l-160 -152 133 1 c133 1 133 1 145 26 l12 26 5 -24 6
-24 272 -3 272 -2 0 541 0 542 -47 -6 c-27 -4 -130 -10 -230 -13 l-183 -7 1
-26 c0 -14 3 -21 6 -14 7 17 43 -6 36 -24 -6 -15 -43 -18 -43 -3 0 5 -20 8
-45 6 -44 -3 -45 -3 -45 26 0 17 -4 27 -10 23 -5 -3 -10 -17 -10 -31 0 -39
-38 -46 -42 -7 -1 5 -8 14 -17 21 -9 8 -10 10 -2 6 10 -5 12 -3 6 6 -6 10 -11
9 -22 -5 -7 -11 -13 -23 -13 -28 0 -4 -8 -16 -17 -25 -15 -16 -16 -15 -9 11 4
16 2 27 -4 27 -5 0 -10 7 -10 15 0 8 -4 15 -9 15 -16 0 -24 -21 -12 -33 18
-18 13 -37 -9 -37 -11 0 -20 6 -20 14 0 7 -8 16 -18 18 -17 5 -18 -2 -18 -71
1 -70 3 -76 21 -73 11 2 25 3 30 3 173 -5 168 -6 177 18 7 19 4 24 -22 34 -71
27 -25 34 214 33 154 -1 181 -3 181 -16 0 -8 -11 -17 -25 -19 -14 -1 -28 -8
-32 -15 -6 -8 -8 -8 -8 2 0 6 -9 12 -20 12 -11 0 -20 -4 -20 -10 0 -5 9 -10
19 -10 11 0 22 -8 24 -17 4 -17 5 -17 6 0 0 9 7 17 15 17 8 0 22 3 31 6 14 6
16 1 13 -27 -3 -34 -4 -34 -60 -39 -48 -4 -56 -7 -48 -20 13 -20 13 -43 -1
-35 -11 7 -97 13 -246 15 -51 1 -91 6 -88 10 3 5 1 11 -5 15 -6 4 -8 11 -5 16
4 5 -6 9 -22 9 -22 0 -25 -2 -13 -10 11 -7 4 -10 -27 -10 -24 0 -43 5 -43 10
0 6 -16 10 -35 10 -19 0 -35 -5 -35 -11 0 -6 9 -9 20 -6 13 3 20 0 20 -9 0
-15 -23 -17 -82 -8 l-38 7 0 159 c0 147 1 159 18 154 9 -3 23 -2 31 3 17 11
-14 17 -124 25 -38 3 -81 8 -95 11 -14 2 -4 -2 22 -11z m788 -158 c0 -16 -19
-25 -37 -18 -23 8 -14 32 12 32 15 0 25 -6 25 -14z m-653 -18 c-3 -8 -6 -5 -6
6 -1 11 2 17 5 13 3 -3 4 -12 1 -19z m200 -64 c-3 -3 -12 -4 -19 -1 -8 3 -5 6
6 6 11 1 17 -2 13 -5z m-1437 -82 c0 -4 -11 -24 -25 -45 -33 -48 -55 -49 -55
-2 0 35 -1 35 -42 35 -39 -1 -45 -4 -68 -40 -13 -22 -32 -40 -41 -40 -10 0
-19 -10 -22 -22 -2 -13 -5 4 -6 37 -1 60 -1 61 -28 59 -16 -1 -38 -3 -50 -3
-12 -1 -24 -9 -28 -20 -8 -28 -43 -64 -54 -57 -5 3 -11 1 -13 -6 -10 -28 -28
7 -28 52 l0 49 103 4 c226 7 357 7 357 -1z m1307 -48 c-3 -3 -12 -4 -19 -1 -8
3 -5 6 6 6 11 1 17 -2 13 -5z m200 -10 c-3 -3 -12 -4 -19 -1 -8 3 -5 6 6 6 11
1 17 -2 13 -5z m454 -36 c-5 -33 -10 -42 -29 -45 -14 -2 -21 1 -17 7 3 5 1 10
-4 10 -18 0 -12 28 7 33 16 4 16 5 -1 6 -10 0 -20 -6 -23 -14 -4 -8 -13 -15
-21 -15 -8 0 -11 5 -7 13 4 6 -4 2 -18 -11 -23 -21 -29 -22 -71 -11 -64 16
-71 39 -12 39 38 0 45 -3 45 -20 0 -26 8 -25 36 5 15 16 34 25 53 25 16 0 33
5 36 10 3 6 12 10 19 10 9 0 11 -12 7 -42z m-263 7 c-3 -3 -9 2 -12 12 -6 14
-5 15 5 6 7 -7 10 -15 7 -18z m182 -39 c0 -3 -4 -8 -10 -11 -5 -3 -10 -1 -10
4 0 6 5 11 10 11 6 0 10 -2 10 -4z m-1860 -80 c0 -3 -4 -8 -10 -11 -5 -3 -10
-1 -10 4 0 6 5 11 10 11 6 0 10 -2 10 -4z m1693 -36 c20 0 37 -4 37 -10 0 -5
-13 -10 -29 -10 -44 0 -91 11 -91 22 0 6 10 8 23 4 12 -3 39 -6 60 -6z m-613
-132 c0 -37 -7 -34 -14 5 -2 15 0 27 5 27 5 0 9 -14 9 -32z m-890 -38 c0 -5
-6 -10 -12 -10 -9 0 -8 -4 2 -10 17 -11 1 -13 -24 -4 -13 5 -14 9 -5 20 13 16
39 19 39 4z m-327 -36 c26 -9 47 -20 47 -26 0 -5 -6 -6 -12 -1 -7 4 -35 15
-63 24 -27 10 -43 17 -34 18 8 1 36 -6 62 -15z m277 -4 c0 -5 -15 -10 -32 -9
-31 1 -32 1 -8 9 35 11 40 11 40 0z m-141 -36 c10 -9 -45 -3 -59 6 -11 7 -5 8
20 4 19 -4 37 -8 39 -10z m852 -101 c9 -108 -2 -152 -36 -139 -9 3 -14 2 -11
-3 3 -5 -5 -16 -19 -25 -30 -20 -78 -6 -68 20 3 8 9 11 12 6 3 -6 20 -1 41 10
l35 20 -35 -6 c-19 -3 -29 -3 -22 0 21 10 13 24 -14 24 -17 0 -23 4 -18 12 5
8 2 9 -9 5 -46 -19 -53 -19 -33 -3 14 11 16 16 6 16 -17 0 17 25 69 51 36 18
100 25 102 12z m749 -224 c-7 -11 -14 -18 -17 -15 -3 3 0 12 7 21 18 21 23 19
10 -6z"/>
<path d="M1340 210 c-8 -5 -12 -11 -9 -14 2 -3 11 -1 19 4 8 5 12 11 9 14 -2
3 -11 1 -19 -4z"/>
<path d="M1385 180 c-3 -5 1 -10 10 -10 9 0 13 5 10 10 -3 6 -8 10 -10 10 -2
0 -7 -4 -10 -10z"/>
<path d="M1441 164 c0 -11 3 -14 6 -6 3 7 2 16 -1 19 -3 4 -6 -2 -5 -13z"/>
<path d="M1000 1142 c0 -17 -6 -32 -15 -35 -8 -4 -17 -27 -22 -59 -7 -52 -7
-52 -14 -18 -5 27 -7 20 -8 -33 0 -40 3 -66 8 -62 5 3 17 -5 26 -17 l15 -23 6
23 c6 22 44 32 44 12 0 -5 5 -10 10 -10 6 0 10 48 10 125 0 77 -4 125 -10 125
-5 0 -10 -15 -10 -34 0 -19 -4 -38 -10 -41 -6 -4 -10 8 -10 29 0 19 -4 38 -10
41 -6 4 -10 -6 -10 -23z"/>
<path d="M203 1128 c-6 -7 -9 -21 -8 -30 2 -10 -1 -18 -6 -18 -13 0 -11 -13 4
-34 11 -15 17 -17 35 -7 27 14 28 31 3 71 -14 23 -20 28 -28 18z"/>
<path d="M365 1100 c-21 -40 -11 -70 21 -70 31 0 40 22 24 60 -18 43 -27 45
-45 10z"/>
<path d="M520 1091 c-16 -40 -9 -65 18 -69 29 -4 38 20 22 58 -17 42 -26 44
-40 11z"/>
<path d="M861 1034 c0 -11 3 -14 6 -6 3 7 2 16 -1 19 -3 4 -6 -2 -5 -13z"/>
<path d="M2210 1030 c0 -11 7 -20 15 -20 13 0 14 4 5 20 -6 11 -13 20 -15 20
-3 0 -5 -9 -5 -20z"/>
<path d="M675 1030 c-3 -5 -1 -10 4 -10 6 0 11 5 11 10 0 6 -2 10 -4 10 -3 0
-8 -4 -11 -10z"/>
<path d="M670 990 c0 -5 7 -10 15 -10 8 0 15 5 15 10 0 6 -7 10 -15 10 -8 0
-15 -4 -15 -10z"/>
<path d="M863 965 c0 -22 2 -30 4 -17 2 12 2 30 0 40 -3 9 -5 -1 -4 -23z"/>
<path d="M1468 973 c7 -3 16 -2 19 1 4 3 -2 6 -13 5 -11 0 -14 -3 -6 -6z"/>
<path d="M681 934 c0 -11 3 -14 6 -6 3 7 2 16 -1 19 -3 4 -6 -2 -5 -13z"/>
<path d="M2330 914 c0 -8 21 -12 60 -13 33 0 60 4 60 9 0 6 -15 10 -32 11 -18
0 -45 2 -60 3 -16 1 -28 -3 -28 -10z"/>
<path d="M130 900 c0 -5 5 -10 10 -10 6 0 10 5 10 10 0 6 -4 10 -10 10 -5 0
-10 -4 -10 -10z"/>
<path d="M174 883 c10 -10 46 -11 46 -1 0 4 -12 8 -27 8 -14 0 -23 -3 -19 -7z"/>
<path d="M1510 868 c0 -15 7 -17 48 -12 26 3 55 7 65 9 20 4 21 1 7 -26 -6
-10 -7 -19 -2 -19 15 0 32 24 32 47 0 21 -3 22 -75 20 -63 -2 -75 -5 -75 -19z"/>
<path d="M1688 883 c7 -3 16 -2 19 1 4 3 -2 6 -13 5 -11 0 -14 -3 -6 -6z"/>
<path d="M1450 860 c0 -4 11 -10 25 -12 15 -3 25 -1 25 6 0 6 -11 12 -25 12
-14 1 -25 -2 -25 -6z"/>
<path d="M2328 863 c7 -3 16 -2 19 1 4 3 -2 6 -13 5 -11 0 -14 -3 -6 -6z"/>
<path d="M792 833 c2 -22 9 -29 31 -31 19 -2 27 1 27 12 0 9 -7 16 -15 16 -9
0 -12 6 -9 15 4 10 0 15 -16 15 -17 0 -21 -5 -18 -27z"/>
<path d="M2301 844 c0 -11 3 -14 6 -6 3 7 2 16 -1 19 -3 4 -6 -2 -5 -13z"/>
<path d="M1550 835 c-10 -13 -9 -15 9 -15 12 0 21 6 21 15 0 8 -4 15 -9 15 -5
0 -14 -7 -21 -15z"/>
<path d="M1680 840 c0 -5 7 -10 15 -10 8 0 15 5 15 10 0 6 -7 10 -15 10 -8 0
-15 -4 -15 -10z"/>
<path d="M2182 838 c7 -20 68 -23 68 -4 0 12 -10 16 -36 16 -24 0 -34 -4 -32
-12z"/>
<path d="M2323 835 c0 -9 10 -15 24 -15 14 0 23 6 23 15 0 9 -9 15 -23 15 -14
0 -24 -6 -24 -15z"/>
<path d="M1543 803 c9 -2 23 -2 30 0 6 3 -1 5 -18 5 -16 0 -22 -2 -12 -5z"/>
<path d="M2180 730 c-13 -8 -12 -10 3 -10 9 0 17 5 17 10 0 12 -1 12 -20 0z"/>
<path d="M617 719 c7 -7 15 -10 18 -7 3 3 -2 9 -12 12 -14 6 -15 5 -6 -5z"/>
<path d="M1155 693 c3 -8 5 -19 5 -24 0 -6 5 -7 10 -4 16 10 12 42 -5 42 -10
0 -14 -6 -10 -14z"/>
<path d="M1401 694 c0 -11 3 -14 6 -6 3 7 2 16 -1 19 -3 4 -6 -2 -5 -13z"/>
<path d="M2148 703 c6 -2 18 -2 25 0 6 3 1 5 -13 5 -14 0 -19 -2 -12 -5z"/>
<path d="M1768 673 c7 -3 16 -2 19 1 4 3 -2 6 -13 5 -11 0 -14 -3 -6 -6z"/>
<path d="M1562 634 c-14 -25 -3 -54 20 -54 14 0 18 5 14 15 -3 8 -1 15 5 15 6
0 8 4 4 10 -3 5 -13 6 -23 3 -13 -4 -13 -2 3 10 17 14 18 16 3 17 -9 0 -21 -7
-26 -16z"/>
<path d="M1379 613 c-9 -10 -7 -13 11 -13 16 0 20 -4 16 -16 -3 -9 -6 -18 -6
-20 0 -3 -4 -3 -9 1 -16 9 -62 -17 -56 -33 3 -7 5 -17 5 -22 0 -9 74 -20 98
-13 10 2 24 14 31 25 12 19 11 20 -13 16 -32 -6 -44 12 -41 58 3 33 -16 42
-36 17z"/>
<path d="M2091 614 c0 -11 3 -14 6 -6 3 7 2 16 -1 19 -3 4 -6 -2 -5 -13z"/>
<path d="M1225 591 c-3 -6 -17 -11 -31 -11 -15 0 -24 -6 -24 -15 0 -10 11 -15
35 -15 19 0 34 4 33 9 -2 5 2 9 7 9 6 0 9 -5 7 -10 -2 -6 4 -8 13 -4 9 3 19 6
21 6 2 0 4 7 4 15 0 8 -6 15 -14 15 -8 0 -21 3 -29 6 -8 3 -18 1 -22 -5z"/>
<path d="M2091 578 c0 -9 -9 -22 -18 -27 -10 -6 -13 -10 -8 -11 21 0 37 18 32
36 -4 16 -5 16 -6 2z"/>
<path d="M1810 576 c0 -2 7 -7 16 -10 8 -3 12 -2 9 4 -6 10 -25 14 -25 6z"/>
</g>
</svg>
