<?xml version="1.0" standalone="no"?>
<!DOCTYPE svg PUBLIC "-//W3C//DTD SVG 20010904//EN"
 "http://www.w3.org/TR/2001/REC-SVG-20010904/DTD/svg10.dtd">
<svg version="1.0" xmlns="http://www.w3.org/2000/svg"
 width="194.000000pt" height="259.000000pt" viewBox="0 0 194.000000 259.000000"
 preserveAspectRatio="xMidYMid meet">

<g transform="translate(0.000000,259.000000) scale(0.100000,-0.100000)"
fill="#000000" stroke="none">
<path d="M1475 2550 c-3 -5 1 -10 10 -10 9 0 13 5 10 10 -3 6 -8 10 -10 10 -2
0 -7 -4 -10 -10z"/>
<path d="M1035 2479 c-26 -40 -136 -211 -243 -379 -107 -168 -212 -332 -234
-366 -28 -45 -38 -71 -38 -102 0 -23 -4 -41 -9 -39 -11 3 -161 -210 -161 -228
0 -8 21 -18 50 -24 69 -15 90 -14 90 4 0 8 6 14 13 12 7 -1 13 11 15 29 2 23
23 50 87 112 46 45 89 82 96 82 6 0 -3 -12 -20 -27 -17 -15 -32 -37 -32 -48
-1 -18 -2 -18 -6 -2 -4 17 -6 17 -21 -5 -26 -37 -23 -50 6 -27 15 11 89 75
164 142 126 113 136 125 137 157 0 31 -1 32 -9 13 -5 -13 -12 -23 -15 -23 -7
0 6 53 15 60 3 3 14 16 23 29 20 30 63 37 70 12 8 -30 -4 -80 -20 -83 -9 -2
28 -27 81 -57 54 -29 100 -50 103 -47 4 3 1 6 -5 6 -13 0 -15 78 -6 253 4 71
10 124 14 117 9 -15 20 11 20 47 0 25 -12 38 -163 174 l-39 35 43 62 43 62 25
-27 c14 -16 61 -65 105 -111 l80 -82 -42 -43 c-32 -33 -42 -50 -40 -72 2 -45
8 -48 29 -21 11 14 38 39 60 57 l41 32 26 -27 27 -27 -43 -39 c-36 -32 -43
-44 -40 -70 l3 -30 67 52 c59 47 67 57 68 87 0 29 -12 48 -81 122 -48 54 -78
93 -73 100 4 7 3 9 -3 6 -6 -4 -38 24 -71 62 -34 38 -79 88 -101 112 l-39 43
-47 -75z m-81 -311 c-108 -150 -168 -225 -129 -163 31 49 155 215 161 215 3 0
-11 -24 -32 -52z m59 9 c-17 -28 -165 -217 -170 -217 -3 0 -1 6 4 13 5 6 45
58 87 115 43 56 80 102 83 102 2 0 0 -6 -4 -13z m19 -44 c-11 -16 -37 -46 -57
-68 -20 -22 -13 -10 16 28 52 66 79 93 41 40z m48 -6 c0 -2 -12 -14 -27 -28
l-28 -24 24 28 c23 25 31 32 31 24z m-60 -70 c0 -2 -12 -14 -27 -28 l-28 -24
24 28 c23 25 31 32 31 24z m40 -10 c0 -2 -10 -12 -22 -23 l-23 -19 19 23 c18
21 26 27 26 19z m-120 -30 c0 -2 -12 -14 -27 -28 l-28 -24 24 28 c23 25 31 32
31 24z m10 -41 c0 -2 -8 -10 -17 -17 -16 -13 -17 -12 -4 4 13 16 21 21 21 13z
m5 -56 c-3 -5 -1 -10 5 -10 6 0 8 -5 4 -11 -4 -8 -9 -7 -15 2 -12 19 -11 29 2
29 5 0 7 -4 4 -10z m-215 -42 c-40 -57 -74 -97 -64 -78 13 24 84 120 90 120 3
0 -9 -19 -26 -42z m51 15 c-5 -10 -24 -34 -41 -53 -26 -29 -25 -26 7 18 37 52
52 67 34 35z m9 -43 c-17 -22 -37 -43 -43 -47 -6 -4 6 14 27 40 21 26 40 47
43 47 3 0 -10 -18 -27 -40z m-80 -54 c0 -2 -8 -10 -17 -17 -16 -13 -17 -12 -4
4 13 16 21 21 21 13z m-105 -90 c-37 -48 -42 -46 -9 4 15 22 29 38 31 36 3 -3
-7 -21 -22 -40z m255 41 c0 -2 -12 -14 -27 -28 l-28 -24 24 28 c23 25 31 32
31 24z m-200 -14 c-1 -5 -15 -24 -32 -43 -31 -36 -30 -27 4 23 19 27 28 34 28
20z m130 -57 c0 -2 -8 -10 -17 -17 -16 -13 -17 -12 -4 4 13 16 21 21 21 13z
m-284 -154 c0 -10 -6 -19 -13 -19 -8 0 -9 6 -2 19 5 10 11 18 12 18 2 0 3 -8
3 -18z m-40 -64 c4 -6 3 -8 -4 -4 -6 3 -15 -2 -21 -11 -6 -10 -11 -13 -11 -7
0 9 19 34 26 34 2 0 6 -5 10 -12z"/>
<path d="M908 1510 l-58 -42 0 -281 c0 -186 4 -277 10 -267 5 8 10 10 10 5 0
-6 9 -11 20 -12 16 -1 20 4 20 27 0 24 -3 28 -17 23 -10 -4 -21 -11 -25 -17
-5 -6 -8 -2 -8 11 0 18 7 22 61 28 34 4 113 4 175 0 101 -6 114 -9 114 -25 0
-21 49 -59 68 -53 6 3 12 0 12 -6 0 -6 -7 -11 -15 -11 -12 0 -15 -20 -15 -119
l0 -118 -25 5 -25 4 0 -184 0 -184 -119 -58 -118 -59 -136 114 -136 114 0 67
c-1 38 -4 67 -8 67 -19 -3 -21 3 -13 32 7 22 5 41 -5 65 -8 19 -12 43 -10 54
2 11 0 20 -6 20 -5 0 -9 4 -9 10 0 5 6 9 13 7 7 -1 13 10 15 28 2 22 0 26 -7
16 -7 -11 -11 -2 -16 32 -4 26 -5 54 -1 62 3 8 1 15 -5 15 -6 0 -17 7 -25 15
-14 13 -12 15 15 15 24 0 31 4 31 20 0 19 -7 20 -134 20 -74 0 -141 3 -150 6
-13 5 -16 22 -16 85 0 52 -4 79 -11 79 -8 0 -10 14 -6 40 5 39 4 40 -31 46
-42 8 -59 -1 -83 -46 -10 -18 -23 -38 -29 -44 -16 -16 -12 -26 11 -26 12 0 17
-4 13 -11 -4 -8 0 -9 15 -4 12 4 21 2 21 -4 0 -6 20 -11 45 -11 44 0 45 -1 45
-31 0 -23 -4 -30 -17 -28 -52 5 -73 -1 -73 -22 0 -17 -6 -20 -37 -19 -21 1
-82 2 -135 1 l-98 -1 0 -55 c0 -48 2 -55 20 -55 26 0 26 -30 1 -37 -14 -4 -19
-13 -19 -34 1 -25 5 -29 29 -29 15 0 30 6 32 13 4 9 6 9 6 -1 1 -7 6 -10 11
-7 6 3 10 -1 10 -10 0 -8 5 -25 12 -38 6 -12 14 -29 18 -37 4 -8 22 -18 41
-21 l34 -6 -32 -2 c-40 -1 -50 -16 -23 -33 16 -10 20 -23 20 -65 0 -29 4 -53
8 -53 5 0 59 -110 121 -245 129 -279 116 -266 223 -215 43 20 66 26 74 19 9
-7 31 -1 75 22 l63 31 19 -23 c10 -13 29 -36 43 -51 l26 -28 169 0 169 0 0 47
c0 49 29 153 43 153 5 0 5 -4 2 -10 -3 -5 -3 -16 2 -22 4 -7 8 -24 9 -38 0
-14 1 -49 2 -77 l2 -53 365 0 365 0 0 309 0 308 -37 7 c-62 10 -83 8 -77 -8 3
-8 1 -17 -4 -20 -7 -4 -11 49 -11 146 -1 83 -4 162 -7 175 -5 20 -2 23 20 23
l26 0 -2 171 -3 172 -264 135 -264 135 -53 -26 c-37 -19 -54 -33 -54 -46 0
-17 -9 -16 -102 21 -57 22 -112 42 -123 44 -13 3 -41 -11 -77 -36z m212 -61
c0 -6 -4 -7 -10 -4 -5 3 -10 11 -10 16 0 6 5 7 10 4 6 -3 10 -11 10 -16z
m-217 -141 c9 -6 9 -8 0 -8 -8 0 -13 -14 -13 -34 0 -19 6 -37 13 -39 7 -3 5
-6 -5 -6 -16 -1 -18 10 -16 107 1 68 3 85 5 47 2 -33 10 -63 16 -67z m137 98
c0 -3 -4 -8 -10 -11 -5 -3 -10 -1 -10 4 0 6 5 11 10 11 6 0 10 -2 10 -4z m498
-173 c-10 -2 -18 -9 -18 -15 0 -6 -3 -9 -6 -5 -10 10 6 27 24 26 15 -1 15 -2
0 -6z m-651 -45 c-3 -8 -6 -5 -6 6 -1 11 2 17 5 13 3 -3 4 -12 1 -19z m643 -2
c0 -3 -4 -8 -10 -11 -5 -3 -10 -1 -10 4 0 6 5 11 10 11 6 0 10 -2 10 -4z m-39
-36 c5 0 9 -37 9 -81 0 -68 -2 -80 -14 -70 -7 6 -21 9 -30 5 -12 -5 -16 0 -16
20 0 14 6 26 13 27 10 0 10 2 0 6 -15 6 -17 69 -3 78 6 4 7 11 4 17 -5 8 -1 9
10 5 10 -4 22 -7 27 -7z m-588 -60 c7 0 6 -4 -3 -10 -13 -9 -13 -11 0 -20 11
-7 11 -10 2 -10 -10 0 -10 -5 -1 -21 6 -13 7 -19 1 -15 -6 3 -13 0 -15 -6 -3
-7 -5 23 -5 67 1 44 3 65 5 48 2 -18 10 -33 16 -33z m640 -9 c9 -11 9 -13 0
-8 -8 5 -13 -5 -16 -30 -2 -21 -4 -6 -4 32 0 39 2 59 4 45 3 -14 10 -31 16
-39z m-1013 -201 c0 -27 -3 -30 -34 -30 -27 0 -34 4 -31 18 2 9 4 23 4 30 1 7
14 12 31 12 27 0 30 -3 30 -30z m57 24 c-3 -3 -12 -4 -19 -1 -8 3 -5 6 6 6 11
1 17 -2 13 -5z m-239 -52 c2 -12 -1 -22 -7 -22 -6 0 -8 -7 -4 -16 3 -9 0 -20
-8 -25 -9 -6 -10 -12 -4 -16 19 -15 13 -38 -16 -61 -33 -26 -59 -23 -59 7 0
14 -5 18 -18 14 -10 -2 -24 3 -31 11 -11 14 -11 16 5 17 11 1 22 1 27 0 4 0 7
11 8 27 3 77 2 77 39 83 52 10 65 6 68 -19z m60 5 c-18 -18 -48 -28 -48 -17 0
6 6 10 13 10 8 0 7 4 -3 10 -11 7 -7 10 18 10 28 0 31 -2 20 -13z m232 -22 c0
-19 -4 -35 -8 -35 -4 0 -6 16 -4 35 2 19 6 35 8 35 2 0 4 -16 4 -35z m1089
-176 c1 -84 1 -86 -26 -98 -23 -9 -25 -9 -13 1 11 10 14 30 12 77 -2 35 0 71
4 80 3 9 6 39 6 66 l0 50 8 -45 c5 -25 9 -84 9 -131z m-1190 149 c11 -10 14
-10 18 0 3 6 9 12 14 12 5 0 3 -10 -6 -23 -8 -13 -12 -27 -8 -32 5 -4 1 -4 -7
1 -8 4 -26 8 -40 7 l-25 -2 25 8 c24 9 23 9 -10 12 l-35 2 35 5 c33 5 34 5 10
12 -21 7 -22 8 -4 9 11 1 26 -5 33 -11z m-16 -55 c-7 -2 -19 -2 -25 0 -7 3 -2
5 12 5 14 0 19 -2 13 -5z m97 -7 c0 -11 -19 -15 -25 -6 -3 5 1 10 9 10 9 0 16
-2 16 -4z m-103 -12 c-3 -3 -12 -4 -19 -1 -8 3 -5 6 6 6 11 1 17 -2 13 -5z
m-290 -80 c-3 -3 -12 -4 -19 -1 -8 3 -5 6 6 6 11 1 17 -2 13 -5z m13 -34 c-17
-11 -97 -14 -86 -3 7 8 89 21 96 16 2 -2 -2 -8 -10 -13z m1537 4 c-3 -3 -12
-4 -19 -1 -8 3 -5 6 6 6 11 1 17 -2 13 -5z m15 -46 c-6 -6 -20 -7 -32 -3 -16
5 -19 9 -10 15 17 11 54 0 42 -12z m-1224 -40 c0 -16 -4 -28 -9 -28 -5 0 -8
-15 -8 -32 l1 -33 8 30 8 30 1 -28 c1 -25 -24 -66 -33 -56 -2 2 -5 36 -8 74
-3 66 -2 70 18 70 16 0 21 -6 22 -27z m-170 -13 c-9 -9 -188 -42 -188 -35 0 5
35 15 78 23 83 16 118 20 110 12z m142 -225 c0 -14 -62 -20 -79 -8 -14 11 -14
11 -3 -3 10 -14 9 -17 -9 -22 -11 -3 -29 -4 -40 -2 -11 2 -17 0 -14 -5 3 -4
-9 -13 -26 -19 -27 -9 -34 -8 -45 7 -23 30 -15 41 44 57 31 9 75 22 97 30 37
12 41 11 58 -7 9 -11 17 -24 17 -28z m-30 -34 c-6 -8 -34 -22 -61 -31 -27 -9
-49 -21 -49 -27 0 -6 -6 -6 -15 2 -10 9 -15 9 -15 1 0 -6 -4 -11 -10 -11 -5 0
-10 6 -10 13 0 8 33 24 78 39 96 31 97 31 82 14z"/>
<path d="M1473 1124 c-3 -10 -11 -22 -16 -25 -5 -3 -2 -9 7 -12 11 -4 18 1 22
19 8 30 -3 45 -13 18z"/>
<path d="M550 1411 c0 -7 -5 -9 -12 -5 -7 5 -8 3 -3 -5 5 -9 10 -10 18 -2 6 6
8 14 4 18 -4 3 -7 1 -7 -6z"/>
<path d="M568 1282 c-43 -28 -54 -67 -15 -53 12 5 24 17 26 27 2 10 11 24 20
30 32 24 5 21 -31 -4z m-8 -32 c0 -5 -5 -10 -11 -10 -5 0 -7 5 -4 10 3 6 8 10
11 10 2 0 4 -4 4 -10z"/>
<path d="M454 1164 c-15 -12 -16 -15 -2 -10 9 3 18 0 21 -7 2 -6 6 -1 9 11 7
26 -1 28 -28 6z"/>
<path d="M850 616 l0 -265 29 -20 c16 -12 32 -21 35 -21 3 0 5 125 4 278 -3
295 -2 289 -50 291 -17 1 -18 -18 -18 -263z"/>
<path d="M1867 785 c-3 -20 -1 -25 12 -23 9 2 17 13 19 26 5 31 -24 29 -31 -3z"/>
<path d="M38 732 c-27 -2 -38 -8 -38 -19 0 -12 7 -14 36 -10 40 7 48 11 43 24
-2 4 -21 7 -41 5z"/>
<path d="M0 542 l0 -48 60 10 c60 10 60 10 60 44 l0 34 -56 -7 c-40 -5 -54 -3
-50 4 4 6 2 11 -3 11 -6 0 -11 -21 -11 -48z"/>
<path d="M85 460 c-16 -4 -42 -11 -57 -14 -28 -6 -28 -8 -28 -82 l0 -76 27 6
c16 4 52 14 81 22 l52 15 0 67 c0 63 -1 68 -22 69 -13 0 -36 -3 -53 -7z"/>
</g>
</svg>
