<?xml version="1.0" standalone="no"?>
<!DOCTYPE svg PUBLIC "-//W3C//DTD SVG 20010904//EN"
 "http://www.w3.org/TR/2001/REC-SVG-20010904/DTD/svg10.dtd">
<svg version="1.0" xmlns="http://www.w3.org/2000/svg"
 width="356.000000pt" height="141.000000pt" viewBox="0 0 356.000000 141.000000"
 preserveAspectRatio="xMidYMid meet">

<g transform="translate(0.000000,141.000000) scale(0.100000,-0.100000)"
fill="#000000" stroke="none">
<path d="M80 1126 l0 -285 -22 -4 c-23 -4 -23 -4 1 -6 l23 -1 -7 -150 c-6
-133 -5 -150 9 -150 14 0 16 36 18 333 0 182 2 370 3 417 1 95 -3 130 -16 130
-5 0 -9 -124 -9 -284z"/>
<path d="M189 1023 c-1 -214 -2 -403 -4 -420 -1 -18 1 -33 6 -33 5 0 9 96 9
213 0 118 3 289 7 380 5 151 8 166 22 155 12 -10 12 -8 -1 8 -10 11 -18 35
-18 52 0 18 -4 32 -10 32 -6 0 -10 -137 -11 -387z"/>
<path d="M300 1365 c0 -25 5 -45 10 -45 6 0 10 8 10 17 0 9 15 29 33 44 l32
28 -42 1 -43 0 0 -45z"/>
<path d="M402 1404 c8 -7 169 -6 176 1 3 3 -37 5 -88 5 -51 0 -91 -3 -88 -6z"/>
<path d="M1919 1388 c15 -16 32 -21 66 -21 51 0 57 -10 18 -31 -28 -14 -28
-14 15 -9 l42 6 0 -37 c0 -20 4 -36 9 -36 4 0 5 -19 1 -42 -5 -23 -6 -47 -4
-53 3 -6 0 -22 -5 -36 -9 -23 -10 -22 -12 11 -1 19 -3 27 -6 17 -8 -29 6 -67
24 -67 9 0 13 -3 9 -7 -4 -5 -13 -8 -19 -8 -8 0 -13 -27 -15 -77 -3 -69 -1
-78 18 -88 11 -6 18 -14 16 -18 -12 -19 15 -30 82 -35 84 -6 98 -12 51 -25
-31 -8 -28 -9 36 -14 48 -4 72 -2 77 5 11 17 10 29 -2 22 -5 -3 -10 0 -10 7 0
9 15 13 49 12 45 -1 49 1 46 23 -1 13 2 23 6 23 5 0 9 -7 9 -15 0 -8 5 -15 10
-15 6 0 10 -7 10 -15 0 -11 4 -13 18 -5 31 17 110 28 121 17 8 -8 11 -6 11 6
0 9 -8 20 -17 26 -10 5 -14 13 -9 18 5 4 11 2 13 -4 3 -7 13 -13 23 -13 13 0
17 -5 13 -20 -5 -18 0 -20 55 -20 51 0 60 3 65 20 6 23 -22 34 -69 27 -24 -3
-22 -4 10 -6 32 -1 37 -3 26 -16 -6 -8 -24 -13 -38 -12 -25 2 -27 6 -29 52 -2
29 1 44 6 37 6 -10 10 -10 20 2 10 12 9 17 -8 25 -11 6 -27 11 -35 11 -9 0
-15 6 -14 12 2 7 -7 14 -19 16 -13 2 -23 -1 -23 -7 0 -6 -21 -11 -47 -12 -41
0 -107 -16 -79 -18 13 -1 -30 -41 -43 -41 -14 0 -33 -38 -26 -50 3 -6 -2 -10
-12 -10 -17 -1 -17 -2 1 -15 23 -17 4 -20 -25 -5 -17 10 -19 22 -19 125 0 65
-4 116 -10 120 -5 3 -10 33 -10 65 0 32 -5 62 -10 65 -7 4 -9 -35 -6 -117 2
-68 2 -101 -1 -75 -4 45 -29 87 -52 87 -20 0 -31 93 -12 105 5 3 15 29 22 59
11 50 14 55 50 66 22 7 39 17 39 22 0 4 -95 8 -210 8 l-211 0 20 -22z m231
-149 c0 -5 -5 -7 -11 -3 -8 5 -9 -26 -4 -110 5 -83 4 -116 -4 -116 -7 0 -11
34 -12 103 -1 81 -3 95 -10 70 -5 -18 -12 -33 -15 -33 -8 0 7 61 20 82 12 20
36 24 36 7z m85 -109 c3 -5 -1 -10 -9 -10 -9 0 -16 5 -16 10 0 6 4 10 9 10 6
0 13 -4 16 -10z m340 -122 c-11 -6 -23 -16 -27 -22 -5 -7 -8 -5 -8 6 0 17 14
26 40 27 10 0 8 -3 -5 -11z m-96 -21 c0 -9 -2 -8 -6 1 -2 6 -10 9 -15 6 -7 -4
-8 -2 -4 5 9 13 26 5 25 -12z m31 19 c0 -3 -4 -8 -10 -11 -5 -3 -10 -1 -10 4
0 6 5 11 10 11 6 0 10 -2 10 -4z m86 -46 c0 -11 -6 -20 -12 -20 -7 0 -19 -3
-28 -6 -10 -4 -16 -1 -16 7 0 7 3 9 7 6 9 -9 34 13 27 24 -3 5 1 9 8 9 8 0 14
-9 14 -20z m-306 -99 c0 -11 -26 -22 -34 -14 -12 12 -5 23 14 23 11 0 20 -4
20 -9z"/>
<path d="M2815 1400 c3 -5 10 -10 16 -10 5 0 9 5 9 10 0 6 -7 10 -16 10 -8 0
-12 -4 -9 -10z"/>
<path d="M2866 1396 c3 -8 14 -13 24 -11 28 5 44 -44 36 -113 -14 -123 -18
-112 32 -112 l44 0 -6 48 c-9 73 -10 134 -2 170 l8 32 -71 0 c-57 0 -69 -3
-65 -14z"/>
<path d="M3210 1348 c1 -57 3 -65 28 -83 l27 -20 -17 27 c-23 34 -23 34 5 43
l22 8 -22 4 c-15 3 -23 12 -23 24 0 21 20 25 37 8 12 -12 63 -2 63 13 0 6 7 5
15 -2 9 -7 13 -20 10 -29 -4 -11 -1 -10 13 4 19 19 19 21 3 38 -12 12 -38 19
-89 23 l-72 5 0 -63z"/>
<path d="M3492 1398 c-12 -12 -17 -38 -6 -38 9 0 48 23 62 37 11 11 9 13 -15
13 -16 0 -34 -5 -41 -12z"/>
<path d="M3450 1390 c0 -5 5 -10 11 -10 5 0 7 5 4 10 -3 6 -8 10 -11 10 -2 0
-4 -4 -4 -10z"/>
<path d="M972 1325 c-2 -31 0 -35 22 -35 17 0 25 -7 28 -25 3 -14 2 -25 -1
-25 -3 0 -5 -66 -3 -147 2 -119 1 -146 -9 -135 -25 24 -39 14 -39 -27 0 -36 3
-40 28 -44 l27 -4 -28 -2 c-27 -1 -27 -1 -26 -71 1 -38 5 -67 9 -65 12 8 38
-5 44 -21 3 -9 1 -12 -4 -9 -6 3 -10 1 -10 -6 0 -7 -11 -9 -32 -5 -45 9 -70 9
-77 -1 -3 -4 -40 -8 -81 -8 -85 0 -86 2 -89 97 -1 40 -5 50 -32 68 -16 12 -32
20 -35 17 -3 -2 0 -47 7 -98 6 -52 8 -127 5 -167 l-7 -73 41 3 c25 1 40 7 40
15 0 7 8 13 18 13 9 0 34 3 55 6 32 6 37 4 38 -12 0 -18 1 -18 9 1 5 11 9 15
9 8 1 -8 25 -13 69 -15 45 -2 66 -7 65 -15 -13 -64 -14 -97 -3 -83 10 13 11
13 7 0 -2 -8 -11 -14 -20 -12 -11 2 -18 -9 -24 -40 -9 -41 -11 -43 -43 -41
-19 1 -39 9 -46 17 -10 15 -12 15 -18 1 -3 -8 -1 -15 4 -15 6 0 10 -4 10 -10
0 -14 -100 0 -132 18 -15 9 -29 23 -31 31 -3 9 -5 5 -6 -9 0 -15 5 -32 12 -39
10 -11 10 -13 0 -7 -8 5 -13 1 -14 -11 0 -14 -2 -13 -10 5 -5 13 -6 35 -3 48
4 15 2 24 -5 24 -6 0 -11 -14 -11 -30 0 -24 -4 -30 -17 -28 -13 2 -17 -3 -15
-15 5 -27 -21 -10 -50 32 -16 25 -31 35 -53 37 -16 1 -57 6 -90 12 -73 12 -86
4 -60 -41 30 -51 34 -60 47 -92 6 -16 10 -40 9 -52 -2 -15 3 -23 12 -23 10 0
13 7 10 18 -4 17 8 20 114 35 274 37 406 50 424 39 9 -6 25 -9 35 -8 11 2 13
1 7 -1 -7 -3 -13 -7 -13 -10 0 -3 44 -65 97 -138 l98 -133 65 -6 c36 -3 166
-3 290 1 308 9 313 9 318 -5 3 -9 116 -12 488 -12 l485 0 101 27 c92 25 103
30 121 61 17 29 23 32 48 27 20 -5 29 -3 29 6 0 6 18 50 40 96 22 47 40 87 40
89 0 2 -8 4 -18 4 -10 0 -22 3 -26 7 -3 4 -14 7 -24 8 -9 1 -57 11 -107 24
l-90 22 3 224 c3 193 2 225 -11 225 -9 0 -17 14 -21 35 -6 29 -11 35 -33 35
-18 0 -24 -4 -19 -15 4 -12 -7 -15 -67 -16 -57 -1 -66 -3 -42 -10 26 -7 24 -8
-12 -5 -24 2 -43 0 -43 -6 0 -6 30 -8 74 -6 41 2 72 0 69 -4 -2 -5 12 -8 31
-8 35 0 49 -14 24 -23 -10 -3 -10 -7 0 -19 11 -14 9 -17 -18 -23 -31 -7 -42
-25 -15 -25 21 0 19 -20 -2 -21 -10 -1 -36 -1 -58 0 -26 1 -35 -1 -27 -7 10
-7 10 -11 -3 -22 -10 -8 -13 -20 -9 -33 5 -16 3 -19 -10 -14 -22 8 -20 -9 2
-23 16 -11 16 -11 -1 -6 -10 3 -21 6 -23 6 -2 0 -4 9 -4 19 0 14 -5 18 -20 14
-11 -3 -20 0 -20 6 0 6 9 11 20 11 11 0 20 5 20 10 0 6 -9 10 -20 10 -17 0
-20 7 -20 43 -1 47 -10 120 -16 126 -3 3 -19 -1 -38 -7 -19 -7 -53 -10 -82 -6
-35 4 -45 3 -34 -5 8 -5 17 -8 21 -5 4 2 10 0 14 -5 3 -6 -6 -10 -22 -10 -54
1 -125 -13 -111 -22 9 -6 6 -9 -12 -10 -14 0 -19 -3 -12 -6 6 -2 12 -21 12
-41 0 -20 5 -44 10 -52 6 -10 10 -11 10 -2 0 21 14 13 33 -19 23 -42 22 -49
-13 -49 -23 0 -31 -5 -36 -25 -3 -14 -4 -34 -1 -44 4 -15 -2 -20 -26 -25 -17
-3 -33 -2 -36 3 -3 5 -25 10 -49 13 l-43 4 3 -46 c2 -31 7 -44 16 -42 8 1 11
-2 7 -7 -3 -6 -12 -8 -20 -4 -19 7 -19 -16 -1 -43 13 -19 12 -20 -16 -22 -23
-2 -29 1 -25 12 5 12 -2 14 -33 11 -31 -3 -40 0 -40 11 0 10 8 15 23 14 56 -5
67 -1 67 26 0 14 -4 23 -10 19 -6 -4 -10 9 -9 32 1 38 1 38 9 8 5 -18 8 35 9
130 l1 161 -112 12 c-62 7 -180 19 -262 27 -157 16 -195 25 -108 25 l52 0 0
187 c0 102 3 184 6 180 11 -11 65 15 60 29 -3 9 4 16 19 20 27 7 34 24 10 24
-7 0 -19 8 -24 18 -10 16 -10 16 -11 -2 0 -13 -5 -17 -20 -13 -11 3 -22 2 -25
-3 -3 -4 -22 -4 -42 1 -21 5 -114 13 -208 19 -93 5 -198 13 -232 16 -67 7
-126 -2 -104 -15 11 -7 11 -10 0 -17 -7 -4 -14 -3 -17 4 -2 7 -8 10 -13 6 -8
-5 -13 9 -10 29 1 4 -17 6 -39 5 -28 -2 -39 -7 -35 -16 3 -7 0 -10 -5 -7 -6 3
-10 13 -10 21 0 22 -18 16 -22 -8 -2 -16 -10 -22 -30 -23 -16 0 -28 2 -28 6 0
4 -17 10 -37 14 -27 5 -33 9 -22 16 10 6 6 9 -16 9 -28 0 -31 -3 -33 -35z
m488 -15 c0 -5 -9 -10 -21 -10 -11 0 -17 5 -14 10 3 6 13 10 21 10 8 0 14 -4
14 -10z m-130 -39 c0 -14 11 -20 53 -25 28 -3 73 -6 99 -6 45 0 47 -1 46 -30
-1 -17 -7 -35 -15 -41 -18 -15 -17 -39 2 -39 8 0 15 -4 15 -10 0 -5 -5 -10
-12 -10 -6 0 -9 -3 -5 -6 3 -4 -4 -15 -16 -25 -12 -10 -16 -18 -9 -19 6 0 12
5 12 12 0 6 3 8 6 5 4 -4 1 -14 -7 -23 -13 -16 -12 -17 9 -12 15 4 22 2 22 -8
0 -10 -9 -13 -35 -10 -19 3 -33 1 -30 -4 3 -5 12 -7 20 -3 8 3 15 0 15 -6 0
-6 -15 -12 -32 -12 -18 -1 -40 -2 -48 -3 -8 -1 -19 1 -25 5 -20 12 -46 19 -41
10 9 -13 -33 -21 -41 -8 -12 18 -12 180 0 195 5 6 6 12 1 12 -10 0 -17 67 -8
81 8 14 24 1 24 -20z m415 19 c3 -5 -3 -10 -14 -10 -12 0 -21 5 -21 10 0 6 6
10 14 10 8 0 18 -4 21 -10z m-558 -14 c45 -2 85 -6 90 -9 4 -3 7 -63 5 -134
l-3 -128 -46 0 c-36 1 -48 5 -54 20 -7 20 -8 20 -8 0 -1 -11 8 -26 19 -33 11
-7 17 -18 14 -27 -5 -12 -2 -13 17 -6 13 5 23 14 22 20 -2 6 6 11 17 11 15 0
20 -6 19 -27 0 -16 -3 -22 -6 -15 -6 14 -33 16 -33 2 0 -5 -18 -9 -40 -8 -29
1 -40 6 -40 17 -1 13 -3 13 -15 -3 -20 -26 -47 -13 -45 21 3 47 1 52 -27 55
-17 2 -27 10 -29 22 -3 24 -6 157 -4 171 1 6 1 23 0 38 -2 27 0 28 32 23 18
-4 70 -8 115 -10z m523 -49 c30 -2 35 -6 38 -31 3 -20 0 -27 -10 -24 -7 3 -12
12 -10 22 3 18 1 19 -22 10 -9 -3 -13 -10 -10 -15 3 -5 -2 -6 -10 -3 -10 4
-16 1 -16 -7 0 -8 -6 -5 -16 7 -8 10 -13 13 -9 7 4 -8 0 -13 -10 -13 -9 0 -14
-4 -11 -9 11 -17 -19 -18 -32 -2 -10 12 -12 13 -6 1 7 -13 5 -13 -8 -2 -14 11
-18 10 -26 -3 -6 -13 -9 -7 -10 21 -1 21 3 41 8 44 6 3 36 5 67 3 32 -2 74 -5
93 -6z m35 -84 c-4 -10 -8 -23 -8 -30 0 -8 -6 -9 -19 -2 -22 12 -24 23 -2 15
11 -4 15 -2 11 8 -6 15 1 26 16 26 5 0 6 -8 2 -17z m-75 -17 c0 -3 -4 -8 -10
-11 -5 -3 -10 -1 -10 4 0 6 5 11 10 11 6 0 10 -2 10 -4z m-580 -121 c-9 -16
-40 -16 -40 1 0 10 7 14 23 12 12 -2 20 -7 17 -13z m481 1 c5 3 9 0 9 -5 0 -6
-7 -11 -15 -11 -8 0 -15 8 -14 18 0 10 3 12 6 4 2 -6 9 -10 14 -6z m76 -28
c-16 -9 -27 0 -21 17 5 11 9 12 19 2 9 -8 10 -14 2 -19z m-257 11 c0 -7 -8
-18 -17 -25 -16 -12 -15 -13 15 -14 32 0 44 14 20 23 -7 3 1 6 19 6 17 1 35
-3 38 -9 5 -9 -1 -12 -21 -9 -4 0 -10 -4 -13 -10 -4 -5 -25 -11 -48 -12 -48
-3 -80 16 -62 37 9 11 20 15 62 23 4 0 7 -4 7 -10z m-313 -25 c-3 -3 -12 -4
-19 -1 -8 3 -5 6 6 6 11 1 17 -2 13 -5z m613 -78 c8 11 22 23 30 27 12 4 11 6
-3 6 -11 1 -15 5 -11 13 5 8 2 9 -9 5 -10 -3 -17 -2 -17 3 0 11 21 13 44 4 13
-5 16 -22 16 -83 -1 -71 -2 -75 -17 -56 -15 19 -15 19 -9 -7 8 -34 -5 -37 -19
-5 -6 13 -17 21 -28 19 -10 -2 -17 4 -18 15 -1 16 -2 16 -6 1 -8 -32 -31 -28
-37 8 -6 29 -11 34 -35 34 -15 0 -28 5 -28 13 0 7 13 12 31 11 40 -1 56 5 56
21 0 8 8 16 18 18 16 4 16 5 -1 6 -10 0 -20 -6 -24 -15 -5 -13 -7 -13 -14 -2
-6 9 1 16 24 24 l32 11 5 -46 c5 -44 6 -45 20 -25z m-547 27 c-7 -2 -19 -2
-25 0 -7 3 -2 5 12 5 14 0 19 -2 13 -5z m123 -8 c17 -17 25 -15 -76 -20 -30
-1 -59 -3 -65 -5 -26 -6 -86 1 -80 10 3 6 49 10 103 10 66 0 92 3 82 10 -13 8
-12 10 3 10 10 0 25 -7 33 -15z m229 -5 c-3 -5 3 -14 12 -20 17 -11 17 -11 0
-6 -43 14 -157 19 -157 7 0 -16 -37 -13 -44 4 -4 12 7 15 67 16 40 1 80 1 90
0 9 -1 17 3 17 9 0 6 5 8 10 5 6 -4 8 -10 5 -15z m355 0 c0 -5 -8 -10 -17 -10
-15 0 -16 2 -3 10 19 12 20 12 20 0z m-807 -68 c4 -21 3 -31 -3 -27 -6 3 -15
-5 -22 -19 -9 -20 -14 -23 -25 -15 -7 6 -13 16 -13 21 0 8 52 77 56 74 1 -1 4
-16 7 -34z m83 27 c15 6 23 7 19 1 -4 -6 20 -10 64 -10 41 0 71 -4 71 -10 0
-6 -40 -10 -99 -10 -91 0 -99 2 -104 21 -5 17 -3 18 9 8 11 -9 21 -9 40 0z
m229 -9 c8 -14 -21 -24 -42 -15 -17 7 -16 8 2 15 27 12 33 12 40 0z m-258 -36
c-3 -3 -12 -4 -19 -1 -8 3 -5 6 6 6 11 1 17 -2 13 -5z m116 -31 c-7 -2 -21 -2
-30 0 -10 3 -4 5 12 5 17 0 24 -2 18 -5z m527 -26 c0 -7 -6 -22 -14 -33 -15
-19 -15 -19 -30 1 -13 18 -13 21 7 32 29 16 37 16 37 0z m-397 -4 c9 -8 -12
-33 -29 -33 -7 0 -12 9 -11 20 1 19 26 27 40 13z m327 -3 c0 -21 -24 -36 -52
-32 -28 4 -38 26 -15 35 22 10 67 7 67 -3z m-440 -21 l55 -7 -63 2 c-36 1 -67
8 -75 16 -10 11 -8 11 8 5 11 -5 45 -12 75 -16z m-160 -3 c0 -2 -7 -6 -15 -10
-8 -3 -15 -1 -15 4 0 6 7 10 15 10 8 0 15 -2 15 -4z m840 0 c0 -3 -4 -8 -10
-11 -5 -3 -10 -1 -10 4 0 6 5 11 10 11 6 0 10 -2 10 -4z m104 -53 c-9 -79 -16
-81 -13 -5 1 34 6 62 11 62 4 0 5 -26 2 -57z m36 -18 c0 -30 -4 -55 -10 -55
-11 0 -13 33 -4 79 9 46 14 38 14 -24z m-1066 32 c12 12 5 -22 -8 -39 -16 -22
-36 -5 -36 29 0 20 3 22 19 14 10 -6 21 -7 25 -4z m753 7 c-3 -3 -12 -4 -19
-1 -8 3 -5 6 6 6 11 1 17 -2 13 -5z m30 -46 c-2 -13 -4 -5 -4 17 -1 22 1 32 4
23 2 -10 2 -28 0 -40z m413 8 c0 -62 -14 -65 -17 -5 -2 27 2 49 7 49 6 0 10
-20 10 -44z m715 34 c18 -8 17 -9 -7 -9 -15 -1 -30 4 -33 9 -7 12 12 12 40 0z
m-1875 -19 c0 -11 -4 -23 -10 -26 -6 -4 -10 5 -10 19 0 14 5 26 10 26 6 0 10
-9 10 -19z m877 -1 c1 -11 -2 -20 -8 -20 -5 0 -9 9 -9 20 0 11 4 20 8 20 4 0
8 -9 9 -20z m318 -25 c15 -12 29 -49 15 -40 -6 3 -10 -3 -10 -14 0 -14 -5 -19
-15 -15 -11 5 -15 21 -14 63 1 31 4 47 6 36 3 -11 11 -24 18 -30z m-878 19
c-3 -3 -12 -4 -19 -1 -8 3 -5 6 6 6 11 1 17 -2 13 -5z m10 -76 c-2 -13 -4 -3
-4 22 0 25 2 35 4 23 2 -13 2 -33 0 -45z m634 19 c-10 -9 -11 -8 -5 6 3 10 9
15 12 12 3 -3 0 -11 -7 -18z m86 1 c-3 -8 -6 -5 -6 6 -1 11 2 17 5 13 3 -3 4
-12 1 -19z m-832 2 c3 -5 2 -10 -4 -10 -5 0 -13 5 -16 10 -3 6 -2 10 4 10 5 0
13 -4 16 -10z m235 -7 c0 -10 -4 -14 -8 -8 -4 6 -11 13 -16 18 -5 4 -2 7 7 7
10 0 17 -8 17 -17z m807 -40 c-3 -10 -5 -2 -5 17 0 19 2 27 5 18 2 -10 2 -26
0 -35z m-992 27 c3 -5 1 -10 -4 -10 -6 0 -11 5 -11 10 0 6 2 10 4 10 3 0 8 -4
11 -10z m132 -12 c-3 -8 -6 -5 -6 6 -1 11 2 17 5 13 3 -3 4 -12 1 -19z m-291
1 c19 8 30 9 38 1 7 -7 6 -10 -3 -10 -7 0 -9 -5 -6 -10 4 -6 4 -18 1 -26 -4
-12 -10 -13 -26 -4 -13 7 -20 7 -20 0 0 -13 -40 -13 -60 0 -12 8 -10 10 10 10
l25 1 -23 12 c-16 10 -19 16 -11 24 9 9 16 9 30 0 13 -8 24 -8 45 2z m779 1
c3 -5 1 -10 -4 -10 -6 0 -11 5 -11 10 0 6 2 10 4 10 3 0 8 -4 11 -10z m145 -2
c0 -9 4 -8 10 2 8 13 10 12 10 -2 0 -11 -8 -18 -20 -18 -11 0 -20 -4 -20 -10
0 -9 14 -14 33 -11 4 0 7 -4 7 -10 0 -6 -7 -8 -16 -5 -9 3 -21 6 -28 6 -8 0
-11 10 -8 30 4 29 32 44 32 18z m187 -10 c-3 -8 -6 -5 -6 6 -1 11 2 17 5 13 3
-3 4 -12 1 -19z m-772 1 c11 -17 0 -20 -21 -4 -17 13 -17 14 -2 15 9 0 20 -5
23 -11z m-88 -21 c-3 -8 -6 -5 -6 6 -1 11 2 17 5 13 3 -3 4 -12 1 -19z m603
12 c13 -8 13 -10 -2 -10 -9 0 -20 5 -23 10 -8 13 5 13 25 0z m-746 -9 c3 -5
-1 -11 -9 -15 -9 -3 -15 0 -15 9 0 16 16 20 24 6z m66 0 c0 -5 -7 -11 -15 -15
-9 -3 -15 0 -15 9 0 8 7 15 15 15 8 0 15 -4 15 -9z m37 -88 c-2 -21 -4 -6 -4
32 0 39 2 55 4 38 2 -18 2 -50 0 -70z m883 60 c0 -12 -2 -12 -15 1 -8 8 -15
17 -15 20 0 3 7 3 15 0 8 -4 15 -13 15 -21z m-82 -6 c2 -12 -1 -15 -12 -11
-19 7 -22 38 -3 32 6 -3 13 -12 15 -21z m29 -19 c-3 -7 -5 -2 -5 12 0 14 2 19
5 13 2 -7 2 -19 0 -25z m83 -4 c0 -14 -4 -23 -9 -20 -7 5 -8 23 -2 44 4 12 11
-3 11 -24z m116 -79 c4 -8 12 -15 19 -15 16 0 30 -18 21 -27 -3 -3 -13 0 -22
8 -10 8 -26 14 -37 14 -11 0 -22 6 -25 14 -3 8 0 11 7 7 6 -4 11 -2 11 3 0 16
20 13 26 -4z m-204 -13 c4 -14 -1 -18 -21 -20 -20 -1 -23 0 -11 8 13 8 13 10
-2 10 -9 0 -18 -10 -21 -22 -4 -20 -4 -20 -6 4 -1 25 9 33 45 37 7 0 14 -7 16
-17z m-1482 -62 c0 -5 -5 -10 -11 -10 -5 0 -7 5 -4 10 3 6 8 10 11 10 2 0 4
-4 4 -10z m273 3 c-7 -2 -19 -2 -25 0 -7 3 -2 5 12 5 14 0 19 -2 13 -5z m1013
-26 c5 -33 -61 -58 -71 -26 -8 26 3 42 26 36 11 -3 19 -1 19 5 0 16 23 3 26
-15z m-763 -4 c-13 -2 -35 -2 -50 0 -16 2 -5 4 22 4 28 0 40 -2 28 -4z m137
-65 c-1 -50 -3 -59 -11 -45 -10 17 -4 107 7 107 2 0 4 -28 4 -62z m1346 1 c13
-12 24 -30 24 -38 -1 -15 -2 -15 -13 0 -7 9 -18 14 -26 11 -9 -3 -11 0 -7 9 4
8 -2 3 -14 -11 -18 -22 -20 -23 -18 -5 3 17 -7 23 -67 37 -101 26 -100 28 3
24 80 -3 96 -7 118 -27z m-288 -7 c17 -22 15 -32 -6 -32 -10 0 -24 9 -32 20
-14 19 -14 19 -27 0 -8 -11 -21 -20 -29 -20 -8 0 -14 -4 -14 -10 0 -15 -120
-13 -125 3 -12 35 -9 52 8 49 9 -2 17 2 17 7 0 18 193 2 208 -17z m-668 -51
c0 -5 8 -12 18 -14 9 -3 2 -5 -16 -6 -18 0 -31 3 -27 8 3 5 -3 12 -12 14 -11
3 -8 5 10 6 15 0 27 -3 27 -8z m-137 -18 c-7 -2 -19 -2 -25 0 -7 3 -2 5 12 5
14 0 19 -2 13 -5z m67 2 c0 -2 -8 -9 -18 -14 -14 -8 -19 -6 -19 5 0 7 9 14 19
14 10 0 18 -2 18 -5z m-238 -57 c-7 -7 -14 -4 -21 10 -8 15 -8 21 2 25 16 6
32 -22 19 -35z m162 23 c4 -5 -3 -7 -14 -4 -23 6 -26 13 -6 13 8 0 17 -4 20
-9z m1096 -15 c0 -3 -4 -8 -10 -11 -5 -3 -10 -1 -10 4 0 6 5 11 10 11 6 0 10
-2 10 -4z m-337 -63 c-7 -2 -21 -2 -30 0 -10 3 -4 5 12 5 17 0 24 -2 18 -5z"/>
<path d="M1150 1211 c0 -5 9 -7 20 -4 11 3 20 7 20 9 0 2 -9 4 -20 4 -11 0
-20 -4 -20 -9z"/>
<path d="M1213 1213 c9 -2 23 -2 30 0 6 3 -1 5 -18 5 -16 0 -22 -2 -12 -5z"/>
<path d="M1140 1155 c0 -8 5 -15 10 -15 6 0 10 7 10 15 0 8 -4 15 -10 15 -5 0
-10 -7 -10 -15z"/>
<path d="M1138 1023 c7 -3 16 -2 19 1 4 3 -2 6 -13 5 -11 0 -14 -3 -6 -6z"/>
<path d="M1641 904 c0 -11 3 -14 6 -6 3 7 2 16 -1 19 -3 4 -6 -2 -5 -13z"/>
<path d="M1675 849 c-9 -14 -2 -20 14 -10 8 6 9 11 3 15 -6 3 -14 1 -17 -5z"/>
<path d="M996 795 c-3 -8 -1 -15 4 -15 6 0 10 7 10 15 0 8 -2 15 -4 15 -2 0
-6 -7 -10 -15z"/>
<path d="M2233 243 c9 -2 23 -2 30 0 6 3 -1 5 -18 5 -16 0 -22 -2 -12 -5z"/>
<path d="M2223 203 c9 -2 23 -2 30 0 6 3 -1 5 -18 5 -16 0 -22 -2 -12 -5z"/>
<path d="M1055 1350 c28 -12 47 -12 40 0 -3 6 -18 10 -33 9 -24 0 -25 -1 -7
-9z"/>
<path d="M3456 1338 c-3 -7 -7 -30 -11 -51 -3 -21 -9 -46 -12 -54 -5 -13 -2
-12 13 3 11 11 18 28 16 40 -2 12 1 31 7 42 7 14 8 23 1 27 -6 3 -12 0 -14 -7z"/>
<path d="M3505 1326 c-16 -24 -27 -74 -27 -128 -1 -15 -5 -25 -9 -22 -5 3 -6
-2 -3 -10 5 -12 -1 -15 -25 -13 -20 1 -31 7 -31 17 0 10 -9 16 -27 15 -37 0
-39 20 -2 22 40 3 42 5 28 35 -8 18 -17 24 -30 21 -27 -7 -24 -33 4 -34 21 0
21 -1 2 -8 -25 -10 -45 -3 -45 16 0 8 -4 11 -10 8 -5 -3 -10 -2 -10 4 0 5 5
11 10 13 6 2 1 9 -11 16 -21 13 -21 12 -15 -14 4 -16 12 -32 18 -35 7 -4 4
-19 -7 -43 -17 -35 -17 -91 -1 -128 5 -11 4 -18 -2 -18 -6 0 -16 13 -23 29 -7
17 -20 32 -29 34 -8 3 -23 8 -32 12 -14 5 -18 2 -18 -13 0 -29 26 -51 51 -45
16 4 20 2 17 -8 -3 -8 -18 -13 -37 -13 -24 2 -31 -2 -31 -16 0 -11 5 -22 10
-25 6 -3 10 1 10 9 0 9 5 16 11 16 7 0 5 -10 -5 -25 -20 -30 -23 -93 -3 -77
10 8 12 2 12 -29 0 -32 -2 -37 -11 -24 -17 23 -24 18 -24 -14 0 -27 4 -30 43
-36 23 -4 62 -5 87 -3 l45 4 -33 8 c-21 6 -30 12 -24 18 6 6 7 27 5 49 -6 42
2 47 42 28 19 -9 19 -9 -2 -5 -20 4 -22 0 -20 -33 2 -32 5 -37 21 -33 12 3 17
1 12 -6 -4 -7 6 -12 26 -14 20 -2 32 -8 30 -15 -1 -8 10 -13 30 -14 18 0 45
-2 61 -3 24 -1 27 2 27 31 0 20 -5 33 -12 33 -10 0 -10 2 0 8 14 10 16 192 2
192 -5 0 -10 9 -12 19 -3 18 -5 19 -38 5 -27 -12 -32 -17 -20 -24 8 -5 25 -10
38 -10 12 0 22 -4 22 -10 0 -11 -42 -12 -78 -1 -16 4 -28 19 -38 46 -17 49
-17 45 1 45 8 0 20 -8 26 -18 10 -16 17 -17 50 -8 22 5 39 15 40 21 1 5 5 -1
9 -15 8 -24 8 -24 9 7 1 26 -4 34 -29 45 -33 14 -36 30 -19 91 15 57 30 45 23
-18 -6 -49 -5 -55 10 -49 13 5 16 21 16 85 0 72 -2 79 -20 79 -11 0 -27 -11
-35 -24z m-170 -155 c-3 -6 4 -15 16 -21 13 -7 19 -8 15 -2 -3 6 -2 13 3 16
11 7 21 -28 12 -43 -5 -7 -15 -6 -34 4 -26 13 -27 13 -28 -13 -1 -21 -3 -22
-6 -6 -4 21 12 74 22 74 4 0 4 -4 0 -9z m75 -86 c0 -8 -6 -15 -14 -15 -20 0
-29 17 -14 23 22 9 28 7 28 -8z m-22 -54 c20 -18 30 -41 17 -41 -8 0 -55 47
-55 55 0 10 15 4 38 -14z m-68 -31 c0 -11 -4 -20 -10 -20 -5 0 -10 9 -10 20 0
11 5 20 10 20 6 0 10 -9 10 -20z m160 -11 c0 -4 -7 -6 -15 -3 -8 4 -15 10 -15
15 0 4 7 6 15 3 8 -4 15 -10 15 -15z m-20 -71 c-12 -10 -27 -18 -34 -18 -6 0
1 10 17 21 15 11 28 28 28 37 1 13 2 12 6 -3 3 -12 -3 -26 -17 -37z m90 36 c0
-2 -7 -4 -15 -4 -8 0 -15 4 -15 10 0 5 7 7 15 4 8 -4 15 -8 15 -10z m-33 -140
c-3 -3 -12 -4 -19 -1 -8 3 -5 6 6 6 11 1 17 -2 13 -5z"/>
<path d="M428 1265 c4 -94 22 -99 22 -6 0 46 4 71 13 74 6 3 1 6 -13 6 -25 1
-25 0 -22 -74z"/>
<path d="M3431 1324 c0 -11 3 -14 6 -6 3 7 2 16 -1 19 -3 4 -6 -2 -5 -13z"/>
<path d="M2272 1310 c0 -14 2 -19 5 -12 2 6 2 18 0 25 -3 6 -5 1 -5 -13z"/>
<path d="M2303 1265 c0 -38 2 -53 4 -32 2 20 2 52 0 70 -2 17 -4 1 -4 -38z"/>
<path d="M2385 1320 c3 -5 8 -10 11 -10 2 0 4 5 4 10 0 6 -5 10 -11 10 -5 0
-7 -4 -4 -10z"/>
<path d="M2240 1304 c0 -8 5 -12 10 -9 6 4 8 11 5 16 -9 14 -15 11 -15 -7z"/>
<path d="M3398 1303 c7 -3 16 -2 19 1 4 3 -2 6 -13 5 -11 0 -14 -3 -6 -6z"/>
<path d="M251 938 c-3 -295 -1 -362 10 -369 11 -6 11 -11 1 -21 -14 -14 -16
-42 -2 -33 6 4 8 11 5 16 -8 13 9 11 22 -2 8 -8 10 -2 8 23 -2 18 -4 39 -4 46
-1 7 -5 10 -11 7 -6 -3 -10 1 -10 9 0 9 7 16 15 16 21 0 19 20 -2 20 -17 1
-17 1 0 14 23 18 22 51 -3 76 -22 22 -17 50 9 51 13 0 13 2 1 6 -19 8 -30 25
-23 36 3 4 11 0 19 -10 12 -17 13 -16 14 10 0 17 -5 27 -15 27 -8 0 -15 7 -15
16 0 8 4 13 9 9 5 -3 12 -1 16 5 3 5 -1 10 -9 10 -22 0 -23 95 -1 104 8 3 15
12 15 20 0 10 -6 13 -15 10 -13 -5 -15 12 -15 124 0 72 -3 133 -7 135 -5 3
-10 -157 -12 -355z"/>
<path d="M300 1280 c0 -11 2 -20 4 -20 2 0 6 9 9 20 3 11 1 20 -4 20 -5 0 -9
-9 -9 -20z"/>
<path d="M588 1275 c-54 -31 -73 -141 -33 -201 21 -32 79 -34 96 -3 l11 21 12
-23 c6 -13 26 -28 45 -33 28 -8 36 -7 47 9 41 56 -13 133 -66 93 -9 -7 -5 -3
10 9 75 65 72 60 56 92 -18 34 -30 39 -99 46 -36 4 -60 1 -79 -10z"/>
<path d="M300 1236 c16 -16 12 -29 -7 -21 -13 4 -15 3 -7 -5 6 -6 18 -8 26 -5
19 8 12 42 -8 42 -10 0 -11 -4 -4 -11z"/>
<path d="M2030 1238 c0 -7 5 -20 10 -28 8 -12 10 -9 10 13 0 15 -4 27 -10 27
-5 0 -10 -6 -10 -12z"/>
<path d="M2241 1234 c0 -11 3 -14 6 -6 3 7 2 16 -1 19 -3 4 -6 -2 -5 -13z"/>
<path d="M3210 1211 c0 -35 2 -39 23 -34 21 4 21 4 4 -10 -18 -15 -18 -16 3
-27 25 -13 23 -15 40 28 15 37 8 49 -42 70 -28 11 -28 11 -28 -27z"/>
<path d="M2002 1168 c2 -38 8 -72 13 -78 7 -6 9 15 7 58 -2 37 -8 72 -14 77
-7 7 -9 -12 -6 -57z"/>
<path d="M970 1202 c0 -11 3 -12 13 -3 8 6 17 8 20 4 4 -3 7 -1 7 5 0 6 -9 10
-20 9 -11 -1 -20 -8 -20 -15z"/>
<path d="M997 1023 c-4 -3 -7 -11 -7 -17 0 -6 5 -5 12 2 6 6 9 14 7 17 -3 3
-9 2 -12 -2z"/>
<path d="M2015 1020 c-3 -5 -1 -10 4 -10 6 0 11 5 11 10 0 6 -2 10 -4 10 -3 0
-8 -4 -11 -10z"/>
<path d="M2759 989 c-16 -14 -29 -31 -29 -38 0 -7 -4 -10 -8 -7 -4 2 -14 1
-22 -4 -10 -6 -2 -11 26 -17 58 -11 59 -11 56 25 -2 17 -1 32 3 32 14 0 47
-39 40 -50 -4 -7 5 -10 28 -8 29 2 33 5 29 22 -5 19 -4 19 11 7 9 -7 17 -22
17 -32 0 -11 5 -19 11 -19 6 0 9 9 6 19 -2 10 -1 24 3 31 14 22 -40 57 -93 61
-41 4 -53 0 -78 -22z"/>
<path d="M2980 940 c0 -47 4 -80 10 -80 6 0 10 33 10 80 0 47 -4 80 -10 80 -6
0 -10 -33 -10 -80z"/>
<path d="M3 945 c-3 -9 -3 -18 -1 -21 3 -3 8 4 11 16 6 23 -1 27 -10 5z"/>
<path d="M2818 903 c6 -2 18 -2 25 0 6 3 1 5 -13 5 -14 0 -19 -2 -12 -5z"/>
<path d="M2005 883 c22 -7 46 -12 55 -9 8 2 4 5 -10 6 l-25 2 25 8 c19 5 11 7
-30 7 l-55 1 40 -15z"/>
<path d="M758 853 c12 -2 32 -2 45 0 12 2 2 4 -23 4 -25 0 -35 -2 -22 -4z"/>
<path d="M2503 853 c15 -2 39 -2 55 0 15 2 2 4 -28 4 -30 0 -43 -2 -27 -4z"/>
<path d="M2638 843 c6 -2 18 -2 25 0 6 3 1 5 -13 5 -14 0 -19 -2 -12 -5z"/>
<path d="M2397 823 c-15 -14 -5 -18 33 -15 22 2 43 8 46 13 6 10 -69 12 -79 2z"/>
<path d="M3228 793 c7 -3 16 -2 19 1 4 3 -2 6 -13 5 -11 0 -14 -3 -6 -6z"/>
<path d="M3291 785 c9 -9 78 -12 91 -4 8 5 -8 9 -41 9 -30 0 -52 -2 -50 -5z"/>
<path d="M3418 778 c-9 -5 -4 -8 15 -8 15 0 27 4 27 8 0 11 -25 11 -42 0z"/>
<path d="M3495 770 c44 -11 67 -11 60 0 -3 6 -25 9 -48 9 -40 -1 -40 -2 -12
-9z"/>
<path d="M2838 753 c7 -3 16 -2 19 1 4 3 -2 6 -13 5 -11 0 -14 -3 -6 -6z"/>
<path d="M2835 730 c-3 -5 1 -10 9 -10 9 0 16 5 16 10 0 6 -4 10 -9 10 -6 0
-13 -4 -16 -10z"/>
<path d="M21 550 c-1 -20 -3 -22 -11 -10 -7 11 -10 -2 -10 -44 l0 -59 30 38
c31 39 39 78 19 91 -8 5 -10 -3 -7 -24 2 -17 1 -29 -4 -26 -4 3 -8 0 -8 -6 0
-6 -5 -8 -10 -5 -8 5 -7 11 0 20 7 8 10 22 7 32 -3 13 -5 11 -6 -7z"/>
<path d="M231 484 c0 -11 3 -14 6 -6 3 7 2 16 -1 19 -3 4 -6 -2 -5 -13z"/>
<path d="M189 408 c-15 -30 -116 -127 -124 -120 -3 4 -3 0 0 -9 3 -8 -10 -55
-30 -104 -21 -53 -35 -107 -35 -132 l0 -43 60 0 c57 0 60 1 60 25 0 29 -16 34
-23 8 -2 -10 -3 -8 -2 5 1 13 -3 22 -12 22 -8 0 -11 -4 -8 -10 4 -6 -2 -7 -16
-1 -38 13 -34 31 6 29 20 -1 38 -5 41 -10 9 -13 57 -10 51 5 -3 8 9 13 39 15
43 2 48 -2 43 -35 -1 -10 32 -26 39 -18 4 4 -1 12 -11 19 -18 14 -23 36 -9 36
10 0 32 -45 32 -64 0 -19 23 -26 78 -26 44 0 48 2 70 40 23 41 22 60 -4 60 -8
0 -14 5 -14 10 0 6 6 10 13 10 7 0 8 3 2 8 -18 13 -38 60 -32 76 4 10 1 13 -9
9 -9 -3 -28 9 -49 31 -18 20 -40 36 -47 36 -8 0 -22 10 -33 23 -17 19 -20 20
-23 5 -4 -21 -61 -25 -92 -6 -18 12 -18 13 12 40 18 15 28 28 24 28 -5 0 -4 6
1 13 12 15 24 47 18 47 -2 0 -9 -10 -16 -22z m-53 -187 c-8 -12 -46 -15 -46
-5 0 4 8 13 18 20 18 14 39 3 28 -15z m24 -31 c0 -13 -70 -13 -90 0 -11 7 0
10 38 10 28 0 52 -4 52 -10z m-32 -30 c47 0 39 -18 -10 -22 -36 -3 -43 -6 -40
-23 2 -17 1 -17 -8 -5 -9 13 -11 13 -20 0 -6 -9 -10 -11 -10 -3 0 7 9 17 20
23 23 12 27 35 5 26 -8 -3 -15 0 -15 5 0 7 9 9 23 5 12 -3 37 -6 55 -6z m72 6
c0 -3 -4 -8 -10 -11 -5 -3 -10 -1 -10 4 0 6 5 11 10 11 6 0 10 -2 10 -4z m135
-46 c-3 -5 -10 -10 -16 -10 -5 0 -9 5 -9 10 0 6 7 10 16 10 8 0 12 -4 9 -10z
m85 6 c0 -3 -4 -8 -10 -11 -5 -3 -10 -1 -10 4 0 6 5 11 10 11 6 0 10 -2 10 -4z
m-390 -106 c0 -5 -4 -10 -10 -10 -5 0 -10 5 -10 10 0 6 5 10 10 10 6 0 10 -4
10 -10z"/>
<path d="M652 400 c0 -14 2 -19 5 -12 2 6 2 18 0 25 -3 6 -5 1 -5 -13z"/>
<path d="M800 391 c0 -12 5 -21 10 -21 6 0 10 6 10 14 0 8 -4 18 -10 21 -5 3
-10 -3 -10 -14z"/>
<path d="M940 385 c0 -8 5 -15 10 -15 6 0 10 7 10 15 0 8 -4 15 -10 15 -5 0
-10 -7 -10 -15z"/>
<path d="M3195 350 c-3 -5 -1 -10 4 -10 6 0 11 5 11 10 0 6 -2 10 -4 10 -3 0
-8 -4 -11 -10z"/>
<path d="M3255 330 c-3 -5 -1 -10 4 -10 6 0 11 5 11 10 0 6 -2 10 -4 10 -3 0
-8 -4 -11 -10z"/>
<path d="M3289 327 c6 -8 7 -18 3 -22 -4 -5 -1 -5 6 -1 10 6 10 11 1 22 -6 8
-14 14 -16 14 -3 0 0 -6 6 -13z"/>
<path d="M3418 310 c13 -10 30 -16 37 -13 19 7 19 19 -1 27 -10 4 -13 2 -8 -7
5 -9 4 -9 -7 1 -7 6 -20 12 -28 12 -12 -1 -10 -6 7 -20z"/>
<path d="M3406 257 c-9 -35 -6 -56 5 -32 9 20 9 20 6 0 -1 -11 -13 -25 -27
-32 -21 -11 -22 -13 -6 -13 20 0 20 0 0 -15 -22 -17 -9 -19 32 -6 16 6 55 15
87 21 56 11 57 12 57 46 0 26 -4 34 -18 34 -10 0 -23 5 -30 12 -9 9 -17 9 -36
-1 -17 -10 -29 -10 -44 -2 -17 9 -21 7 -26 -12z"/>
<path d="M15 239 c-4 -5 -4 -13 -1 -16 3 -4 6 0 6 8 0 11 2 11 10 -1 6 -9 10
-10 10 -3 0 17 -17 25 -25 12z"/>
<path d="M3360 240 c0 -5 7 -10 16 -10 8 0 12 5 9 10 -3 6 -10 10 -16 10 -5 0
-9 -4 -9 -10z"/>
<path d="M3245 189 c3 -3 16 -6 30 -6 14 0 23 2 20 6 -9 8 -55 9 -50 0z"/>
<path d="M3338 193 c7 -3 16 -2 19 1 4 3 -2 6 -13 5 -11 0 -14 -3 -6 -6z"/>
<path d="M483 150 c-6 -16 -7 -30 -2 -30 5 0 9 5 9 11 0 5 4 8 9 5 4 -3 6 6 3
19 -2 14 -5 25 -6 25 -1 0 -7 -13 -13 -30z"/>
<path d="M3254 163 c4 -4 16 -8 28 -10 28 -4 18 6 -12 12 -12 2 -20 1 -16 -2z"/>
<path d="M3229 158 c-5 -18 -6 -38 -1 -34 7 8 12 36 6 36 -2 0 -4 -1 -5 -2z"/>
<path d="M908 53 c7 -3 16 -2 19 1 4 3 -2 6 -13 5 -11 0 -14 -3 -6 -6z"/>
<path d="M142 25 c0 -17 2 -22 5 -12 2 9 2 23 0 30 -3 6 -5 -1 -5 -18z"/>
<path d="M182 38 c7 -19 38 -22 38 -4 0 10 -9 16 -21 16 -12 0 -19 -5 -17 -12z"/>
</g>
</svg>
