<?xml version="1.0" standalone="no"?>
<!DOCTYPE svg PUBLIC "-//W3C//DTD SVG 20010904//EN"
 "http://www.w3.org/TR/2001/REC-SVG-20010904/DTD/svg10.dtd">
<svg version="1.0" xmlns="http://www.w3.org/2000/svg"
 width="225.000000pt" height="225.000000pt" viewBox="0 0 225.000000 225.000000"
 preserveAspectRatio="xMidYMid meet">

<g transform="translate(0.000000,225.000000) scale(0.100000,-0.100000)"
fill="#000000" stroke="none">
<path d="M1051 2040 c-44 -79 -65 -108 -76 -104 -13 5 -15 -88 -15 -774 l0
-780 93 -4 c137 -5 135 -6 140 61 l3 56 2 -63 c1 -46 6 -63 15 -60 7 3 13 28
15 68 4 88 12 89 12 2 l0 -72 55 0 c32 0 55 -4 55 -11 0 -7 -47 -9 -142 -8
-157 3 -323 -7 -350 -22 -12 -6 -18 -6 -18 0 0 6 -7 8 -15 5 -9 -4 -41 -3 -73
1 -41 5 -51 10 -37 15 17 6 15 8 -14 15 -41 9 -303 -4 -296 -15 2 -4 16 -5 30
-2 14 2 25 0 25 -6 0 -16 -18 -24 -25 -12 -5 8 -11 8 -20 0 -9 -8 -15 -3 -25
20 -8 20 -19 30 -34 30 -19 0 -22 4 -18 30 2 17 8 30 13 30 5 0 9 7 9 16 0 8
-4 12 -10 9 -6 -3 -10 0 -10 8 0 16 24 30 34 20 3 -4 6 -15 6 -25 0 -13 7 -18
25 -18 20 0 25 -5 25 -25 0 -16 6 -25 15 -25 8 0 15 9 15 20 0 11 5 20 10 20
6 0 10 13 10 29 0 16 6 32 13 35 9 5 10 7 0 12 -8 3 -13 25 -13 55 0 40 -3 49
-17 49 -21 0 -55 -20 -35 -20 6 0 12 -7 12 -15 0 -8 5 -14 12 -12 7 1 13 -8
14 -21 2 -32 -16 -27 -29 8 -14 36 -26 40 -19 5 2 -15 0 -25 -7 -25 -17 0 -13
55 6 76 10 11 26 18 36 16 28 -6 57 26 56 62 l-2 31 -4 -28 c-7 -46 -27 -25
-28 28 0 31 6 56 17 71 17 21 17 22 -2 27 -13 3 -18 11 -14 20 3 9 -3 16 -15
20 -12 3 -21 1 -21 -4 0 -5 5 -9 12 -9 6 0 8 -3 5 -6 -9 -9 -97 16 -97 28 0 5
9 4 20 -2 12 -6 20 -7 20 -1 0 5 -6 11 -12 14 -7 2 -1 8 15 12 17 5 27 14 27
26 0 13 5 17 17 12 11 -4 12 -8 5 -11 -17 -5 -15 -29 4 -36 23 -9 24 -8 24 22
0 15 7 36 15 46 8 11 15 27 15 35 0 14 -1 14 -10 1 -8 -13 -11 -12 -24 5 -10
13 -11 22 -4 26 6 4 9 16 6 27 -3 11 3 33 13 49 10 15 18 42 17 58 l-1 30 -4
-28 c-2 -15 -9 -25 -14 -22 -14 10 -10 98 6 119 8 11 14 36 14 55 l-2 36 -6
-35 c-4 -24 -9 -31 -15 -22 -14 22 -12 84 3 99 7 8 15 33 16 56 1 23 1 32 -2
20 -2 -13 -9 -23 -14 -23 -14 0 -11 75 6 106 8 16 14 47 13 69 -1 30 -2 33 -5
13 -2 -16 -9 -28 -14 -28 -12 0 -12 73 1 86 6 6 12 33 14 60 2 27 2 39 -1 27
-2 -13 -9 -23 -14 -23 -12 0 -12 77 0 84 5 3 11 17 13 31 5 22 -4 31 -84 80
-48 30 -89 55 -91 55 -1 0 -2 -262 -2 -583 0 -655 -3 -847 -13 -846 -22 3 -32
-2 -26 -13 5 -9 3 -9 -9 1 -9 7 -14 17 -11 22 9 16 -7 51 -22 45 -19 -7 -24 5
-25 68 -1 47 -5 56 -19 56 -10 0 -21 -6 -23 -12 -4 -10 -8 -9 -16 2 -8 12 -13
12 -23 2 -6 -6 -17 -12 -22 -12 -6 0 -4 5 4 10 13 8 13 10 -1 10 -9 0 -28 -11
-42 -24 -22 -21 -24 -26 -12 -42 11 -17 10 -19 -11 -20 -13 -1 -24 1 -24 5 0
4 -7 8 -15 8 -15 0 -22 -17 -7 -17 4 -1 20 -12 37 -25 26 -22 27 -24 8 -22
-12 0 -20 4 -17 9 2 4 -5 12 -16 18 -20 11 -20 9 -20 -315 l0 -325 1124 0
1124 0 0 214 c0 165 -3 216 -13 220 -8 3 -11 -2 -8 -13 3 -11 -2 -21 -12 -25
-13 -5 -16 -2 -11 9 4 10 -2 18 -15 23 l-20 8 21 26 c23 30 15 40 -28 38 -67
-2 -132 3 -132 12 0 3 -13 13 -30 22 -31 15 -41 7 -16 -13 11 -9 13 -27 7 -63
0 -5 -11 -8 -23 -7 -21 0 -21 1 -4 8 18 7 18 8 2 14 -9 4 -14 11 -11 17 3 5
-3 10 -14 10 -11 0 -24 7 -29 16 -5 9 -13 17 -18 17 -5 1 -8 10 -7 20 2 10 -1
15 -7 12 -6 -3 -7 1 -4 9 7 18 24 22 24 6 0 -5 7 -10 15 -10 8 0 15 4 15 9 0
5 10 6 23 3 21 -5 21 -5 5 11 -9 9 -27 17 -40 18 -21 0 -22 1 -3 8 11 5 32 4
46 -1 27 -9 66 -7 84 4 6 4 24 5 40 3 28 -3 28 -2 10 12 -19 14 -19 15 4 8 16
-5 21 -4 17 4 -8 12 21 4 41 -12 16 -12 5 -30 -14 -23 -8 4 -11 2 -7 -5 4 -8
-7 -9 -37 -5 -24 3 -38 3 -31 0 6 -3 9 -10 6 -16 -4 -6 10 -9 37 -6 34 2 43 0
41 -11 -2 -11 0 -12 10 -3 8 6 19 7 26 3 22 -13 -19 -39 -60 -37 -20 0 -34 -3
-31 -7 3 -5 18 -7 34 -5 16 3 30 0 32 -6 2 -6 9 -6 18 -1 8 5 23 9 34 7 17 -2
17 -1 -2 8 -13 5 -23 11 -23 14 0 8 45 -7 52 -18 4 -6 7 9 7 34 0 25 -3 39 -6
33 -2 -7 -17 -12 -31 -12 -17 1 -21 3 -9 6 9 2 17 10 17 18 0 8 -7 11 -20 8
-16 -4 -19 -2 -14 11 4 10 1 16 -7 16 -9 1 -7 6 6 16 11 8 26 12 34 9 18 -7
31 12 31 49 0 21 -3 26 -12 19 -9 -6 -21 -5 -38 4 -23 14 -24 14 -2 10 15 -4
22 0 22 10 0 9 -6 13 -14 10 -10 -4 -13 -1 -9 9 3 7 0 14 -6 14 -6 0 -11 -4
-11 -9 0 -6 -12 -6 -31 -1 -18 5 -37 6 -43 2 -16 -10 -50 -9 -58 3 -12 16 -20
-2 -10 -22 8 -15 6 -18 -16 -20 -14 0 -29 -8 -34 -17 -5 -9 -19 -26 -31 -37
l-22 -20 28 6 c15 4 27 3 27 -2 0 -4 -15 -9 -32 -10 -51 -3 -73 -10 -70 -22 1
-6 -5 -14 -13 -17 -8 -3 -13 -9 -11 -13 4 -5 -21 -9 -71 -10 -10 -1 -31 -2
-48 -2 -16 -1 -49 -2 -72 -1 l-42 1 4 -54 c3 -30 1 -57 -4 -59 -13 -9 -105 11
-109 23 -2 5 -10 7 -18 4 -11 -4 -14 6 -14 49 l0 54 33 -2 c17 0 48 -4 67 -9
19 -4 32 -4 29 -1 -9 10 -113 35 -121 30 -5 -3 -8 0 -8 5 0 6 7 11 15 11 20 0
19 10 -2 26 -17 13 -17 15 0 28 9 7 17 18 17 25 0 6 -8 11 -17 12 -14 0 -13 2
5 9 12 5 22 12 22 15 0 4 -4 4 -8 1 -4 -2 -14 -1 -22 5 -13 7 -12 9 3 9 11 0
17 8 17 25 0 19 -5 25 -22 26 -22 1 -22 1 2 8 18 5 24 13 22 28 -2 12 2 24 8
28 18 11 -8 34 -30 28 -12 -3 -20 0 -20 6 0 7 4 10 9 7 5 -3 15 1 22 10 10 13
10 17 -2 25 -10 6 -11 9 -1 9 20 0 10 57 -13 75 -20 16 -19 16 3 10 27 -8 28
-1 2 33 -20 24 -20 26 -3 36 10 5 23 16 29 25 10 13 17 11 56 -12 46 -26 58
-47 58 -99 0 -32 0 -32 -35 -16 -19 8 -28 9 -37 0 -8 -8 -1 -15 25 -28 26 -13
38 -26 43 -48 6 -27 8 -29 15 -11 l8 20 1 -20 1 -20 9 20 c7 18 8 18 15 -7 4
-15 5 -31 2 -35 -3 -5 -2 -15 4 -23 11 -18 11 -4 11 420 0 225 -4 326 -11 328
-6 2 -8 9 -5 14 4 6 2 8 -3 5 -6 -4 -16 0 -23 8 -7 8 -9 15 -5 15 5 0 0 9 -10
20 -10 11 -13 20 -8 20 6 0 13 6 16 13 3 8 -1 14 -9 14 -8 0 -14 -7 -14 -16 0
-10 -15 -1 -42 24 -30 28 -27 23 10 -16 29 -30 50 -58 46 -61 -9 -10 -44 14
-44 30 0 7 -4 11 -9 7 -5 -3 -16 2 -24 10 -9 8 -19 15 -23 15 -5 0 13 -21 38
-47 34 -35 48 -58 51 -85 5 -43 -2 -47 -28 -18 -14 16 -21 17 -32 8 -12 -9 -8
-17 21 -47 26 -27 35 -47 39 -83 7 -53 -2 -59 -34 -25 -12 12 -19 16 -15 10 4
-7 2 -13 -4 -13 -6 0 -14 10 -19 23 -11 28 -127 121 -141 112 -5 -3 -10 0 -10
9 0 8 -6 17 -12 19 -7 3 -8 6 -2 6 5 1 25 -10 43 -23 18 -14 39 -22 46 -20 7
3 16 1 20 -5 3 -7 0 -8 -9 -5 -24 9 -19 -4 7 -17 12 -6 19 -9 15 -5 -3 4 -2
21 2 36 7 23 4 35 -11 55 -11 13 -19 33 -17 42 1 10 0 23 -4 28 -4 6 -2 17 3
25 8 12 12 12 16 3 2 -7 9 -13 14 -13 6 0 8 4 4 9 -3 5 5 17 17 27 15 10 17
14 6 11 -20 -7 -55 22 -39 32 6 4 -14 32 -49 66 -53 53 -61 57 -77 44 -16 -12
-17 -12 -6 2 7 9 9 20 5 24 -4 5 5 1 21 -8 15 -10 27 -16 27 -14 0 1 -21 22
-46 46 -33 31 -45 38 -44 24 1 -10 2 -186 1 -392 -1 -340 -2 -373 -17 -367 -9
4 -32 1 -50 -6 -28 -10 -34 -17 -34 -40 0 -16 6 -28 13 -28 6 0 23 -3 36 -7
18 -4 22 -3 16 6 -6 10 -3 11 14 2 21 -12 21 -16 21 -308 l0 -296 -61 7 c-34
3 -77 6 -95 6 l-33 0 2 155 c1 149 2 155 21 156 20 0 20 1 -1 11 -19 9 -23 19
-23 60 0 41 3 48 20 48 16 0 20 7 20 34 0 19 -6 37 -12 40 -7 4 -3 4 9 2 30
-5 39 10 11 17 -12 4 -28 1 -36 -5 -11 -10 -13 0 -11 60 3 57 7 72 19 72 12 1
11 3 -3 11 -15 9 -17 23 -16 89 2 77 2 79 23 69 19 -9 19 -8 -1 7 -19 14 -23
26 -23 75 0 49 3 59 18 59 16 1 16 1 0 14 -25 19 -22 29 5 16 l22 -11 -22 17
c-19 14 -23 26 -23 75 0 56 5 65 33 60 4 0 7 6 7 14 0 8 5 15 11 15 5 0 8 4 4
10 -3 5 -12 7 -20 3 -8 -3 -15 0 -15 7 0 6 5 8 10 5 6 -3 10 -2 10 4 0 6 6 8
14 5 26 -10 26 13 0 25 -20 9 -30 9 -40 0 -13 -10 -14 -2 -13 54 1 45 5 64 13
60 8 -5 8 -3 0 8 -11 14 -16 189 -5 189 3 0 24 -18 46 -40 29 -28 52 -42 78
-45 22 -3 37 -1 37 6 0 5 -4 7 -10 4 -14 -9 -13 1 5 34 l14 28 -100 47 c-56
25 -104 46 -109 46 -4 0 -35 -49 -69 -110z m192 17 c3 -8 1 -20 -4 -28 -6 -10
-9 -7 -9 14 0 29 5 35 13 14z m-866 -229 c-3 -7 -5 -2 -5 12 0 14 2 19 5 13 2
-7 2 -19 0 -25z m60 -35 c-3 -10 -5 -2 -5 17 0 19 2 27 5 18 2 -10 2 -26 0
-35z m990 -35 c-2 -13 -4 -3 -4 22 0 25 2 35 4 23 2 -13 2 -33 0 -45z m-990
-120 c-3 -8 -6 -5 -6 6 -1 11 2 17 5 13 3 -3 4 -12 1 -19z m990 -25 c-3 -10
-5 -2 -5 17 0 19 2 27 5 18 2 -10 2 -26 0 -35z m230 -45 c-3 -7 -5 -2 -5 12 0
14 2 19 5 13 2 -7 2 -19 0 -25z m32 -20 c1 -5 -3 -8 -9 -8 -5 0 -10 12 -9 28
0 24 1 25 9 7 5 -11 9 -23 9 -27z m-1252 -65 c-3 -10 -5 -4 -5 12 0 17 2 24 5
18 2 -7 2 -21 0 -30z m973 20 c0 -2 -6 -11 -14 -18 -11 -12 -13 -10 -13 10 0
16 4 22 13 18 8 -3 14 -7 14 -10z m20 -29 c0 -40 -2 -45 -15 -34 -17 14 -20
40 -5 40 6 0 10 9 10 20 0 11 2 20 5 20 3 0 5 -21 5 -46z m240 -44 c2 34 3 34
10 -10 4 -25 7 -46 6 -47 -1 -2 -11 4 -22 11 -16 12 -19 22 -15 53 l5 38 7
-40 6 -40 3 35z m-72 -27 c24 -21 33 -37 35 -65 1 -21 6 -38 11 -38 4 0 6 15
4 34 -3 30 -1 33 13 26 19 -11 30 -55 20 -83 -7 -18 -9 -18 -23 -3 -9 9 -19
16 -22 16 -4 0 -31 16 -61 36 -50 34 -55 40 -55 74 0 59 12 60 78 3z m-1161
-75 c-2 -13 -4 -3 -4 22 0 25 2 35 4 23 2 -13 2 -33 0 -45z m1020 -67 c31 -14
32 -13 35 26 1 18 6 29 10 27 5 -3 6 -10 3 -15 -4 -5 -2 -9 4 -9 5 0 13 4 16
10 10 16 105 -49 107 -73 6 -82 9 -91 17 -45 8 51 29 36 35 -25 l4 -48 -24 16
c-13 8 -24 13 -24 10 0 -9 -79 34 -87 48 -4 8 -44 35 -88 61 -44 25 -72 46
-62 46 10 0 17 6 16 13 -1 6 0 28 2 47 2 25 4 19 6 -21 3 -49 7 -58 30 -68z
m-1082 1 c0 -7 -3 -12 -7 -12 -5 0 -12 0 -16 0 -5 0 -9 6 -9 14 0 7 7 13 16
11 9 -1 16 -7 16 -13z m62 -84 c-2 -13 -4 -3 -4 22 0 25 2 35 4 23 2 -13 2
-33 0 -45z m990 -25 c-2 -16 -4 -5 -4 22 0 28 2 40 4 28 2 -13 2 -35 0 -50z
m-975 -82 c-6 -3 -12 -24 -15 -46 -3 -36 -4 -35 -5 12 -2 44 1 51 14 46 9 -3
11 -8 6 -12z m1230 4 c12 -15 9 -45 -3 -45 -6 0 -9 9 -6 20 3 11 1 20 -3 20
-5 0 -11 -15 -13 -32 -3 -29 -4 -27 -5 10 -2 41 11 53 30 27z m-252 -125 c0
-109 -2 -130 -15 -130 -8 0 -15 9 -15 21 0 11 -4 18 -9 15 -5 -4 -9 18 -9 49
1 47 3 55 19 55 14 0 19 7 19 25 0 14 -6 25 -12 26 -10 0 -10 2 0 6 6 2 12 18
12 34 0 16 2 29 5 29 3 0 5 -58 5 -130z m-1083 78 c-3 -7 -5 -2 -5 12 0 14 2
19 5 13 2 -7 2 -19 0 -25z m54 -11 c-5 -5 -17 -5 -28 2 -16 9 -15 10 9 9 16
-2 24 -6 19 -11z m-54 -149 c-3 -8 -6 -5 -6 6 -1 11 2 17 5 13 3 -3 4 -12 1
-19z m26 -61 c4 3 7 -3 7 -15 0 -15 -6 -22 -20 -22 -15 0 -20 7 -20 26 0 21 3
24 13 15 8 -6 17 -8 20 -4z m64 -104 c-2 -16 -4 -3 -4 27 0 30 2 43 4 28 2
-16 2 -40 0 -55z m993 -58 c0 -118 -2 -134 -16 -128 -12 4 -13 8 -3 14 10 6 8
13 -10 28 l-24 21 24 0 c19 0 21 2 9 10 -10 6 -11 10 -2 10 17 0 17 110 0 111
-10 0 -10 2 0 6 6 2 12 18 12 34 0 16 2 29 5 29 3 0 5 -61 5 -135z m637 93
c-3 -8 -6 -5 -6 6 -1 11 2 17 5 13 3 -3 4 -12 1 -19z m103 0 c0 -10 -9 -9 -35
2 -17 8 -16 8 8 7 15 -1 27 -5 27 -9z m9 -31 c-6 -10 -14 -15 -20 -12 -5 4 -9
2 -9 -4 0 -16 18 -22 23 -9 2 7 8 9 13 5 10 -10 -16 -28 -35 -24 -8 1 -13 6
-12 11 4 14 -32 32 -37 18 -2 -7 -9 -9 -14 -6 -14 9 48 39 78 39 18 0 20 -3
13 -18z m-164 3 c-3 -5 -10 -10 -16 -10 -5 0 -9 5 -9 10 0 6 7 10 16 10 8 0
12 -4 9 -10z m-5 -80 c0 -5 -8 -10 -17 -10 -15 0 -16 2 -3 10 19 12 20 12 20
0z m-1650 -66 c0 -8 -5 -12 -10 -9 -6 4 -8 11 -5 16 9 14 15 11 15 -7z m1297
-61 c-2 -16 -4 -3 -4 27 0 30 2 43 4 28 2 -16 2 -40 0 -55z m138 67 c-3 -5
-12 -10 -18 -10 -7 0 -6 4 3 10 19 12 23 12 15 0z m55 -10 c8 -5 11 -10 5 -10
-5 0 -17 5 -25 10 -8 5 -10 10 -5 10 6 0 17 -5 25 -10z m-160 -30 c0 -5 -4
-10 -10 -10 -5 0 -10 5 -10 10 0 6 5 10 10 10 6 0 10 -4 10 -10z m-1437 -17
c-3 -7 -9 -13 -15 -13 -5 0 -7 -9 -3 -19 3 -11 1 -22 -5 -26 -6 -4 -10 6 -10
24 0 18 5 31 13 31 8 0 7 3 -3 10 -12 7 -10 9 7 8 12 -1 19 -7 16 -15z m37 3
c0 -3 -4 -8 -10 -11 -5 -3 -10 -1 -10 4 0 6 5 11 10 11 6 0 10 -2 10 -4z
m1140 -91 c0 -36 -4 -65 -9 -65 -5 0 -7 9 -4 20 4 14 0 20 -12 20 -12 0 -16 6
-12 20 3 11 1 18 -4 14 -5 -3 -9 6 -9 20 0 13 6 27 13 29 33 14 37 7 37 -58z
m196 33 c5 -7 9 -20 8 -28 -1 -8 -2 -26 -3 -40 -2 -24 -2 -23 -16 8 -8 17 -16
32 -19 32 -20 0 -56 -26 -59 -44 -2 -11 -5 3 -6 32 l-1 52 44 0 c24 0 48 -6
52 -12z m194 8 c0 -2 -7 -9 -15 -16 -13 -11 -14 -10 -9 4 5 14 24 23 24 12z
m-1536 -37 c-3 -5 -9 -7 -14 -4 -4 3 -13 -2 -20 -10 -15 -19 -30 -19 -30 -2 0
16 39 36 57 30 7 -3 10 -9 7 -14z m1373 -16 c-3 -10 -5 -4 -5 12 0 17 2 24 5
18 2 -7 2 -21 0 -30z m25 -15 c-6 -6 -7 0 -4 19 5 21 7 23 10 9 2 -10 0 -22
-6 -28z m275 26 c-3 -3 -12 -4 -19 -1 -8 3 -5 6 6 6 11 1 17 -2 13 -5z m-1739
-33 c10 -6 9 -10 -7 -14 -14 -3 -21 0 -21 9 0 16 9 18 28 5z m87 -4 c16 1 16
1 3 -3 -21 -6 -23 -20 -5 -27 9 -4 8 -8 -3 -16 -10 -7 -1 -9 33 -6 l47 4 0
-58 c0 -63 -13 -84 -46 -75 -16 4 -19 12 -16 40 4 30 1 34 -19 35 l-24 0 23
11 c12 6 22 15 22 20 0 10 -3 10 -35 -2 -24 -9 -26 -8 -24 23 1 17 1 37 -1 42
-5 19 0 26 13 18 6 -4 21 -7 32 -6z m1882 -9 c-3 -8 -6 -5 -6 6 -1 11 2 17 5
13 3 -3 4 -12 1 -19z m-559 -53 c1 -21 -2 -25 -26 -24 -15 0 -22 3 -15 5 7 3
10 11 7 19 -3 7 3 15 13 18 10 3 18 5 18 6 0 0 2 -10 3 -24z m65 18 c-7 -2
-21 -2 -30 0 -10 3 -4 5 12 5 17 0 24 -2 18 -5z m-1183 -13 c0 -5 -4 -10 -10
-10 -5 0 -10 5 -10 10 0 6 5 10 10 10 6 0 10 -4 10 -10z m727 -12 c-3 -8 -6
-5 -6 6 -1 11 2 17 5 13 3 -3 4 -12 1 -19z m597 13 c4 -5 3 -16 0 -25 -4 -11
-20 -15 -65 -14 -49 1 -59 5 -59 19 0 13 10 19 38 22 71 7 81 7 86 -2z m-407
-23 c-3 -8 -6 -5 -6 6 -1 11 2 17 5 13 3 -3 4 -12 1 -19z m142 -5 c2 -2 -5 -3
-17 -3 -14 0 -22 6 -22 16 0 14 3 15 18 3 9 -7 19 -15 21 -16z m462 12 c22 -9
27 -14 15 -15 -17 0 -17 -2 4 -20 26 -23 26 -23 -17 -11 -20 6 -35 6 -38 0 -4
-5 1 -9 10 -9 9 0 14 -4 10 -9 -3 -6 -14 -9 -25 -8 -17 1 -20 9 -20 44 0 48 8
52 61 28z m-1064 -27 c-3 -8 -6 -5 -6 6 -1 11 2 17 5 13 3 -3 4 -12 1 -19z
m-810 -30 c-3 -7 -5 -2 -5 12 0 14 2 19 5 13 2 -7 2 -19 0 -25z m130 -15 c-3
-3 -11 -2 -17 2 -9 6 -9 10 1 16 14 8 27 -7 16 -18z m218 17 c3 -5 1 -10 -4
-10 -6 0 -11 5 -11 10 0 6 2 10 4 10 3 0 8 -4 11 -10z m-380 -27 c18 -14 18
-15 2 -9 -10 3 -23 6 -28 6 -5 0 -9 5 -9 10 0 14 12 12 35 -7z m1830 7 c4 -7
-127 -1 -135 6 -2 3 26 4 63 3 37 -1 70 -5 72 -9z m-1445 -14 c0 -8 -4 -18
-10 -21 -5 -3 -10 3 -10 14 0 12 5 21 10 21 6 0 10 -6 10 -14z m475 -6 c-3 -5
-10 -10 -16 -10 -5 0 -9 5 -9 10 0 6 7 10 16 10 8 0 12 -4 9 -10z m-850 -20
c-3 -5 -1 -10 6 -10 7 0 10 -2 8 -5 -3 -2 -15 -2 -27 2 -23 6 -21 23 4 23 8 0
12 -4 9 -10z m1705 0 c14 -4 19 -8 13 -9 -7 -1 -13 -8 -13 -17 0 -9 -9 -18
-20 -21 -11 -3 -20 -9 -20 -14 0 -5 -9 -9 -20 -9 -11 0 -20 4 -20 8 0 4 -12 8
-27 7 -16 0 -36 4 -46 10 -16 9 -16 11 5 17 20 5 20 6 -7 7 -25 1 -27 3 -12
12 9 5 21 8 25 5 4 -2 14 -1 22 5 18 10 85 10 120 -1z m-1723 -26 c-3 -3 -12
-4 -19 -1 -8 3 -5 6 6 6 11 1 17 -2 13 -5z m1251 -21 c-21 -2 -57 -2 -80 0
-24 2 -7 4 37 4 44 0 63 -2 43 -4z"/>
<path d="M1572 1394 c10 -10 20 -16 22 -13 3 3 -5 11 -17 18 -21 13 -21 12 -5
-5z"/>
<path d="M1661 1334 c0 -11 3 -14 6 -6 3 7 2 16 -1 19 -3 4 -6 -2 -5 -13z"/>
<path d="M1560 1265 c0 -2 10 -10 23 -16 20 -11 21 -11 8 4 -13 16 -31 23 -31
12z"/>
<path d="M1495 1240 c3 -5 10 -10 16 -10 5 0 9 5 9 10 0 6 -7 10 -16 10 -8 0
-12 -4 -9 -10z"/>
<path d="M1662 1170 c0 -19 2 -27 5 -17 2 9 2 25 0 35 -3 9 -5 1 -5 -18z"/>
<path d="M1565 450 c3 -5 14 -10 23 -10 15 0 15 2 2 10 -20 13 -33 13 -25 0z"/>
<path d="M1160 2046 c0 -2 8 -10 18 -17 15 -13 16 -12 3 4 -13 16 -21 21 -21
13z"/>
<path d="M1441 1897 c-8 -11 -2 -21 25 -45 42 -37 40 -37 48 -16 5 12 2 15 -9
10 -10 -4 -19 2 -24 17 -5 12 -11 21 -15 20 -19 -8 -28 -2 -16 12 7 8 10 15 7
15 -2 0 -10 -6 -16 -13z"/>
<path d="M1264 1828 c3 -15 26 -23 26 -8 0 6 -4 9 -9 6 -5 -4 -12 -1 -14 4 -3
6 -4 5 -3 -2z"/>
<path d="M581 1706 c-1 -58 0 -63 24 -74 34 -16 35 -15 35 7 0 10 -10 26 -22
35 l-23 17 23 -11 c19 -9 22 -8 22 8 0 11 -10 27 -22 36 l-23 17 23 -11 c32
-15 27 3 -7 23 l-28 16 -2 -63z"/>
<path d="M1242 1676 c-1 -19 5 -27 30 -35 17 -6 32 -11 33 -11 1 0 2 13 1 29
-1 26 -3 28 -25 20 -19 -8 -22 -7 -17 6 3 8 0 15 -7 15 -7 0 -14 -11 -15 -24z"/>
<path d="M719 1652 c-1 -20 -1 -41 0 -46 1 -4 2 -23 3 -41 1 -28 3 -31 15 -20
19 20 18 131 -2 139 -12 4 -15 -3 -16 -32z"/>
<path d="M1200 1675 c0 -8 7 -15 16 -15 14 0 14 3 4 15 -7 8 -14 15 -16 15 -2
0 -4 -7 -4 -15z"/>
<path d="M1560 1676 c0 -2 8 -10 18 -17 15 -13 16 -12 3 4 -13 16 -21 21 -21
13z"/>
<path d="M762 1628 c-1 -24 1 -29 7 -18 5 8 7 18 5 22 -3 4 0 8 6 8 6 0 8 5 5
10 -12 19 -21 10 -23 -22z"/>
<path d="M584 1588 c1 -27 5 -33 22 -31 12 1 21 -4 21 -12 0 -8 -4 -15 -9 -15
-5 0 -6 -4 -3 -10 11 -18 21 -11 23 18 1 20 -5 32 -26 44 -16 11 -21 18 -11
18 8 0 20 -5 27 -12 7 -7 12 -8 12 -2 0 9 -41 34 -54 34 -2 0 -3 -15 -2 -32z"/>
<path d="M772 1555 c-11 -12 -10 -15 3 -15 8 0 15 7 15 15 0 18 -2 18 -18 0z"/>
<path d="M863 1510 c0 -54 1 -57 4 -17 2 26 8 45 14 42 5 -4 9 1 9 10 0 9 -4
14 -9 11 -5 -4 -12 0 -14 6 -3 7 -5 -16 -4 -52z"/>
<path d="M582 1519 c2 -12 13 -25 25 -30 21 -8 21 -7 5 22 -20 34 -35 38 -30
8z"/>
<path d="M1560 1535 c0 -2 10 -10 23 -16 20 -11 21 -11 8 4 -13 16 -31 23 -31
12z"/>
<path d="M760 1520 c0 -6 6 -10 13 -10 8 0 9 -3 1 -8 -16 -11 -23 -47 -12 -66
6 -11 5 -16 -4 -16 -9 0 -9 -3 2 -10 26 -17 30 -11 30 49 0 43 -4 60 -15 65
-8 3 -15 1 -15 -4z"/>
<path d="M1285 1511 c-11 -5 -26 -6 -32 -4 -7 3 -13 -2 -13 -10 0 -8 13 -20
29 -25 27 -10 29 -9 33 19 3 16 4 29 4 28 -1 0 -10 -4 -21 -8z"/>
<path d="M580 1420 c0 -56 2 -60 29 -75 l29 -15 1 64 c0 58 -2 64 -25 75 -14
6 -27 11 -29 11 -3 0 -5 -27 -5 -60z m35 30 c3 -6 -1 -7 -9 -4 -18 7 -21 14
-7 14 6 0 13 -4 16 -10z m0 -50 c3 -6 -1 -7 -9 -4 -18 7 -21 14 -7 14 6 0 13
-4 16 -10z"/>
<path d="M721 1458 c-5 -13 -5 -24 0 -26 5 -2 6 -8 3 -14 -12 -18 -4 -122 9
-130 9 -6 9 -8 0 -8 -19 0 -19 -260 0 -260 9 0 9 -2 0 -8 -9 -6 -14 -47 -15
-135 l-3 -127 35 -7 c29 -5 32 -7 15 -14 -19 -7 -19 -8 2 -8 21 -1 23 3 22 57
-1 31 -7 60 -13 64 -7 5 -6 8 4 8 13 0 13 1 0 10 -10 6 -11 10 -2 10 8 0 12
17 12 50 0 33 -4 50 -12 50 -9 0 -10 3 -2 8 16 11 19 122 2 122 -10 0 -10 2
-1 8 17 11 15 279 -2 286 -9 3 -13 -15 -14 -60 -1 -46 2 -64 11 -64 8 0 9 -3
3 -8 -13 -9 -17 -26 -18 -80 -2 -31 2 -42 13 -42 10 0 11 -3 3 -8 -15 -9 -28
-62 -15 -62 5 0 7 -11 4 -25 -5 -27 -17 -33 -24 -12 -2 6 -3 37 -3 67 4 120 4
227 1 270 -1 25 1 57 5 72 9 34 -8 48 -20 16z m41 -464 c-5 -9 -7 -68 -4 -131
3 -88 1 -114 -8 -111 -13 4 -22 128 -9 128 3 0 3 19 -2 43 -6 36 -6 63 0 85 1
1 8 2 16 2 12 0 14 -4 7 -16z"/>
<path d="M863 1375 c0 -33 2 -45 4 -27 2 18 2 45 0 60 -2 15 -4 0 -4 -33z"/>
<path d="M1201 1343 c-1 -17 16 -25 25 -12 4 7 3 9 -4 5 -5 -3 -13 0 -15 6 -4
9 -6 10 -6 1z"/>
<path d="M1278 1343 c-24 -6 -23 -30 1 -43 28 -15 33 -13 21 10 -6 11 -8 25
-5 30 3 6 5 9 3 9 -2 -1 -11 -3 -20 -6z"/>
<path d="M580 1277 c0 -60 1 -63 30 -74 l30 -11 0 49 c0 43 -3 50 -27 63 -16
8 -24 15 -20 16 5 0 17 -5 28 -10 10 -6 19 -7 19 -2 0 8 -42 32 -55 32 -3 0
-5 -28 -5 -63z m35 -25 c-3 -3 -11 0 -18 7 -9 10 -8 11 6 5 10 -3 15 -9 12
-12z"/>
<path d="M1241 1324 c0 -11 3 -14 6 -6 3 7 2 16 -1 19 -3 4 -6 -2 -5 -13z"/>
<path d="M863 1255 c0 -27 2 -38 4 -22 2 15 2 37 0 50 -2 12 -4 0 -4 -28z"/>
<path d="M881 1274 c0 -11 3 -14 6 -6 3 7 2 16 -1 19 -3 4 -6 -2 -5 -13z"/>
<path d="M2180 1250 c-9 -6 -10 -10 -3 -10 6 0 15 5 18 10 8 12 4 12 -15 0z"/>
<path d="M2111 1242 c-1 -7 -6 -10 -11 -7 -6 4 -9 3 -8 -2 2 -4 -1 -10 -7 -11
-5 -2 -16 -8 -22 -14 -7 -6 -13 -7 -13 -2 0 5 -5 2 -10 -6 -6 -10 -4 -21 8
-34 12 -13 13 -20 5 -23 -7 -2 -9 -11 -6 -19 7 -19 -14 -18 -25 2 -11 20 -21
7 -24 -31 -2 -23 -6 -26 -29 -21 -37 7 -41 -2 -21 -38 22 -40 33 -47 49 -34
15 12 28 5 19 -11 -4 -5 -20 -8 -37 -6 -28 4 -30 3 -18 -13 7 -9 15 -19 16
-21 2 -3 25 -5 51 -6 26 -1 39 0 29 2 -9 3 -14 9 -11 15 4 6 2 8 -4 4 -6 -3
-14 -1 -17 5 -5 7 1 9 16 7 13 -1 29 -13 35 -26 6 -12 15 -26 19 -30 5 -4 5
-1 1 6 -4 7 -1 12 8 12 11 0 15 -7 12 -22 -2 -18 -9 -22 -27 -20 -21 2 -24 -1
-23 -25 1 -15 6 -27 12 -26 5 1 8 -7 5 -17 -3 -11 -10 -20 -15 -20 -5 0 -6 -5
-2 -11 4 -7 10 -7 16 -1 6 6 33 8 61 5 40 -5 48 -3 42 8 -6 11 -5 12 6 2 28
-27 38 -11 13 22 -13 17 -16 18 -24 5 -8 -12 -10 -11 -10 7 0 20 2 21 25 11
13 -6 22 -15 19 -19 -3 -5 1 -9 10 -9 8 0 17 -6 19 -12 3 -7 6 27 6 75 1 90
-4 106 -42 120 -11 4 -17 14 -15 24 2 10 -3 23 -12 30 -8 6 -11 15 -7 19 4 5
12 3 16 -4 4 -7 14 -12 22 -10 8 2 13 -3 12 -9 -2 -7 1 -13 6 -13 12 0 24 34
13 38 -5 1 -17 9 -27 16 -17 12 -17 14 0 39 9 15 21 27 26 27 5 0 9 9 9 19 0
20 -37 35 -63 25 -8 -3 -18 0 -22 6 -5 8 -11 8 -21 -1 -11 -9 -16 -6 -23 12
-5 13 -10 18 -10 11z m-7 -70 c3 -5 -1 -9 -9 -9 -8 0 -12 4 -9 9 3 4 7 8 9 8
2 0 6 -4 9 -8z m33 -22 c-1 -12 -8 -20 -19 -20 -17 0 -17 1 0 19 22 25 21 25
19 1z m-52 -20 c3 -5 1 -10 -4 -10 -6 0 -11 5 -11 10 0 6 2 10 4 10 3 0 8 -4
11 -10z m-68 -90 c-1 -11 -5 -20 -9 -20 -10 0 -10 4 -2 24 8 22 13 20 11 -4z
m117 -75 c-4 -8 -11 -15 -16 -15 -6 0 -5 6 2 15 7 8 14 15 16 15 2 0 1 -7 -2
-15z m56 5 c0 -5 -5 -10 -11 -10 -5 0 -7 5 -4 10 3 6 8 10 11 10 2 0 4 -4 4
-10z m-18 -42 c-3 -14 -1 -19 6 -14 6 4 19 -2 29 -13 9 -11 21 -17 27 -14 6 3
8 2 4 -2 -5 -5 -20 -10 -34 -11 -19 -2 -24 1 -20 12 3 8 1 14 -5 14 -21 0 -39
26 -26 39 17 17 26 13 19 -11z m53 1 c-4 -5 -12 -9 -18 -8 -9 0 -8 2 1 6 6 2
9 10 6 15 -4 7 -2 8 5 4 6 -4 9 -12 6 -17z"/>
<path d="M580 1190 c0 -4 14 -13 30 -19 17 -5 30 -6 30 -1 0 4 -13 13 -30 19
-16 5 -30 6 -30 1z"/>
<path d="M1210 1161 c0 -25 6 -27 13 -6 4 8 2 17 -3 20 -6 4 -10 -3 -10 -14z"/>
<path d="M580 1151 c0 -19 18 -31 46 -31 24 0 15 30 -12 40 -34 13 -34 13 -34
-9z"/>
<path d="M863 1110 c0 -30 2 -43 4 -27 2 15 2 39 0 55 -2 15 -4 2 -4 -28z"/>
<path d="M882 1130 c0 -14 2 -19 5 -12 2 6 2 18 0 25 -3 6 -5 1 -5 -13z"/>
<path d="M1560 1136 c0 -3 9 -10 20 -16 11 -6 20 -8 20 -6 0 3 -9 10 -20 16
-11 6 -20 8 -20 6z"/>
<path d="M2241 1124 c0 -11 3 -14 6 -6 3 7 2 16 -1 19 -3 4 -6 -2 -5 -13z"/>
<path d="M580 1095 c0 -23 34 -45 47 -31 4 3 2 6 -4 6 -6 0 -9 8 -6 19 3 12
-2 20 -16 24 -17 4 -21 1 -21 -18z"/>
<path d="M5 1070 c-3 -5 1 -10 10 -10 9 0 13 5 10 10 -3 6 -8 10 -10 10 -2 0
-7 -4 -10 -10z"/>
<path d="M580 1049 c0 -5 5 -9 10 -9 6 0 10 -5 10 -11 0 -5 -5 -7 -11 -3 -7 4
-9 -2 -7 -17 2 -15 12 -25 31 -30 25 -7 27 -5 27 26 0 28 -5 35 -30 44 -18 6
-30 6 -30 0z"/>
<path d="M1286 1025 c-4 -11 -12 -14 -26 -10 -17 5 -20 2 -20 -24 0 -27 3 -31
28 -31 28 0 52 16 52 34 0 5 -7 1 -15 -10 -14 -18 -14 -17 -5 10 11 31 -2 61
-14 31z"/>
<path d="M863 985 c0 -22 2 -30 4 -17 2 12 2 30 0 40 -3 9 -5 -1 -4 -23z"/>
<path d="M1200 995 c0 -16 6 -25 15 -25 9 0 15 9 15 25 0 16 -6 25 -15 25 -9
0 -15 -9 -15 -25z"/>
<path d="M882 990 c0 -14 2 -19 5 -12 2 6 2 18 0 25 -3 6 -5 1 -5 -13z"/>
<path d="M1570 990 c8 -5 20 -10 25 -10 6 0 3 5 -5 10 -8 5 -19 10 -25 10 -5
0 -3 -5 5 -10z"/>
<path d="M580 955 c0 -22 17 -35 47 -35 27 0 11 43 -19 51 -25 6 -28 4 -28
-16z"/>
<path d="M1948 949 c-3 -8 0 -26 8 -40 7 -13 13 -18 14 -11 0 6 10 12 23 13
14 0 17 3 7 6 -8 4 -22 15 -30 26 -14 16 -18 17 -22 6z"/>
<path d="M1909 918 c-1 -5 -2 -11 -3 -15 -1 -5 -5 -14 -9 -20 -4 -7 -4 -21 1
-30 5 -10 7 -33 5 -50 -5 -32 2 -39 31 -34 5 1 6 -5 3 -14 -4 -8 -2 -15 3 -15
6 0 10 5 10 10 0 6 10 8 23 5 27 -6 43 4 48 30 2 11 15 25 29 32 14 7 19 13
12 13 -7 0 -11 4 -7 9 3 6 -2 16 -10 23 -9 7 -22 19 -30 26 -19 17 -32 15 -44
-5 -6 -10 -11 -12 -11 -5 0 6 -5 12 -11 12 -7 0 -18 8 -25 18 -7 9 -14 14 -15
10z m131 -79 c0 -6 -4 -7 -10 -4 -5 3 -10 11 -10 16 0 6 5 7 10 4 6 -3 10 -11
10 -16z m-36 -15 c13 -5 14 -9 5 -20 -6 -8 -15 -11 -20 -8 -5 3 -9 1 -9 -5 0
-5 6 -11 13 -14 6 -2 0 -4 -15 -4 -32 -1 -45 23 -17 32 10 4 19 11 19 16 0 11
3 11 24 3z"/>
<path d="M22 901 c-7 -4 -14 -17 -16 -28 -4 -16 0 -20 15 -16 25 7 32 19 22
37 -5 9 -13 12 -21 7z"/>
<path d="M582 848 c3 -61 4 -63 31 -66 l28 -3 -2 58 c-2 59 -10 73 -42 73 -16
0 -18 -8 -15 -62z m35 36 c-3 -3 -12 -4 -19 -1 -8 3 -5 6 6 6 11 1 17 -2 13
-5z m6 -51 c-7 -2 -19 -2 -25 0 -7 3 -2 5 12 5 14 0 19 -2 13 -5z"/>
<path d="M1550 896 c0 -3 17 -13 37 -21 46 -20 53 -29 53 -82 l0 -41 -42 4
-43 5 35 -18 c19 -10 38 -23 43 -30 4 -6 16 -10 26 -8 21 4 31 -18 31 -67 0
-16 4 -28 8 -28 5 0 7 52 6 116 -1 117 -8 139 -41 127 -7 -3 -13 0 -13 6 0 6
-8 11 -18 11 -10 0 -22 4 -27 9 -12 11 -55 24 -55 17z m136 -84 c2 -11 0 -31
-6 -44 -8 -22 -9 -22 -11 7 l-1 30 -8 -30 c-7 -27 -8 -25 -9 17 -1 38 2 46 16
44 9 -2 18 -12 19 -24z"/>
<path d="M863 835 c0 -33 2 -45 4 -27 2 18 2 45 0 60 -2 15 -4 0 -4 -33z"/>
<path d="M501 854 c0 -11 3 -14 6 -6 3 7 2 16 -1 19 -3 4 -6 -2 -5 -13z"/>
<path d="M1568 853 c7 -3 16 -2 19 1 4 3 -2 6 -13 5 -11 0 -14 -3 -6 -6z"/>
<path d="M1211 834 c0 -11 3 -14 6 -6 3 7 2 16 -1 19 -3 4 -6 -2 -5 -13z"/>
<path d="M1240 821 c0 -21 6 -30 23 -35 33 -9 49 -7 42 4 -4 6 -11 7 -17 4 -6
-4 -8 -2 -4 4 3 6 2 14 -4 17 -8 5 -7 11 1 21 9 11 7 14 -15 14 -22 0 -26 -4
-26 -29z"/>
<path d="M0 790 c0 -39 9 -48 36 -36 13 6 24 17 24 24 0 7 -4 10 -10 7 -5 -3
-10 -2 -10 3 0 5 -9 12 -20 15 -15 4 -20 0 -20 -13z"/>
<path d="M580 760 c0 -5 14 -10 32 -10 36 0 35 4 -4 14 -17 4 -28 2 -28 -4z"/>
<path d="M863 690 c0 -36 2 -50 4 -32 2 17 2 47 0 65 -2 17 -4 3 -4 -33z"/>
<path d="M722 710 c0 -19 2 -27 5 -17 2 9 2 25 0 35 -3 9 -5 1 -5 -18z"/>
<path d="M581 714 c0 -11 3 -14 6 -6 3 7 2 16 -1 19 -3 4 -6 -2 -5 -13z"/>
<path d="M760 664 c0 -32 -4 -44 -12 -41 -7 2 -13 14 -12 26 0 11 -3 21 -7 21
-4 0 -8 -39 -8 -86 -1 -47 -3 -90 -7 -95 -3 -5 2 -9 10 -9 13 0 16 13 16 65 0
47 4 65 13 65 17 0 11 -121 -7 -132 -8 -6 -8 -8 2 -8 6 0 12 -7 12 -15 0 -8
-4 -15 -10 -15 -5 0 -10 7 -10 15 0 8 -7 15 -15 15 -11 0 -15 -11 -15 -40 0
-40 0 -40 39 -40 l39 0 0 160 c0 130 -3 160 -14 160 -10 0 -14 -13 -14 -46z"/>
<path d="M580 680 c0 -5 5 -10 10 -10 6 0 10 5 10 10 0 6 -4 10 -10 10 -5 0
-10 -4 -10 -10z"/>
<path d="M1240 657 c0 -29 4 -35 24 -39 26 -5 56 7 56 23 0 6 -5 7 -11 3 -8
-4 -9 0 -4 15 4 12 2 21 -4 21 -6 0 -11 -6 -11 -14 0 -8 -5 -18 -11 -22 -7 -4
-9 2 -7 17 2 16 -3 25 -14 27 -14 3 -18 -4 -18 -31z"/>
<path d="M1208 673 c7 -3 16 -2 19 1 4 3 -2 6 -13 5 -11 0 -14 -3 -6 -6z"/>
<path d="M580 650 c0 -5 15 -10 33 -10 24 0 28 3 17 10 -20 13 -50 13 -50 0z"/>
<path d="M1642 640 c0 -14 2 -19 5 -12 2 6 2 18 0 25 -3 6 -5 1 -5 -13z"/>
<path d="M1661 624 c0 -11 3 -14 6 -6 3 7 2 16 -1 19 -3 4 -6 -2 -5 -13z"/>
<path d="M580 621 c0 -6 6 -11 14 -11 8 0 17 -4 20 -9 4 -5 -3 -7 -13 -4 -16
4 -19 -2 -22 -46 -3 -42 -1 -51 13 -51 9 0 23 -3 32 -6 13 -5 15 5 14 60 -1
46 -5 66 -14 66 -7 0 -19 3 -28 6 -9 3 -16 1 -16 -5z"/>
<path d="M863 550 c0 -36 2 -50 4 -32 2 17 2 47 0 65 -2 17 -4 3 -4 -33z"/>
<path d="M1568 583 c7 -3 16 -2 19 1 4 3 -2 6 -13 5 -11 0 -14 -3 -6 -6z"/>
<path d="M502 550 c0 -14 2 -19 5 -12 2 6 2 18 0 25 -3 6 -5 1 -5 -13z"/>
<path d="M2220 490 c0 -5 5 -10 11 -10 5 0 7 5 4 10 -3 6 -8 10 -11 10 -2 0
-4 -4 -4 -10z"/>
<path d="M580 482 c0 -4 -16 -14 -36 -21 -29 -10 -35 -17 -32 -37 3 -24 22
-34 24 -14 1 6 2 15 3 20 0 6 12 10 26 10 20 0 25 -5 25 -25 0 -16 6 -25 15
-25 9 0 15 9 15 23 0 14 6 24 15 24 10 0 13 -7 9 -24 -5 -19 -2 -23 15 -23 14
0 21 6 21 20 0 11 5 20 10 20 6 0 10 7 10 15 0 10 -10 15 -29 15 -16 0 -31 4
-33 8 -4 12 -58 25 -58 14z"/>
<path d="M860 435 c0 -30 4 -42 15 -42 11 0 15 12 15 42 0 30 -4 42 -15 42
-11 0 -15 -12 -15 -42z m17 -12 c-3 -10 -5 -4 -5 12 0 17 2 24 5 18 2 -7 2
-21 0 -30z"/>
</g>
</svg>
