<?xml version="1.0" standalone="no"?>
<!DOCTYPE svg PUBLIC "-//W3C//DTD SVG 20010904//EN"
 "http://www.w3.org/TR/2001/REC-SVG-20010904/DTD/svg10.dtd">
<svg version="1.0" xmlns="http://www.w3.org/2000/svg"
 width="273.000000pt" height="184.000000pt" viewBox="0 0 273.000000 184.000000"
 preserveAspectRatio="xMidYMid meet">

<g transform="translate(0.000000,184.000000) scale(0.100000,-0.100000)"
fill="#000000" stroke="none">
<path d="M2565 1622 c-9 -8 -82 -32 -114 -38 -8 -2 -23 2 -34 8 -17 9 -19 8
-14 -6 6 -15 -1 -17 -51 -16 -89 3 -625 -40 -644 -50 -10 -6 -41 -10 -70 -10
-29 0 -76 -3 -103 -6 l-50 -6 4 -40 c2 -25 -1 -43 -9 -48 -16 -10 -17 -119 -2
-145 11 -20 11 -20 12 2 0 29 16 38 23 13 3 -11 10 -20 16 -20 19 0 23 46 12
121 -7 40 -8 75 -4 79 4 4 40 10 79 13 l71 6 2 -55 2 -54 -46 0 c-38 0 -48 4
-52 20 -6 24 -19 26 -27 4 -9 -22 -7 -31 3 -16 6 10 13 3 25 -25 28 -64 41
-86 49 -85 4 1 21 2 38 2 l31 0 -7 74 c-7 74 -1 116 16 116 5 0 9 -7 9 -15 0
-8 5 -15 10 -15 6 0 10 7 10 15 0 10 12 16 38 17 20 1 48 2 62 3 33 1 38 -14
39 -107 1 -45 5 -78 11 -78 6 0 10 38 11 93 0 60 3 85 9 72 5 -11 9 -53 9 -92
1 -42 5 -73 11 -73 6 0 10 32 10 75 l0 75 35 0 c29 0 35 4 35 21 0 16 5 20 20
16 11 -3 20 0 21 6 0 7 4 2 9 -11 6 -14 17 -22 27 -20 16 3 18 -7 21 -74 3
-69 5 -78 22 -78 17 0 20 9 23 78 l3 77 4 -80 4 -80 6 110 6 110 2 -107 2
-108 33 -2 c17 0 44 0 60 1 21 2 27 -2 27 -18 0 -12 -4 -21 -10 -21 -5 0 -7 6
-4 14 4 10 -5 13 -35 13 -22 0 -38 -4 -35 -8 3 -5 0 -9 -5 -9 -6 0 -11 6 -11
13 0 8 -4 7 -10 -3 -5 -8 -10 -40 -11 -70 l-2 -55 -7 45 -7 45 -3 -45 c-3 -42
-3 -43 -7 -10 -8 68 -43 62 -43 -7 l0 -33 -85 0 c-78 0 -85 2 -85 20 0 11 -4
20 -9 20 -6 0 -8 -9 -6 -20 2 -11 1 -20 -3 -21 -4 0 -20 -2 -37 -4 -16 -2
-117 -6 -222 -9 l-193 -7 0 46 c0 38 -3 45 -20 45 -17 0 -20 -7 -20 -51 l0
-51 218 6 c119 4 249 9 287 11 52 3 502 16 642 18 6 0 9 6 6 14 -3 7 -10 10
-17 6 -6 -3 -6 -1 2 8 6 7 12 18 12 23 0 6 -5 4 -10 -4 -7 -10 -10 6 -10 56 0
56 -3 71 -15 71 -10 0 -15 -10 -15 -29 0 -21 -5 -28 -19 -28 -20 0 -30 -19
-35 -68 -2 -18 -10 -28 -23 -30 -17 -2 -21 6 -31 60 -11 62 -9 264 2 275 3 4
17 1 30 -5 18 -8 23 -17 20 -38 -2 -26 9 -43 29 -44 4 0 7 6 7 14 0 8 6 17 13
19 9 4 8 6 -2 6 -9 1 -6 8 9 21 l23 20 -21 0 c-28 0 -29 17 -2 25 15 5 19 12
14 29 -3 14 2 31 15 48 12 14 21 29 21 32 0 9 -14 7 -25 -2z m-1049 -158 c-7
-39 -16 -42 -16 -6 0 18 5 32 10 32 6 0 8 -12 6 -26z m485 -9 c0 -5 -12 -11
-26 -13 -18 -2 -25 1 -25 13 0 12 7 15 25 13 14 -2 26 -7 26 -13z m539 -262
c-11 -17 -11 -17 -6 0 3 10 7 26 7 35 1 15 2 15 6 0 2 -10 -1 -25 -7 -35z"/>
<path d="M785 1330 c3 -6 13 -10 21 -10 8 0 17 -7 20 -15 4 -8 10 -13 15 -10
20 13 30 -41 27 -151 -3 -100 -5 -114 -20 -114 -16 0 -18 13 -19 128 0 86 -3
118 -9 99 -5 -16 -6 -36 -2 -45 5 -14 3 -15 -9 -5 -9 7 -28 9 -57 3 l-43 -7 3
56 3 56 35 -3 c39 -4 39 2 -2 12 -44 10 -53 -9 -50 -102 l4 -82 54 0 54 0 0
-50 c0 -45 -2 -50 -22 -51 -19 0 191 -48 215 -49 4 0 6 44 5 98 -2 67 -7 96
-15 95 -6 -1 -13 3 -16 10 -3 9 5 12 27 12 18 -1 38 4 44 12 13 13 12 14 -8
17 -6 0 -14 6 -18 11 -13 19 -61 45 -82 45 -11 0 -40 10 -63 22 -46 23 -102
34 -92 18z m115 -191 c0 -73 -4 -119 -10 -119 -6 0 -10 49 -10 126 0 81 4 123
10 119 6 -4 10 -57 10 -126z m27 -16 c-2 -27 -3 -5 -3 47 0 52 1 74 3 48 2
-27 2 -69 0 -95z"/>
<path d="M2490 1336 c0 -2 7 -6 15 -10 8 -3 15 -1 15 4 0 6 -7 10 -15 10 -8 0
-15 -2 -15 -4z"/>
<path d="M660 1320 c-13 -9 -13 -10 0 -10 13 0 13 -1 0 -10 -13 -8 -13 -10 1
-10 9 0 19 9 22 20 6 22 0 25 -23 10z"/>
<path d="M1650 1247 c0 -16 44 -89 48 -79 5 17 -9 91 -15 75 -3 -7 -9 -13 -14
-13 -6 0 -7 5 -4 10 3 6 1 10 -4 10 -6 0 -11 -1 -11 -3z"/>
<path d="M461 1173 c0 -30 3 -53 9 -53 11 0 11 31 0 75 -7 26 -8 22 -9 -22z"/>
<path d="M1398 1203 c-16 -4 -18 -17 -18 -104 0 -54 4 -99 9 -99 4 0 6 10 4
23 -2 12 0 40 6 62 l10 40 -1 -40 c-1 -64 1 -85 11 -85 11 0 14 197 3 203 -4
2 -15 2 -24 0z"/>
<path d="M420 1184 c0 -8 -4 -12 -10 -9 -5 3 -10 -1 -10 -9 0 -9 -4 -16 -9
-16 -5 0 -12 -8 -14 -17 -3 -12 -5 -9 -6 8 -1 23 -17 39 -37 39 -3 0 -4 -15
-2 -32 3 -32 5 -33 51 -36 l47 -3 0 45 c0 26 -2 46 -5 46 -3 0 -5 -7 -5 -16z"/>
<path d="M1320 1161 c0 -87 13 -161 28 -161 12 0 12 3 2 15 -11 14 -7 19 13
16 11 -2 9 47 -3 54 -5 3 -10 14 -9 23 0 14 2 13 9 -3 6 -14 9 -4 9 38 1 54 0
57 -24 57 -22 0 -25 -4 -25 -39z"/>
<path d="M1113 1182 l-73 -3 -1 -82 c-1 -45 -1 -88 0 -94 1 -7 -4 -13 -11 -14
-7 -1 -2 -4 11 -8 14 -4 26 -12 29 -19 3 -9 -9 -10 -45 -5 -53 8 -62 8 -178
-5 -44 -5 -70 -10 -57 -10 15 -2 22 -8 22 -22 0 -16 -7 -20 -30 -20 -24 0 -30
4 -30 21 0 20 -4 21 -107 17 l-108 -3 -1 -76 c0 -41 -4 -80 -8 -87 -5 -8 -2
-10 8 -6 13 5 16 22 16 80 0 72 1 74 25 74 24 0 25 -2 25 -74 0 -41 4 -77 9
-80 5 -3 8 22 7 57 -2 53 10 139 13 97 1 -12 3 -13 10 -1 5 7 14 10 20 7 18
-11 13 -26 -9 -26 -18 0 -20 -7 -20 -71 l0 -72 66 6 c37 3 79 1 94 -3 17 -5
32 -4 39 3 8 8 8 2 2 -21 -9 -30 -8 -31 34 -46 38 -12 45 -13 56 0 10 12 9 13
-5 8 -14 -5 -16 6 -16 109 0 111 10 153 25 104 3 -12 6 -50 5 -84 -1 -46 2
-63 12 -64 7 0 4 -4 -7 -9 -15 -7 -10 -9 25 -9 79 0 80 -1 80 -40 l0 -36 -52
-3 c-29 -2 -58 -8 -66 -14 -7 -6 -43 -11 -80 -10 -37 0 -72 -4 -79 -10 -8 -6
-13 -7 -13 -1 0 16 -73 33 -113 26 -30 -5 -37 -10 -37 -29 0 -19 -7 -24 -52
-33 -93 -18 -96 -19 -67 -20 15 0 51 4 80 10 30 6 120 10 202 10 122 0 147 2
147 14 0 12 17 15 86 15 63 0 109 7 177 27 64 18 116 27 172 27 59 1 86 6 105
19 13 9 30 17 37 17 9 0 13 19 15 63 l1 62 6 -65 c10 -108 26 -120 157 -120
61 0 63 1 66 28 l4 27 11 -25 12 -25 1 25 c0 20 2 22 10 10 8 -12 10 -11 10 6
0 22 -24 39 -41 28 -6 -3 -7 5 -3 20 7 30 -11 53 -47 58 -22 3 -24 8 -27 65
-2 49 -6 61 -17 56 -8 -3 -15 -9 -15 -15 0 -5 5 -6 10 -3 6 3 10 2 10 -3 0
-13 -25 -22 -50 -17 -11 2 -20 0 -20 -6 0 -5 6 -9 13 -9 8 0 7 -3 -3 -9 -8 -6
-17 -8 -21 -5 -4 2 -6 -7 -4 -21 1 -14 -1 -25 -6 -25 -13 0 -20 59 -17 130 3
63 4 65 31 68 41 5 32 22 -12 22 -34 0 -39 -3 -44 -28 -7 -33 -57 -64 -57 -36
0 14 -12 15 -87 10 -132 -9 -222 -10 -230 -3 -3 4 16 7 43 7 l50 0 1 43 c1 23
5 68 9 100 6 57 6 57 -20 57 -26 0 -26 0 -28 -87 l-2 -88 -5 85 -6 85 -72 -3z
m-26 -69 c-3 -10 -5 -4 -5 12 0 17 2 24 5 18 2 -7 2 -21 0 -30z m60 -25 c-3
-7 -5 -2 -5 12 0 14 2 19 5 13 2 -7 2 -19 0 -25z m33 2 c0 -5 -5 -10 -11 -10
-5 0 -7 5 -4 10 3 6 8 10 11 10 2 0 4 -4 4 -10z m-33 -52 c-3 -8 -6 -5 -6 6
-1 11 2 17 5 13 3 -3 4 -12 1 -19z m192 -135 c0 -27 -4 -57 -9 -68 -7 -16 -9
-12 -10 20 l-2 40 -12 -50 -12 -50 -7 40 c-4 22 -7 57 -7 78 0 35 2 37 30 37
29 0 30 -1 29 -47z m71 -24 c0 -62 -2 -70 -15 -59 -8 7 -12 16 -9 22 3 5 2 17
-2 26 -6 14 -9 11 -14 -13 -5 -22 -7 -14 -8 33 -1 59 0 62 24 62 23 0 24 -2
24 -71z m72 4 c2 -38 2 -70 1 -72 -7 -11 -14 9 -15 45 -1 21 -6 42 -12 46 -8
5 -7 8 2 8 6 0 12 6 12 14 0 8 -6 17 -12 19 -8 4 -7 6 4 6 13 1 17 -11 20 -66z
m-602 31 c0 -8 -9 -14 -21 -14 -19 0 -19 -1 -5 -22 22 -31 21 -60 -1 -56 -13
2 -19 16 -24 53 -3 28 -1 53 4 56 15 10 47 -2 47 -17z m-142 0 c-2 -8 -6 -15
-10 -15 -5 1 -17 1 -28 1 -11 0 -20 7 -20 15 0 10 10 15 31 15 22 0 30 -4 27
-16z m439 -31 c-3 -10 -5 -4 -5 12 0 17 2 24 5 18 2 -7 2 -21 0 -30z m-27 -8
c0 -24 -5 -35 -15 -35 -8 0 -15 5 -15 10 0 6 5 10 10 10 6 0 10 7 10 15 0 8
-4 15 -10 15 -5 0 -10 5 -10 10 0 6 7 10 15 10 10 0 15 -11 15 -35z m-203 -17
c-3 -8 -6 -5 -6 6 -1 11 2 17 5 13 3 -3 4 -12 1 -19z m-214 6 c3 -3 3 -12 1
-18 -7 -17 -54 -8 -54 10 0 14 41 20 53 8z m37 -9 c0 -8 -4 -15 -10 -15 -5 0
-10 7 -10 15 0 8 5 15 10 15 6 0 10 -7 10 -15z m340 -50 c0 -8 -7 -15 -15 -15
-8 0 -15 7 -15 15 0 8 7 15 15 15 8 0 15 -7 15 -15z m380 -9 c0 -3 -4 -8 -10
-11 -5 -3 -10 -1 -10 4 0 6 5 11 10 11 6 0 10 -2 10 -4z m236 -33 c-8 -8 -36
5 -36 17 0 7 6 7 21 0 11 -7 18 -14 15 -17z m-499 -9 c-3 -3 -12 -4 -19 -1 -8
3 -5 6 6 6 11 1 17 -2 13 -5z m86 -11 c-7 -2 -19 -2 -25 0 -7 3 -2 5 12 5 14
0 19 -2 13 -5z m364 -9 c-3 -3 -12 -4 -19 -1 -8 3 -5 6 6 6 11 1 17 -2 13 -5z
m-57 -33 c0 -6 19 -12 43 -14 23 -2 5 -4 -40 -5 -68 -2 -83 1 -83 13 0 11 11
15 40 15 22 0 40 -4 40 -9z"/>
<path d="M1261 1113 c1 -43 4 -68 6 -55 3 14 12 22 24 22 16 0 19 7 19 55 0
52 -1 55 -25 55 -25 0 -25 -1 -24 -77z"/>
<path d="M581 1144 c0 -11 3 -14 6 -6 3 7 2 16 -1 19 -3 4 -6 -2 -5 -13z"/>
<path d="M323 1044 c0 -15 -7 -31 -15 -36 -8 -6 4 -8 36 -4 27 3 57 6 67 6 28
0 23 17 -7 24 -15 4 -33 14 -41 21 -22 23 -38 18 -40 -11z"/>
<path d="M2200 1059 c-113 -5 -292 -11 -397 -15 -204 -7 -267 -24 -88 -24
l105 0 0 -30 c0 -24 -4 -30 -17 -28 -27 5 -30 -38 -4 -47 19 -6 21 -14 21 -81
0 -43 4 -74 10 -74 6 0 10 30 10 70 0 39 4 70 9 70 5 0 31 -11 58 -26 49 -25
23 -24 -32 3 -25 12 -27 12 -13 0 10 -8 15 -17 11 -20 -3 -4 7 -8 23 -8 21 -1
24 -3 9 -6 -11 -3 -28 -11 -38 -18 -17 -12 -17 -13 3 -18 15 -4 20 -13 20 -41
l0 -36 45 0 c44 0 45 -1 28 -19 -23 -24 -119 -35 -127 -14 -6 15 -26 18 -26 3
0 -13 44 -41 69 -43 15 -1 21 -8 21 -27 0 -18 -3 -21 -9 -11 -6 9 -25 12 -65
10 -34 -3 -56 0 -56 6 0 6 -9 11 -20 11 -13 0 -19 -5 -15 -14 3 -7 5 -21 6
-30 1 -10 4 -6 8 8 7 23 8 23 15 -13 6 -34 9 -37 34 -31 15 4 29 11 30 16 6
14 22 9 22 -7 0 -29 93 -49 103 -22 3 6 6 1 6 -12 1 -20 3 -22 16 -11 13 11
14 10 9 -4 -3 -9 -1 -23 6 -31 11 -13 10 -14 -6 -9 -28 10 4 -13 256 -191 124
-87 268 -189 321 -227 77 -54 105 -68 133 -68 l36 0 0 84 0 83 -122 63 c-68
35 -233 122 -368 193 -135 71 -251 130 -257 130 -7 0 -13 4 -13 9 0 4 23 8 50
8 32 0 50 4 50 12 0 9 3 9 12 0 22 -22 39 -14 32 14 -9 35 17 28 27 -7 6 -21
7 -21 8 9 1 30 -1 32 -34 32 -34 0 -48 -14 -22 -23 6 -2 9 -7 6 -11 -4 -4 -13
0 -21 7 -8 8 -23 17 -34 20 -14 3 -12 5 9 6 22 1 27 6 27 27 0 17 4 23 12 18
8 -5 9 -2 5 9 -4 11 -1 17 8 17 8 0 15 5 15 11 0 5 5 7 10 4 6 -3 10 1 10 9 0
9 6 16 14 16 8 0 17 10 19 23 3 16 5 14 6 -10 1 -24 7 -34 30 -44 16 -7 28
-16 26 -19 -2 -4 9 -7 25 -7 17 0 30 4 30 9 0 15 30 8 48 -10 10 -10 25 -16
32 -14 10 4 9 0 -3 -12 -21 -21 -21 -25 -3 -22 26 4 47 28 36 41 -8 10 -5 13
15 11 31 -1 31 -3 -1 -28 -19 -16 -23 -23 -13 -32 8 -8 13 -8 16 2 16 44 100
61 110 22 6 -21 32 -33 54 -26 8 3 43 -1 79 -9 l65 -14 -110 3 c-60 2 -117 7
-126 11 -13 5 -15 1 -12 -19 l5 -26 124 0 125 0 -2 135 c0 95 -4 135 -12 135
-8 0 -7 3 1 9 8 4 12 18 10 30 -3 20 -5 19 -20 -11 -9 -18 -19 -41 -22 -50 -3
-12 -15 -18 -33 -17 l-28 2 28 4 c22 4 27 9 27 34 0 27 -11 35 -42 30 -5 0 -8
5 -8 13 0 8 -9 14 -19 13 -15 -1 -17 -5 -10 -18 12 -24 11 -39 -2 -17 -5 9
-16 15 -24 12 -8 -4 -12 -10 -9 -16 3 -5 -7 -3 -22 5 -16 8 -34 12 -40 10 -7
-2 -12 2 -11 9 0 7 -1 52 -1 101 l-2 87 -42 -2 c-24 0 -135 -5 -248 -9z m-101
-50 c13 -11 22 -22 19 -24 -2 -3 -57 -8 -122 -11 -78 -5 -115 -11 -113 -18 2
-6 17 -10 33 -8 16 2 26 0 22 -4 -5 -4 -3 -13 2 -19 8 -9 6 -14 -4 -18 -9 -4
-18 -1 -22 5 -5 7 -2 8 6 3 9 -5 11 -4 6 3 -5 8 -13 9 -26 2 -14 -7 -19 -5
-23 10 -3 11 -11 20 -19 20 -10 0 -9 -3 2 -11 13 -9 13 -10 0 -7 -9 3 -16 20
-18 46 l-3 41 68 4 c158 8 167 7 192 -14z m241 10 c19 -5 50 -10 68 -11 l33 0
-6 -91 c-3 -51 -7 -102 -8 -114 -2 -28 -23 -30 -29 -5 -3 10 -11 19 -19 20
-31 2 -47 9 -63 25 -13 12 -14 17 -4 17 10 0 9 3 -2 10 -13 9 -13 11 0 20 8 5
30 10 48 10 20 0 31 4 27 10 -3 6 -25 10 -48 10 -27 0 -37 3 -29 9 11 7 11 9
-2 14 -14 6 -16 -6 -17 -86 -1 -79 -2 -86 -10 -53 -5 21 -7 60 -5 85 2 25 5
51 5 56 1 6 15 16 32 24 35 15 34 26 -2 13 -24 -9 -157 -7 -166 2 -3 2 -2 14
2 25 6 19 14 21 83 21 43 0 93 -5 112 -11z m-274 -159 c8 0 14 -3 14 -7 0 -5
-11 -8 -24 -8 -13 0 -22 3 -20 7 2 3 1 8 -3 11 -5 2 -2 2 5 0 8 -1 20 -3 28
-3z m549 -58 c-3 -3 -11 0 -18 7 -9 10 -8 11 6 5 10 -3 15 -9 12 -12z m-514 1
c0 -5 2 -23 5 -41 2 -21 0 -31 -6 -27 -6 3 -10 1 -10 -4 0 -16 -60 -14 -61 2
0 6 -2 27 -3 45 -4 31 -3 32 35 32 22 0 39 -3 40 -7z m186 -85 c-3 -8 -6 -5
-6 6 -1 11 2 17 5 13 3 -3 4 -12 1 -19z m38 12 c3 -5 1 -10 -4 -10 -6 0 -11 5
-11 10 0 6 2 10 4 10 3 0 8 -4 11 -10z m355 -5 c0 -8 -9 -15 -19 -15 -11 0
-22 -6 -24 -12 -4 -10 -6 -10 -6 0 -1 8 8 16 19 19 11 3 20 9 20 14 0 5 2 9 5
9 3 0 5 -7 5 -15z m-245 -5 c3 -5 1 -10 -4 -10 -6 0 -11 5 -11 10 0 6 2 10 4
10 3 0 8 -4 11 -10z m-475 -80 c0 -5 8 -10 18 -10 41 -1 36 -15 -6 -16 -43 -1
-61 8 -62 29 0 4 11 7 25 7 14 0 25 -4 25 -10z m-3 -62 c-3 -8 -6 -5 -6 6 -1
11 2 17 5 13 3 -3 4 -12 1 -19z m-150 6 c-3 -3 -12 -4 -19 -1 -8 3 -5 6 6 6
11 1 17 -2 13 -5z"/>
<path d="M1868 1003 c6 -2 18 -2 25 0 6 3 1 5 -13 5 -14 0 -19 -2 -12 -5z"/>
<path d="M1928 1003 c7 -3 16 -2 19 1 4 3 -2 6 -13 5 -11 0 -14 -3 -6 -6z"/>
<path d="M2178 1013 c6 -2 18 -2 25 0 6 3 1 5 -13 5 -14 0 -19 -2 -12 -5z"/>
<path d="M2278 1013 c7 -3 16 -2 19 1 4 3 -2 6 -13 5 -11 0 -14 -3 -6 -6z"/>
<path d="M2345 960 c-3 -6 1 -7 9 -4 18 7 21 14 7 14 -6 0 -13 -4 -16 -10z"/>
<path d="M1302 1030 c0 -19 2 -27 5 -17 2 9 2 25 0 35 -3 9 -5 1 -5 -18z"/>
<path d="M1442 1020 c0 -14 2 -19 5 -12 2 6 2 18 0 25 -3 6 -5 1 -5 -13z"/>
<path d="M663 1023 c9 -2 23 -2 30 0 6 3 -1 5 -18 5 -16 0 -22 -2 -12 -5z"/>
<path d="M1261 1014 c0 -11 3 -14 6 -6 3 7 2 16 -1 19 -3 4 -6 -2 -5 -13z"/>
<path d="M458 1013 c12 -2 30 -2 40 0 9 3 -1 5 -23 4 -22 0 -30 -2 -17 -4z"/>
<path d="M2650 950 c0 -5 5 -12 10 -15 6 -3 10 -11 10 -17 0 -7 -5 -6 -14 1
-12 10 -13 9 -9 -8 9 -35 30 -32 31 4 1 21 -4 35 -13 39 -8 3 -15 1 -15 -4z"/>
<path d="M2570 940 c0 -6 -5 -8 -12 -4 -9 5 -9 2 1 -9 15 -20 46 -22 57 -5 4
6 3 8 -4 4 -6 -3 -18 1 -26 10 -9 9 -16 11 -16 4z"/>
<path d="M1780 820 c0 -5 5 -10 11 -10 5 0 7 5 4 10 -3 6 -8 10 -11 10 -2 0
-4 -4 -4 -10z"/>
<path d="M360 778 c1 -30 2 -31 14 -15 7 9 18 17 25 17 6 0 11 8 11 18 0 15
-2 15 -11 2 -8 -11 -12 -12 -16 -2 -9 24 -23 12 -23 -20z"/>
<path d="M55 750 c-3 -5 -1 -10 4 -10 6 0 11 5 11 10 0 6 -2 10 -4 10 -3 0 -8
-4 -11 -10z"/>
<path d="M230 739 c-25 -12 -40 -14 -54 -7 -11 6 -21 6 -25 1 -3 -5 -22 -9
-41 -10 -86 -1 -90 -2 -90 -24 0 -19 4 -21 31 -15 17 3 68 6 113 6 92 0 109 7
104 41 -3 24 -3 24 -38 8z"/>
<path d="M507 729 c4 -13 8 -18 11 -10 2 7 -1 18 -6 23 -8 8 -9 4 -5 -13z"/>
<path d="M1805 740 c3 -5 8 -10 11 -10 2 0 4 5 4 10 0 6 -5 10 -11 10 -5 0 -7
-4 -4 -10z"/>
<path d="M970 715 c0 -32 22 -32 37 0 10 23 9 25 -13 25 -19 0 -24 -5 -24 -25z"/>
<path d="M1476 690 c-17 -6 -18 -7 -3 -13 9 -3 19 -2 23 4 9 15 2 18 -20 9z"/>
<path d="M797 674 c2 -7 11 -10 19 -7 19 7 18 10 -5 16 -13 3 -18 1 -14 -9z"/>
<path d="M88 673 c7 -3 16 -2 19 1 4 3 -2 6 -13 5 -11 0 -14 -3 -6 -6z"/>
<path d="M355 660 l-20 -9 20 0 c11 0 27 4 35 9 13 9 13 10 0 9 -8 0 -24 -4
-35 -9z"/>
<path d="M1133 629 c-65 -20 -174 -54 -243 -74 -69 -20 -156 -48 -195 -60
-169 -55 -642 -204 -667 -211 l-28 -6 0 -139 0 -139 653 0 653 0 43 193 c55
248 69 297 86 297 9 0 15 21 20 68 4 37 9 75 11 85 8 26 -32 22 -50 -5 -8 -13
-16 -49 -18 -81 -4 -72 -18 -86 -19 -20 -2 65 1 86 13 101 15 18 11 19 -69 24
-61 3 -89 -2 -190 -33z m-343 -311 c0 -6 -6 -5 -15 2 -8 7 -15 14 -15 16 0 2
7 1 15 -2 8 -4 15 -11 15 -16z m80 -2 c0 -3 -4 -8 -10 -11 -5 -3 -10 -1 -10 4
0 6 5 11 10 11 6 0 10 -2 10 -4z m-80 -100 c0 -3 -4 -8 -10 -11 -5 -3 -10 -1
-10 4 0 6 5 11 10 11 6 0 10 -2 10 -4z m-203 -31 c0 -8 -4 -12 -9 -9 -5 3 -6
10 -3 15 9 13 12 11 12 -6z m50 -29 c1 -12 -1 -15 -4 -8 -3 6 -11 12 -19 12
-9 0 -13 4 -10 8 10 17 32 8 33 -12z m-47 -60 c0 -3 -4 -8 -10 -11 -5 -3 -10
-1 -10 4 0 6 5 11 10 11 6 0 10 -2 10 -4z m-103 -31 c0 -8 -4 -12 -9 -9 -5 3
-6 10 -3 15 9 13 12 11 12 -6z"/>
<path d="M137 654 c-3 -4 -28 -6 -54 -5 -66 1 -83 -6 -83 -35 0 -20 5 -24 33
-25 17 0 86 -3 152 -5 150 -6 245 2 245 22 0 7 11 16 25 20 14 3 22 10 19 16
-3 5 -13 6 -23 3 -20 -9 -37 -11 -144 -20 -58 -5 -87 -4 -91 4 -4 6 0 11 11
12 13 1 11 3 -7 9 -31 10 -75 12 -83 4z"/>
<path d="M1590 638 c0 -4 26 -8 57 -8 31 0 54 3 51 6 -9 9 -108 11 -108 2z"/>
<path d="M2433 618 c-13 -6 -23 -14 -23 -19 0 -4 11 -2 25 4 14 7 25 15 25 20
0 8 1 9 -27 -5z"/>
</g>
</svg>
