<?xml version="1.0" standalone="no"?>
<!DOCTYPE svg PUBLIC "-//W3C//DTD SVG 20010904//EN"
 "http://www.w3.org/TR/2001/REC-SVG-20010904/DTD/svg10.dtd">
<svg version="1.0" xmlns="http://www.w3.org/2000/svg"
 width="275.000000pt" height="184.000000pt" viewBox="0 0 275.000000 184.000000"
 preserveAspectRatio="xMidYMid meet">

<g transform="translate(0.000000,184.000000) scale(0.100000,-0.100000)"
fill="#000000" stroke="none">
<path d="M1890 1830 c0 -5 -6 -10 -14 -10 -19 0 -27 -25 -13 -39 8 -8 5 -11
-11 -11 -12 0 -22 -4 -22 -10 0 -5 -7 -10 -15 -10 -18 0 -20 -26 -3 -36 6 -4
18 2 26 12 11 14 13 15 9 3 -4 -12 1 -18 19 -22 18 -3 24 -1 20 9 -4 10 4 14
27 14 l32 -1 -30 -16 c-16 -10 -38 -16 -47 -14 -12 1 -16 -4 -13 -18 3 -14 0
-18 -12 -14 -12 5 -12 7 -2 14 14 8 13 9 -35 23 -8 3 -20 -2 -26 -10 -7 -8
-21 -14 -31 -14 -11 0 -19 -4 -19 -10 0 -5 -9 -10 -20 -10 -13 0 -20 -7 -20
-20 0 -11 -4 -20 -10 -20 -5 0 -10 -8 -10 -19 0 -10 -6 -18 -12 -18 -31 1 -78
-17 -78 -30 0 -11 -9 -13 -37 -9 -55 9 -153 10 -193 2 -26 -5 -30 -4 -15 3 11
5 16 10 10 11 -5 0 4 7 20 14 25 12 27 15 13 21 -10 4 -15 11 -12 16 3 5 -2 6
-10 3 -9 -3 -16 -10 -16 -15 0 -17 -23 -9 -44 16 -13 15 -34 25 -54 27 -19 1
-32 8 -32 16 0 8 -9 16 -20 19 -11 3 -20 9 -20 14 0 15 16 10 35 -11 20 -22
50 -26 61 -9 8 14 -15 30 -41 27 -11 -1 -25 1 -31 4 -12 8 -40 5 -50 -5 -10
-9 -24 -9 -23 1 3 18 -2 32 -12 32 -5 0 -8 -4 -4 -9 6 -11 -26 -31 -47 -30 -7
0 -4 4 7 9 19 8 19 9 -2 9 -13 1 -23 -3 -23 -9 0 -5 -7 -7 -15 -4 -8 4 -15 1
-15 -6 0 -8 -8 -10 -21 -7 -25 7 -49 -1 -49 -15 0 -6 12 -7 28 -4 19 5 23 4
13 -3 -12 -8 -12 -12 -2 -24 8 -10 9 -17 1 -22 -5 -3 -10 -2 -10 3 0 6 -10 5
-25 -1 -14 -7 -25 -16 -25 -20 0 -5 5 -5 12 -1 8 5 9 2 5 -9 -3 -10 -2 -17 4
-17 6 0 8 -4 5 -9 -9 -13 22 -22 52 -15 15 4 24 3 20 -1 -4 -4 0 -14 10 -22
15 -13 14 -14 -11 -8 -17 3 -35 1 -43 -6 -11 -9 -14 -9 -14 1 0 7 -7 10 -16 6
-8 -3 -13 -2 -10 3 3 5 -1 12 -10 15 -12 4 -15 2 -10 -9 3 -8 1 -15 -5 -15 -6
0 -7 -5 -4 -11 4 -6 -2 -13 -14 -16 -11 -3 -18 -9 -15 -14 7 -12 91 -12 98 0
3 5 15 7 26 4 11 -3 28 1 37 8 9 8 14 9 11 4 -4 -6 -3 -16 1 -23 5 -8 12 0 21
22 7 20 22 37 34 40 21 5 21 5 2 -9 -18 -14 -17 -15 22 -15 23 0 42 -4 42 -10
0 -5 -13 -7 -30 -3 -30 5 -30 5 -20 -22 9 -24 7 -32 -15 -55 -14 -14 -25 -29
-25 -32 0 -3 33 27 73 68 l72 73 150 -14 c83 -7 246 -21 363 -31 116 -9 212
-20 212 -24 0 -4 -12 -12 -27 -19 -55 -25 -71 -40 -66 -60 5 -20 5 -20 44 -1
29 15 50 19 88 14 41 -4 51 -2 51 10 0 8 -5 18 -12 22 -6 4 -8 3 -4 -4 4 -7
-1 -10 -14 -9 -29 2 -32 23 -4 36 14 6 23 15 20 20 -4 5 3 7 13 4 13 -3 21
-16 24 -37 4 -29 4 -29 5 7 2 29 6 37 20 37 32 0 34 13 5 27 -16 7 -21 12 -13
11 25 -3 70 12 70 23 0 6 -6 7 -16 1 -11 -6 -25 -5 -42 4 -13 7 -32 10 -41 7
-13 -4 -13 -3 1 7 13 8 23 8 38 0 24 -13 56 -5 64 15 6 16 -24 9 -36 -9 -5 -8
-11 -7 -20 2 -6 6 -25 12 -41 12 -15 0 -26 4 -22 9 3 6 17 6 33 2 28 -8 69 9
55 22 -3 4 0 7 8 7 8 1 -1 7 -19 15 -21 9 -31 19 -26 26 4 7 2 10 -6 7 -20 -6
-23 -26 -6 -30 12 -2 13 -7 5 -18 -8 -11 -12 -12 -15 -3 -3 7 -12 9 -21 6 -12
-5 -14 -3 -8 7 6 10 0 12 -33 6 -27 -4 -42 -2 -42 4 0 6 4 9 9 5 5 -3 12 -1
16 5 3 5 2 10 -3 10 -5 0 -9 11 -9 25 0 13 3 22 8 19 5 -3 4 7 -1 21 -14 38
-13 45 12 45 20 0 18 3 -13 31 -19 18 -25 27 -13 21 12 -6 24 -8 28 -5 3 3 6
1 6 -7 0 -9 3 -10 13 -1 8 6 18 7 22 3 5 -4 5 1 2 10 -3 9 -1 19 6 21 7 2 -25
5 -70 6 -52 1 -83 -2 -83 -9z m20 -158 c0 -5 -7 -9 -15 -9 -8 0 -15 4 -15 9 0
4 7 8 15 8 8 0 15 -4 15 -8z m-869 -49 c-5 -33 -9 -41 -20 -34 -20 13 -22 41
-3 41 8 0 12 3 9 7 -4 3 -2 12 5 20 15 19 16 14 9 -34z m153 32 c4 -10 -3 -11
-32 -3 -49 13 -50 16 -8 16 19 0 37 -6 40 -13z m726 -9 c0 -2 -7 -6 -15 -10
-8 -3 -15 -1 -15 4 0 6 7 10 15 10 8 0 15 -2 15 -4z m-702 -33 c-10 -3 -18 -8
-18 -13 0 -5 -7 -7 -15 -4 -26 10 -17 21 18 21 17 0 24 -2 15 -4z m782 -8
c-14 -8 -21 -14 -16 -15 5 0 4 -6 -2 -13 -16 -19 -84 -10 -80 11 2 11 16 17
47 19 24 2 47 5 49 8 3 3 10 5 16 5 6 -1 0 -7 -14 -15z m-916 -20 c3 -8 2 -15
-3 -15 -5 0 -14 7 -21 15 -10 12 -10 15 3 15 8 0 17 -7 21 -15z m621 -25 c-10
-11 -22 -17 -27 -14 -12 8 11 34 30 34 13 0 12 -3 -3 -20z m-495 -10 c0 -5 -4
-10 -9 -10 -6 0 -13 5 -16 10 -3 6 1 10 9 10 9 0 16 -4 16 -10z m-3 -26 c-3
-3 -12 -4 -19 -1 -8 3 -5 6 6 6 11 1 17 -2 13 -5z m749 -3 c-9 -14 13 -18 61
-11 30 5 43 3 43 -5 0 -20 -12 -25 -28 -12 -11 8 -13 8 -9 0 5 -7 0 -9 -13 -6
-11 3 -26 1 -33 -4 -6 -6 -22 -7 -33 -4 -18 5 -20 10 -13 29 5 12 13 22 19 22
6 0 9 -4 6 -9z m-3 -108 c-7 -2 -19 -2 -25 0 -7 3 -2 5 12 5 14 0 19 -2 13 -5z"/>
<path d="M2361 1806 c-12 -18 -21 -38 -21 -44 0 -6 -6 -12 -12 -15 -7 -2 -10
-7 -7 -11 10 -10 40 24 33 36 -4 7 -2 8 4 4 6 -4 9 -13 5 -21 -6 -18 -3 -18
30 -6 14 6 28 7 31 3 12 -11 33 -10 33 2 0 7 -12 11 -28 10 -16 -1 -34 5 -41
13 -11 14 -10 15 11 8 16 -5 21 -4 17 4 -7 11 4 15 37 12 9 -1 17 3 17 8 0 6
5 11 10 11 6 0 10 -5 10 -11 0 -6 7 -18 16 -27 15 -15 16 -14 9 8 -4 14 -4 22
0 17 5 -4 15 -1 24 7 9 8 25 16 36 18 11 3 -28 5 -87 6 l-106 2 -21 -34z"/>
<path d="M2600 1825 c0 -13 4 -14 23 -4 33 17 33 19 4 19 -18 0 -27 -5 -27
-15z"/>
<path d="M2660 1832 c0 -11 -45 -32 -68 -32 -9 0 -23 -9 -30 -20 -10 -17 -10
-20 3 -20 8 0 15 4 15 8 0 15 49 12 58 -4 7 -13 13 -14 31 -5 11 7 21 19 21
29 0 14 2 15 10 2 6 -9 6 -18 0 -24 -13 -13 -12 -24 3 -29 6 -2 4 -3 -5 -2 -9
2 -19 -2 -21 -8 -5 -17 -86 -14 -97 3 -8 12 -10 12 -10 1 0 -10 -3 -11 -14 -2
-11 10 -19 7 -35 -10 -11 -13 -24 -20 -27 -16 -4 3 -16 0 -28 -8 -11 -8 -33
-15 -48 -15 -17 0 -33 -9 -43 -22 -15 -22 -14 -23 7 -30 17 -4 18 -6 5 -7 -9
-1 -25 -5 -35 -10 -9 -5 -29 -14 -44 -21 -22 -10 -25 -16 -17 -27 9 -10 8 -13
-5 -13 -11 0 -14 -5 -10 -12 4 -7 3 -8 -4 -4 -7 4 -20 2 -29 -3 -16 -10 -17
-10 -1 -11 28 0 31 -20 8 -45 l-22 -23 21 -7 22 -7 -23 -24 c-25 -26 -44 -30
-51 -11 -3 7 -6 4 -6 -6 -1 -10 -5 -15 -11 -12 -5 3 -10 2 -10 -4 0 -5 12 -13
27 -18 25 -9 25 -10 -27 -31 -81 -34 -55 -34 39 -1 46 16 89 28 94 26 6 -2
-13 -18 -41 -36 -29 -18 -49 -37 -46 -42 3 -5 12 -2 20 6 9 8 20 12 26 9 11
-7 -48 -63 -66 -64 -5 0 -3 -7 5 -16 11 -14 15 -13 31 8 14 18 17 19 11 4 -4
-13 -3 -17 5 -12 7 4 9 -1 7 -15 -3 -13 1 -29 7 -36 9 -11 8 -13 -2 -11 -8 2
-16 -5 -18 -14 -4 -21 23 -25 32 -5 4 9 8 9 11 1 3 -7 15 -10 25 -7 11 3 17 9
14 14 -9 15 6 50 18 43 6 -4 8 -2 4 4 -3 5 -3 12 1 15 5 2 3 3 -3 1 -6 -1 -17
2 -25 7 -10 6 -10 9 -1 9 6 0 12 7 12 15 0 8 -7 15 -15 15 -8 0 -15 5 -15 10
0 6 5 10 10 10 6 0 10 8 10 17 0 15 2 14 15 -3 8 -10 15 -14 14 -9 -4 33 2 38
24 17 28 -26 47 -29 24 -4 -21 22 -7 45 27 47 16 0 28 -6 31 -16 9 -27 85 -11
85 18 0 13 3 13 16 2 10 -8 13 -21 9 -36 -3 -13 -1 -23 5 -23 5 0 10 -9 10
-20 0 -11 -4 -20 -9 -20 -12 0 -24 67 -15 83 4 6 -5 1 -19 -12 -15 -13 -24
-29 -20 -34 4 -6 0 -8 -9 -5 -8 4 -21 2 -29 -3 -11 -7 -11 -9 3 -9 9 0 20 -5
23 -10 9 -14 -33 -70 -51 -70 -8 0 -13 -4 -10 -9 3 -5 -3 -11 -14 -14 -11 -3
-20 -12 -20 -21 0 -13 4 -15 19 -6 23 12 32 13 29 3 -2 -5 2 -9 7 -10 10 -3
12 3 14 44 0 12 10 24 20 28 14 4 22 19 27 50 3 25 10 42 15 40 11 -7 3 -63
-11 -80 -7 -8 -9 -19 -6 -24 4 -5 1 -13 -5 -17 -8 -4 -9 -3 -5 4 4 7 2 12 -4
12 -7 0 -10 -12 -8 -29 1 -16 -4 -37 -13 -48 -22 -25 -30 -51 -18 -59 6 -3 8
-12 6 -18 -3 -7 1 -13 9 -13 15 0 18 9 7 21 -11 11 -14 46 -4 46 6 0 8 -9 6
-20 -6 -30 22 -24 29 6 6 23 11 26 36 20 24 -4 30 -2 30 12 1 14 5 12 21 -8
l21 -25 -28 -5 c-29 -5 -29 -5 -29 -83 0 -76 -1 -78 -30 -95 -16 -9 -38 -25
-47 -36 -16 -17 -18 -17 -24 -1 -5 12 -9 14 -15 4 -5 -8 -11 -1 -17 22 -6 19
-11 26 -11 16 -2 -29 -21 -9 -20 21 0 15 3 21 6 15 8 -22 25 -14 18 8 -6 16
-4 20 6 14 8 -5 11 -4 6 1 -5 5 -14 9 -20 9 -7 0 -15 14 -19 30 l-7 30 3 -33
c1 -18 -3 -37 -11 -43 -10 -9 -13 -7 -14 7 0 13 -2 15 -6 5 -4 -10 -9 -8 -20
10 l-14 24 6 -28 c4 -19 2 -26 -5 -22 -5 3 -10 16 -11 28 0 21 -1 21 -8 2 l-8
-20 -6 20 c-3 11 -5 -4 -4 -33 0 -31 -4 -57 -12 -65 -10 -10 -12 -2 -9 40 1
28 0 49 -4 46 -5 -2 -9 -12 -9 -21 -1 -9 -5 1 -9 23 -6 36 -7 37 -9 10 -1 -27
-31 -83 -31 -59 0 6 4 14 9 19 6 6 4 20 -5 35 l-14 25 6 -27 c4 -18 2 -28 -5
-28 -7 0 -9 -9 -5 -25 4 -15 2 -25 -5 -25 -6 0 -11 3 -12 8 0 4 -2 21 -4 38
-4 24 3 42 26 74 17 23 28 47 26 54 -6 15 -209 29 -268 20 -33 -6 -37 -10 -43
-43 -3 -20 -6 -53 -6 -73 0 -42 -5 -45 -38 -22 -17 11 -20 19 -13 28 7 9 7 17
-2 26 -9 10 -9 11 0 6 9 -5 12 0 11 18 -1 13 -6 22 -10 20 -4 -3 -7 13 -6 36
1 41 -19 79 -29 53 -3 -7 -9 -13 -15 -13 -6 0 -8 7 -4 15 7 19 -3 47 -15 39
-5 -3 -6 2 -3 10 3 9 10 13 15 10 5 -3 9 10 8 28 0 18 -3 26 -6 18 -10 -25
-40 -60 -47 -53 -3 3 -6 15 -6 25 0 10 -4 18 -10 18 -5 0 -7 -6 -4 -14 3 -7
-3 -22 -13 -31 -10 -10 -17 -20 -15 -22 2 -2 1 -9 -1 -16 -3 -7 -6 -5 -6 6 -1
9 -5 17 -11 17 -6 0 -9 55 -7 140 1 99 -1 141 -10 144 -6 3 -66 8 -132 12
l-121 7 1 -94 c1 -52 4 -80 6 -64 2 17 6 49 9 73 l5 42 43 0 c42 0 44 -1 50
-37 3 -21 6 -55 6 -75 l0 -38 -60 0 c-33 0 -60 -4 -60 -9 0 -13 54 -21 146
-21 l84 0 0 -69 0 -68 -72 4 c-113 6 -138 12 -131 28 3 8 0 15 -6 15 -16 0
-35 41 -37 83 -3 64 -3 67 -19 61 -8 -4 -15 -10 -15 -16 0 -5 5 -6 10 -3 6 3
10 0 10 -8 0 -7 -7 -14 -16 -14 -13 0 -15 7 -11 34 3 18 2 33 -4 33 -5 0 -9
-6 -9 -13 0 -27 -25 -67 -39 -62 -8 3 -11 0 -8 -9 9 -22 -3 -26 -29 -9 -24 15
-24 15 -18 -15 3 -16 1 -32 -4 -36 -13 -8 -3 -88 12 -98 8 -6 8 -8 0 -8 -7 0
-15 -7 -18 -16 -4 -10 -2 -13 6 -8 7 5 9 0 6 -14 -4 -12 -3 -20 2 -17 4 3 10
-4 13 -16 4 -16 3 -18 -8 -9 -9 8 -14 6 -19 -5 -3 -9 -2 -14 3 -11 5 3 11 -3
14 -14 6 -22 -8 -28 -16 -7 -6 13 -11 -34 -8 -73 1 -18 -1 -21 -8 -11 -7 11
-10 11 -15 0 -3 -8 -4 -4 -2 7 2 12 0 28 -5 35 -6 9 -9 2 -9 -22 0 -29 -5 -38
-25 -47 -14 -7 -28 -12 -30 -12 -8 0 8 225 16 234 5 6 9 18 9 27 0 24 -54 31
-205 27 l-120 -3 -3 -77 -3 -78 -37 0 -37 0 -12 74 c-7 40 -10 82 -7 92 2 10
0 33 -5 49 -5 17 -10 22 -10 12 -1 -9 -7 -27 -13 -38 -10 -17 -10 -23 -1 -26
9 -3 9 -12 2 -29 -5 -14 -9 -51 -9 -82 0 -76 -8 -102 -31 -102 -11 0 -19 6
-19 14 0 9 -7 12 -20 9 -21 -6 -28 12 -7 20 6 2 -9 4 -36 3 -26 0 -47 -4 -47
-8 0 -4 -3 -8 -7 -8 -5 0 -7 101 -5 224 3 218 2 224 -18 229 -18 5 -20 0 -20
-39 0 -32 4 -44 15 -44 21 0 19 -30 -2 -31 -15 0 -15 -2 2 -9 17 -7 17 -9 3
-9 -14 -1 -18 -10 -18 -39 0 -49 -19 -88 -49 -102 -22 -10 -23 -9 -11 4 10 13
9 20 -4 41 -15 23 -45 27 -30 4 3 -5 10 -7 15 -4 11 8 12 -15 0 -34 -6 -10
-12 -5 -22 17 -8 18 -16 26 -20 20 -4 -6 4 -26 17 -45 23 -34 24 -53 2 -53 -5
0 -8 7 -4 15 3 9 0 15 -9 15 -8 0 -15 6 -15 14 0 8 -5 18 -12 22 -8 5 -9 2 -4
-12 13 -33 15 -54 5 -54 -5 0 -9 -9 -9 -19 0 -19 14 -22 38 -7 7 4 16 5 20 1
4 -3 -1 -11 -11 -16 -9 -6 -17 -18 -17 -27 0 -15 2 -15 10 -2 9 13 10 13 11 0
0 -8 2 -24 4 -35 3 -18 3 -19 -9 -3 -12 16 -14 16 -29 0 -12 -11 -17 -12 -17
-4 0 7 -4 11 -8 8 -4 -2 -13 4 -20 14 -10 16 -9 18 5 13 21 -8 8 16 -19 35
-17 12 -18 33 -18 266 l0 254 -22 5 c-13 3 -70 8 -128 12 -58 3 -115 8 -128
11 -18 4 -22 0 -22 -21 0 -16 6 -25 16 -25 14 0 14 -2 0 -15 -9 -10 -15 -34
-15 -70 l0 -55 33 0 c19 0 39 -7 46 -15 16 -19 30 -19 30 -1 0 10 7 12 23 8
18 -5 19 -7 5 -10 -10 -2 -18 -8 -18 -14 0 -7 -20 -8 -60 -4 l-60 7 0 -30 c0
-23 5 -31 23 -34 l22 -4 -22 -2 c-22 -1 -23 -5 -23 -92 0 -98 7 -114 58 -129
25 -8 24 -8 -13 -9 -38 -2 -39 -2 -20 -18 20 -15 20 -15 -2 -10 -19 4 -23 1
-23 -19 0 -15 6 -24 15 -24 12 0 14 -7 9 -27 -4 -16 -11 -29 -16 -31 -4 -2 -8
-14 -8 -26 0 -22 5 -24 83 -30 108 -8 663 -10 675 -2 6 3 13 0 15 -6 4 -10 6
-10 6 0 1 8 19 12 57 12 l56 0 -7 -107 c-4 -60 -11 -115 -16 -123 -7 -13 -8
-13 -9 0 0 13 -1 13 -10 0 -5 -8 -10 -10 -10 -4 0 7 -7 14 -15 18 -11 4 -15
-1 -15 -19 0 -18 5 -25 19 -25 11 0 22 -4 25 -9 9 -14 -20 -21 -33 -8 -8 8
-11 1 -12 -28 -1 -22 -1 -45 0 -51 1 -7 -9 -14 -22 -18 -12 -3 -36 -23 -52
-45 -17 -22 -33 -41 -37 -41 -5 0 -8 72 -8 160 l0 160 -182 0 c-328 1 -387 5
-402 26 -14 18 -15 18 -33 1 -11 -9 -32 -17 -46 -17 l-27 0 0 -375 0 -375 577
0 c437 1 580 4 592 13 12 9 13 9 7 0 -5 -10 161 -13 784 -13 783 0 790 0 790
20 0 18 -16 25 -42 21 -5 0 -8 6 -8 14 0 11 7 14 25 9 25 -6 36 10 13 19 -10
4 -10 6 0 6 8 1 12 25 12 86 l0 84 -60 7 c-33 4 -60 10 -60 14 0 4 -51 5 -112
2 -62 -2 -123 -4 -136 -4 -22 0 -22 -1 -5 -14 23 -17 27 -17 -172 1 -88 8
-198 15 -245 16 -47 1 -75 4 -62 6 12 2 22 9 22 15 0 6 -21 8 -57 4 -32 -3
-118 -7 -190 -8 -128 -3 -132 -4 -110 -20 12 -10 36 -18 52 -19 l30 -1 -30 -8
-30 -8 35 -3 c19 -1 42 -3 50 -5 8 -1 23 -2 33 -3 9 -1 17 -5 17 -10 0 -12
-74 -17 -551 -37 -271 -12 -399 -13 -432 -6 -26 5 -66 8 -90 6 -23 -2 -81 -5
-129 -6 -48 -1 -85 -5 -82 -10 3 -4 -2 -8 -10 -8 -8 0 -18 5 -21 10 -4 6 -28
8 -58 4 -29 -3 -63 -2 -76 4 -26 9 -27 9 235 32 61 5 126 16 145 24 l34 15
-30 2 c-16 0 -41 5 -55 9 -16 6 16 8 88 7 61 -1 112 1 112 6 0 4 10 7 23 6 12
0 16 -3 10 -6 -28 -11 -11 -21 26 -16 21 3 47 0 57 -6 17 -9 15 -10 -11 -11
-49 -1 -64 -17 -24 -25 39 -9 158 -14 177 -7 18 6 15 20 -5 26 -10 2 23 2 72
-1 50 -3 92 -8 95 -11 3 -2 -26 -2 -64 1 -41 3 -63 1 -55 -4 17 -10 112 -10
154 1 l30 8 -30 2 c-16 1 -24 4 -17 7 24 10 0 23 -43 23 -48 0 -68 15 -34 25
20 7 20 8 5 17 -9 5 -122 7 -274 4 -141 -2 -248 -1 -237 3 34 14 -71 22 -150
12 l-70 -8 80 -3 c44 -2 86 -3 93 -3 6 1 12 -3 12 -7 0 -14 -152 -16 -194 -3
-21 7 -76 13 -121 13 -89 0 -115 13 -115 59 l0 23 148 -8 c81 -5 178 -8 215
-7 37 1 65 -1 63 -6 -6 -8 42 -14 242 -27 86 -6 92 -5 85 12 -4 11 -8 13 -11
6 -5 -17 -22 -15 -22 4 0 9 -5 12 -11 8 -7 -4 -10 -1 -7 7 3 8 14 15 26 17 12
2 22 10 22 18 0 18 14 18 30 -1 10 -12 10 -15 -4 -15 -9 0 -16 -4 -16 -10 0
-5 6 -10 14 -10 8 0 17 -9 21 -20 7 -21 46 -23 53 -2 4 14 144 16 212 2 25 -4
58 -6 74 -3 l28 6 -28 12 c-19 7 -24 14 -16 19 7 4 12 2 12 -3 0 -6 5 -11 11
-11 5 0 7 5 4 10 -3 6 1 10 9 10 9 0 16 -5 16 -11 0 -5 4 -8 9 -4 5 3 12 1 16
-5 3 -5 -1 -10 -9 -10 -9 0 -16 -5 -16 -11 0 -7 10 -9 27 -4 36 9 38 12 23 30
-12 15 -5 16 71 15 46 -1 92 1 102 5 9 4 17 3 17 -2 0 -5 52 -10 115 -11 85
-1 114 1 109 10 -5 7 -3 8 7 2 8 -4 66 -10 129 -11 155 -4 148 -4 209 -3 29 0
68 -4 85 -9 17 -5 69 -11 116 -14 l85 -5 -55 13 -55 13 57 1 c31 0 60 6 63 11
8 13 46 13 115 -2 37 -7 71 -8 105 -2 l50 10 -32 14 c-44 20 -41 30 7 30 l40
0 0 140 0 140 -44 0 c-41 0 -44 2 -50 31 -13 65 -11 69 44 69 l50 0 0 115 0
115 -45 0 c-45 0 -54 7 -34 27 8 8 5 13 -10 18 -12 3 -21 15 -21 26 0 10 -5
19 -12 19 -6 0 -3 6 8 14 13 10 34 13 67 9 59 -7 66 14 7 23 -34 6 -39 10 -38
30 2 19 8 24 30 24 18 0 28 -5 28 -15 0 -8 5 -15 10 -15 6 0 10 32 10 75 0 69
-2 76 -22 85 l-23 9 23 0 c18 1 22 7 22 32 0 18 -7 38 -17 46 -14 10 -14 13
-3 11 13 -3 15 24 18 180 l2 182 -45 0 c-25 0 -45 -4 -45 -8z m-90 -132 c0 -5
-4 -10 -10 -10 -5 0 -10 5 -10 10 0 6 5 10 10 10 6 0 10 -4 10 -10z m-131
-197 c-3 -21 2 -33 16 -33 8 0 12 6 9 14 -3 8 0 17 7 22 8 4 10 3 5 -4 -4 -7
-1 -12 9 -12 15 0 15 -2 1 -15 -8 -8 -19 -15 -25 -15 -6 0 -11 -3 -11 -7 0 -5
-18 -8 -40 -8 -22 -1 -40 3 -40 7 0 17 36 47 68 57 1 1 1 -2 1 -6z m91 3 c0
-3 -4 -8 -10 -11 -5 -3 -10 -1 -10 4 0 6 5 11 10 11 6 0 10 -2 10 -4z m-2455
-37 c5 -6 5 -13 -3 -21 -9 -9 -12 -9 -12 0 0 7 -8 12 -18 12 -10 0 -19 7 -19
15 0 16 32 12 52 -6z m45 -39 c0 -5 -5 -10 -11 -10 -5 0 -7 5 -4 10 3 6 8 10
11 10 2 0 4 -4 4 -10z m2220 -7 c0 -3 -6 -3 -14 0 -7 3 -19 0 -25 -6 -8 -8
-11 -8 -11 0 0 6 6 13 13 16 13 4 37 -2 37 -10z m-670 -93 c0 -67 -1 -70 -23
-70 -20 0 -23 4 -19 30 2 17 10 30 16 30 7 0 10 14 8 40 -3 25 0 40 7 40 7 0
11 -26 11 -70z m913 55 c-3 -9 -8 -14 -10 -11 -3 3 -2 9 2 15 9 16 15 13 8 -4z
m77 6 c0 -6 -4 -13 -10 -16 -5 -3 -10 1 -10 9 0 9 5 16 10 16 6 0 10 -4 10 -9z
m-180 -35 c0 -4 -9 -1 -19 6 -11 7 -17 16 -15 20 5 8 34 -15 34 -26z m70 25
c0 -11 -59 -55 -66 -49 -2 3 6 16 18 31 23 26 48 35 48 18z m-2330 -19 c0 -5
-7 -9 -15 -9 -8 0 -12 4 -9 9 3 4 9 8 15 8 5 0 9 -4 9 -8z m1390 -54 c0 -45
-2 -49 -22 -46 -26 3 -33 25 -24 73 5 27 10 32 26 28 17 -4 20 -14 20 -55z
m-1480 2 c-8 -5 -31 -9 -50 -9 -29 0 -31 2 -15 9 11 5 34 9 50 9 23 1 26 -2
15 -9z m57 4 c-3 -3 -12 -4 -19 -1 -8 3 -5 6 6 6 11 1 17 -2 13 -5z m6 -21
c-7 -2 -19 -2 -25 0 -7 3 -2 5 12 5 14 0 19 -2 13 -5z m-113 -13 c0 -5 -2 -10
-4 -10 -3 0 -8 5 -11 10 -3 6 -1 10 4 10 6 0 11 -4 11 -10z m2210 -20 c0 -5
-2 -10 -4 -10 -3 0 -8 5 -11 10 -3 6 -1 10 4 10 6 0 11 -4 11 -10z m370 -45
c0 -8 -9 -15 -20 -15 -11 0 -20 7 -20 15 0 8 9 15 20 15 11 0 20 -7 20 -15z
m-373 -27 c-3 -8 -6 -5 -6 6 -1 11 2 17 5 13 3 -3 4 -12 1 -19z m294 -40 c17
-32 -5 -19 -24 14 -15 26 -15 29 -2 18 9 -7 21 -22 26 -32z m-2071 -32 c0 -3
-4 -8 -10 -11 -5 -3 -10 -1 -10 4 0 6 5 11 10 11 6 0 10 -2 10 -4z m-245 -27
c-5 -15 -4 -19 4 -15 8 5 11 -13 11 -58 0 -62 -9 -81 -26 -55 -4 6 -7 29 -7
51 0 21 -4 41 -8 44 -5 3 -9 -22 -8 -56 1 -34 -3 -66 -10 -73 -8 -8 -11 -7
-11 5 0 23 -18 32 -35 18 -17 -14 -19 1 -6 35 5 11 4 25 -1 33 -8 8 -6 12 6
12 9 0 16 5 16 10 0 6 7 10 17 10 14 0 14 2 -2 20 -16 17 -16 20 -2 20 9 0 19
-4 22 -10 3 -5 11 -10 16 -10 6 0 7 5 3 11 -3 6 0 15 7 20 20 12 21 11 14 -12z
m210 11 c-3 -5 1 -10 10 -10 9 0 14 -4 11 -9 -4 -5 -2 -11 2 -13 5 -1 1 -11
-8 -21 -17 -17 -17 -17 -13 8 3 15 1 25 -6 25 -6 0 -11 -7 -11 -17 0 -9 -2
-14 -5 -11 -9 9 6 58 17 58 5 0 6 -4 3 -10z m455 -65 c0 -16 -6 -25 -15 -25
-9 0 -15 9 -15 25 0 16 6 25 15 25 9 0 15 -9 15 -25z m184 6 c10 -16 -6 -71
-20 -71 -10 0 -14 13 -14 40 0 28 4 40 14 40 8 0 17 -4 20 -9z m-609 -21 c3
-5 1 -10 -4 -10 -6 0 -11 5 -11 10 0 6 2 10 4 10 3 0 8 -4 11 -10z m-45 -4 c0
-2 -7 -9 -15 -16 -13 -11 -14 -10 -9 4 5 14 24 23 24 12z m1667 -28 c-3 -7 -5
-2 -5 12 0 14 2 19 5 13 2 -7 2 -19 0 -25z m613 7 c0 -8 -9 -23 -19 -32 -11
-9 -17 -21 -14 -26 3 -6 1 -7 -5 -3 -7 4 -12 2 -12 -4 0 -21 -20 1 -21 23 0
21 -1 21 -11 -3 -5 -14 -11 -32 -13 -40 -2 -8 -4 -16 -4 -18 -1 -1 -7 3 -15
10 -16 15 -10 38 11 38 23 0 9 24 -18 31 -21 6 -22 10 -4 9 3 -1 13 6 21 15
21 21 104 21 104 0z m-2267 -2 c-7 -2 -13 -11 -13 -19 0 -8 -5 -14 -10 -14 -7
0 -7 6 0 20 6 11 16 20 23 19 9 0 9 -2 0 -6z m1020 0 c-7 -2 -21 -2 -30 0 -10
3 -4 5 12 5 17 0 24 -2 18 -5z m-1433 -12 c0 -6 -4 -13 -10 -16 -5 -3 -10 1
-10 9 0 9 5 16 10 16 6 0 10 -4 10 -9z m1323 -22 c4 -15 0 -23 -14 -26 -12 -4
-18 -11 -15 -22 3 -9 1 -23 -5 -31 -8 -12 -9 -11 -4 6 5 18 2 21 -21 18 -14
-1 -23 0 -21 3 3 2 8 4 11 4 14 -2 42 36 38 52 -3 10 1 17 11 17 8 0 17 -9 20
-21z m215 -20 c-3 -56 -18 -60 -18 -5 0 25 5 46 10 46 6 0 10 -18 8 -41z
m-488 -30 c0 -28 -4 -39 -15 -39 -11 0 -15 11 -15 38 0 21 3 42 6 45 14 13 24
-6 24 -44z m620 30 c0 -11 -4 -17 -10 -14 -5 3 -10 13 -10 21 0 8 5 14 10 14
6 0 10 -9 10 -21z m-415 1 c3 -6 -1 -7 -9 -4 -18 7 -21 14 -7 14 6 0 13 -4 16
-10z m195 4 c0 -14 -15 -34 -25 -34 -7 0 -16 -6 -18 -12 -3 -8 -6 -6 -6 5 -1
9 5 17 12 17 8 0 7 3 -3 9 -8 6 -18 7 -22 5 -4 -3 -8 -1 -8 5 0 6 16 10 35 9
19 -1 35 -2 35 -4z m-373 -56 c-2 -13 -4 -5 -4 17 -1 22 1 32 4 23 2 -10 2
-28 0 -40z m-527 38 c0 -2 -7 -7 -16 -10 -8 -3 -12 -2 -9 4 6 10 25 14 25 6z
m1552 -46 c-6 -41 -12 -38 -12 6 0 19 4 33 8 30 5 -3 7 -19 4 -36z m99 7 c-10
-9 -11 -8 -5 6 3 10 9 15 12 12 3 -3 0 -11 -7 -18z m-1553 6 c-10 -2 -26 -2
-35 0 -10 3 -2 5 17 5 19 0 27 -2 18 -5z m1688 -51 c-11 -10 -15 4 -8 28 l7
25 3 -23 c2 -13 1 -26 -2 -30z m-211 18 c3 -5 1 -10 -4 -10 -6 0 -11 5 -11 10
0 6 2 10 4 10 3 0 8 -4 11 -10z m-1075 -10 c0 -5 -4 -10 -10 -10 -5 0 -10 5
-10 10 0 6 5 10 10 10 6 0 10 -4 10 -10z m27 -12 c-3 -8 -6 -5 -6 6 -1 11 2
17 5 13 3 -3 4 -12 1 -19z m863 15 c0 -5 12 -9 28 -9 66 -3 102 -8 102 -13 -1
-16 -19 -32 -38 -34 -12 -1 -22 -5 -22 -10 0 -5 13 -6 29 -2 l29 6 -5 -43 c-5
-49 -13 -64 -13 -25 0 15 -4 27 -9 27 -10 0 -31 -107 -31 -156 0 -47 -12 -104
-21 -104 -13 0 -11 88 2 92 8 3 8 10 -2 26 -11 17 -11 24 -2 30 8 5 9 13 3 22
-13 20 -12 33 0 25 6 -3 10 3 10 15 0 11 8 33 18 47 9 15 11 24 4 19 -7 -4
-14 -1 -18 8 -9 23 -23 20 -36 -9 -12 -27 -38 -32 -82 -16 -15 6 -26 6 -28 1
-2 -6 -9 -6 -18 0 -13 8 -12 10 3 10 10 0 17 8 17 20 0 22 -21 25 -104 14 -37
-5 -50 -12 -58 -30 -11 -24 -58 -35 -58 -14 0 6 9 10 21 10 18 0 20 5 16 35
-5 33 -4 35 22 28 14 -3 28 -10 29 -15 5 -11 32 -10 32 2 0 6 9 10 19 10 11 0
21 6 24 13 3 8 9 6 19 -7 15 -19 15 -18 20 1 4 16 11 20 32 16 15 -3 26 -1 26
6 0 6 9 11 20 11 11 0 20 -3 20 -7z m557 1 c-3 -3 -12 -4 -19 -1 -8 3 -5 6 6
6 11 1 17 -2 13 -5z m-843 -12 c4 -2 2 -8 -5 -13 -11 -7 -10 -9 3 -9 11 0 15
-5 12 -15 -7 -18 -44 -20 -45 -2 0 10 -2 10 -6 0 -2 -7 -10 -13 -18 -13 -7 0
-18 -7 -25 -15 -11 -13 -8 -15 13 -15 14 0 29 -4 32 -10 4 -6 -43 -10 -134
-10 l-141 0 0 -161 c0 -124 -3 -160 -12 -157 -16 5 -31 143 -38 343 -1 25 -19
-24 -26 -70 -10 -67 -11 -77 -13 -135 0 -27 -5 -50 -11 -50 -5 0 -9 69 -8 171
l0 170 207 -2 c113 -1 210 -4 215 -7z m911 -45 c-11 -57 -16 -67 -31 -67 -11
0 -14 -18 -16 -77 l-1 -78 -7 97 c-7 107 -15 131 -25 72 -3 -22 -10 -61 -15
-87 -6 -27 -10 -64 -10 -82 0 -19 -4 -37 -10 -40 -6 -4 -10 47 -10 147 l0 153
66 -3 65 -4 -6 -31z m-135 3 c0 -5 -5 -10 -11 -10 -5 0 -7 5 -4 10 3 6 8 10
11 10 2 0 4 -4 4 -10z m-633 -34 c0 -8 -9 -17 -19 -19 -10 -3 -18 -1 -18 4 0
5 5 9 11 9 5 0 7 5 4 10 -3 6 0 10 8 10 7 0 14 -6 14 -14z m-57 -15 c0 -6 -9
-9 -20 -8 -11 1 -20 5 -20 9 0 4 9 8 20 8 11 0 20 -4 20 -9z m373 -88 c-7 -2
-19 -2 -25 0 -7 3 -2 5 12 5 14 0 19 -2 13 -5z m-6 -19 c-3 -3 -12 -4 -19 -1
-8 3 -5 6 6 6 11 1 17 -2 13 -5z m-1124 -31 c-7 -2 -21 -2 -30 0 -10 3 -4 5
12 5 17 0 24 -2 18 -5z m1214 -25 c-3 -8 -6 -5 -6 6 -1 11 2 17 5 13 3 -3 4
-12 1 -19z m-1200 6 c13 -4 20 -10 17 -15 -3 -5 -1 -9 5 -9 5 0 13 5 16 10 3
6 12 10 18 10 7 0 6 -4 -3 -10 -10 -6 0 -10 35 -13 28 -2 4 -4 -52 -5 -104 -2
-105 -2 -94 36 2 4 36 2 58 -4z m-107 -24 c0 -5 -2 -10 -4 -10 -3 0 -8 5 -11
10 -3 6 -1 10 4 10 6 0 11 -4 11 -10z m1427 4 c-3 -3 -12 -4 -19 -1 -8 3 -5 6
6 6 11 1 17 -2 13 -5z m40 0 c-3 -3 -12 -4 -19 -1 -8 3 -5 6 6 6 11 1 17 -2
13 -5z m-24 -21 c-7 -2 -21 -2 -30 0 -10 3 -4 5 12 5 17 0 24 -2 18 -5z
m-1198 -13 c4 -6 -33 -10 -105 -10 -72 0 -109 4 -105 10 3 6 50 10 105 10 55
0 102 -4 105 -10z m352 2 c6 -4 16 -20 22 -35 9 -22 8 -27 -4 -27 -8 0 -15 -4
-15 -10 0 -5 -19 -10 -41 -10 -38 0 -40 2 -28 17 13 15 10 16 -31 10 -25 -3
-38 -3 -30 0 8 4 20 13 27 22 11 14 12 14 13 1 0 -10 3 -11 8 -3 4 6 25 13 47
16 27 2 16 4 -30 5 -49 2 -66 5 -55 12 18 11 100 13 117 2z m-680 -34 c-3 -7
-5 -2 -5 12 0 14 2 19 5 13 2 -7 2 -19 0 -25z m328 3 c3 -6 -38 -10 -105 -9
-60 0 -107 4 -104 9 7 12 201 11 209 0z m96 -18 c12 -14 12 -17 0 -21 -11 -4
-11 -6 0 -13 8 -5 -27 -8 -86 -7 -55 0 -88 3 -72 5 57 9 24 22 -49 19 -46 -2
-71 0 -63 5 8 5 59 8 114 8 94 -2 98 -3 65 -15 l-35 -12 55 -1 c45 0 52 2 39
12 -18 13 -14 37 6 37 7 0 19 -7 26 -17z m550 -13 c42 6 51 -8 19 -27 -16 -11
-18 -10 -14 2 4 10 0 15 -15 15 -13 0 -21 6 -21 18 0 13 2 14 9 4 4 -8 14 -13
22 -12z m-1047 -6 c3 -8 2 -12 -4 -9 -6 3 -10 10 -10 16 0 14 7 11 14 -7z m66
-14 c-20 -13 -33 -13 -25 0 3 6 14 10 23 10 15 0 15 -2 2 -10z m1077 4 c-3 -3
-12 -4 -19 -1 -8 3 -5 6 6 6 11 1 17 -2 13 -5z m593 2 c0 -3 -4 -8 -10 -11 -5
-3 -10 -1 -10 4 0 6 5 11 10 11 6 0 10 -2 10 -4z m-1260 -36 c11 -7 5 -10 -23
-10 -23 0 -36 4 -32 10 8 13 35 13 55 0z m-80 -14 c8 -2 -25 -4 -75 -5 -49 0
-84 3 -77 7 11 7 115 6 152 -2z m1349 10 c-7 -8 -129 -10 -136 -3 -3 4 27 7
67 7 40 0 71 -2 69 -4z m135 -15 c6 -9 -62 -6 -72 4 -3 3 11 5 31 5 20 0 38
-4 41 -9z m-1834 -15 c0 -3 -4 -8 -10 -11 -5 -3 -10 -1 -10 4 0 6 5 11 10 11
6 0 10 -2 10 -4z m25 -6 c3 -5 1 -10 -4 -10 -6 0 -11 5 -11 10 0 6 2 10 4 10
3 0 8 -4 11 -10z m369 -2 c-3 -4 -56 -8 -117 -7 -74 1 -103 4 -87 9 32 11 211
9 204 -2z m-814 -108 c0 -5 -23 -10 -51 -10 -41 0 -50 -3 -45 -15 4 -11 -2
-15 -22 -15 -15 0 -45 -2 -67 -5 -32 -4 -35 -3 -15 4 19 7 20 9 7 10 -31 2
-13 26 24 32 57 11 169 10 169 -1z m525 0 c4 -6 -6 -10 -24 -10 -16 0 -33 5
-36 10 -4 6 6 10 24 10 16 0 33 -4 36 -10z m768 -27 c-7 -2 -19 -2 -25 0 -7 3
-2 5 12 5 14 0 19 -2 13 -5z m224 -14 c-40 -5 -88 -5 -115 0 -39 7 -27 9 68 9
112 -1 113 -1 47 -9z m233 1 l25 -2 -25 -8 c-42 -13 -106 -11 -136 5 -30 16
-25 16 136 5z m163 -7 c-7 -2 -19 -2 -25 0 -7 3 -2 5 12 5 14 0 19 -2 13 -5z
m-516 -9 c-3 -3 -12 -4 -19 -1 -8 3 -5 6 6 6 11 1 17 -2 13 -5z m166 -1 c-7
-2 -19 -2 -25 0 -7 3 -2 5 12 5 14 0 19 -2 13 -5z m-303 -93 c0 -5 -2 -10 -4
-10 -3 0 -8 5 -11 10 -3 6 -1 10 4 10 6 0 11 -4 11 -10z m324 2 c2 -4 -7 -8
-22 -9 -24 -2 -24 -1 -7 7 11 5 21 9 22 9 1 1 4 -3 7 -7z m710 -9 c-5 -5 -12
-12 -15 -16 -3 -5 -9 -2 -12 7 -5 12 0 16 15 16 12 0 17 -3 12 -7z m-1267 -17
c0 -8 -6 -12 -15 -9 -11 5 -11 7 0 14 7 5 13 9 14 9 0 0 1 -6 1 -14z m280 8
c-3 -3 -12 -4 -19 -1 -8 3 -5 6 6 6 11 1 17 -2 13 -5z m620 0 c-3 -3 -12 -4
-19 -1 -8 3 -5 6 6 6 11 1 17 -2 13 -5z m-1987 -14 c0 -5 -5 -10 -11 -10 -5 0
-7 5 -4 10 3 6 8 10 11 10 2 0 4 -4 4 -10z m24 -4 c-4 -11 0 -14 19 -10 20 3
27 -1 32 -17 6 -18 12 -20 43 -15 27 4 31 3 17 -4 -11 -5 -30 -9 -42 -9 -15
-1 -23 -7 -23 -18 0 -15 -2 -16 -10 -3 -6 9 -5 17 1 21 7 4 4 12 -6 23 -9 9
-20 14 -25 11 -11 -7 -23 12 -15 25 9 15 15 12 9 -4z m1910 1 c10 -10 2 -12
-38 -10 -63 2 -67 3 -36 13 38 12 60 11 74 -3z m86 4 c0 -5 -6 -14 -14 -20
-10 -9 -16 -8 -25 3 -10 11 -8 15 6 19 29 8 33 7 33 -2z m253 -6 c-3 -9 -8
-14 -10 -11 -3 3 -2 9 2 15 9 16 15 13 8 -4z m-225 -7 c-2 -6 -10 -13 -16 -14
-7 -1 -8 0 -2 3 5 2 8 9 4 14 -3 5 0 9 6 9 7 0 10 -5 8 -12z m-2138 -17 c0
-23 -16 -36 -25 -21 -9 14 1 40 15 40 5 0 10 -9 10 -19z m2334 7 c-7 -10 -24
-10 -24 0 0 5 7 9 15 9 8 0 12 -4 9 -9z m82 -3 c-10 -8 -23 -12 -28 -9 -14 9
-2 19 24 21 22 2 22 1 4 -12z m-2380 -6 c4 -8 9 -7 15 2 6 10 9 10 9 2 0 -7
12 -19 28 -28 l27 -15 -34 6 c-19 2 -38 7 -43 10 -4 3 -5 -2 -2 -10 3 -9 1
-16 -5 -16 -6 0 -14 -1 -18 -2 -3 -2 -7 5 -9 15 -1 9 2 17 8 17 6 0 8 7 4 15
-6 17 9 20 20 4z m316 -4 c16 -1 35 -11 43 -21 11 -15 15 -16 16 -4 1 8 1 18
1 21 -1 3 6 6 14 6 8 0 14 -4 14 -8 0 -4 10 -9 23 -11 17 -2 12 -6 -22 -17
-39 -13 -44 -13 -52 2 -5 9 -16 14 -23 11 -8 -3 -17 -1 -21 5 -3 6 -19 11 -36
11 -16 0 -29 5 -29 11 0 6 9 8 22 3 12 -3 35 -8 50 -9z m381 8 c-7 -2 -19 -2
-25 0 -7 3 -2 5 12 5 14 0 19 -2 13 -5z m278 0 c-19 -4 -21 -7 -10 -15 11 -8
10 -9 -4 -4 -10 3 -26 6 -35 7 -23 1 27 17 53 17 15 -1 13 -2 -4 -5z m369 0
c-14 -3 -31 -10 -37 -15 -9 -7 -13 -7 -13 0 0 13 18 21 50 20 l25 -1 -25 -4z
m630 -6 c8 -3 22 -8 30 -11 8 -4 -3 -4 -25 -2 -22 3 -61 1 -87 -3 -51 -8 -62
-2 -25 14 23 11 82 12 107 2z m-160 -15 c0 -4 -10 -9 -22 -9 -18 -2 -20 0 -8
7 18 12 30 13 30 2z m185 -22 c3 -6 -1 -10 -9 -10 -8 0 -18 5 -21 10 -3 6 1
10 9 10 8 0 18 -4 21 -10z"/>
<path d="M1984 765 c-17 -13 -17 -14 -2 -15 9 0 20 5 23 11 11 17 0 20 -21 4z"/>
<path d="M420 1811 c0 -14 -62 -22 -77 -10 -11 9 -12 8 -7 -5 3 -9 10 -16 14
-16 5 0 6 -9 3 -20 -5 -17 38 -85 48 -75 2 1 12 -8 22 -21 15 -20 15 -24 3
-24 -8 0 -21 6 -28 13 -7 8 -20 12 -30 9 -10 -2 -18 1 -18 7 0 7 -5 9 -10 6
-8 -5 -7 -11 1 -21 9 -11 7 -14 -9 -14 -16 0 -20 4 -15 18 6 15 5 15 -10 3
-14 -11 -28 -11 -83 -1 -55 11 -68 10 -75 -1 -6 -10 -9 -11 -9 -1 0 22 -81 15
-109 -10 l-26 -23 19 23 c16 19 17 22 3 22 -16 0 -34 -37 -23 -47 8 -8 558
-54 575 -48 9 4 11 0 6 -12 -17 -46 -18 -73 -1 -73 15 0 15 -2 0 -25 -9 -15
-13 -25 -8 -24 25 4 121 -2 132 -9 9 -6 13 -36 13 -96 0 -62 4 -86 12 -83 6 2
16 18 21 35 5 18 12 32 16 32 7 0 18 29 26 68 2 11 -9 16 -28 13 -5 0 -8 3 -8
9 0 5 6 10 13 10 7 0 4 7 -7 15 -17 13 -17 15 -3 21 24 9 21 24 -5 24 -13 0
-30 5 -38 10 -13 8 -12 10 3 10 15 0 16 2 5 14 -15 16 -41 9 -34 -9 3 -9 -2
-11 -16 -7 -18 4 -18 6 -4 14 9 5 16 17 16 26 0 13 -2 14 -9 4 -6 -10 -10 -7
-15 12 -5 22 -12 26 -41 26 -18 0 -37 5 -40 10 -3 6 -17 10 -31 10 -23 0 -24
1 -10 16 19 19 21 28 4 18 -7 -4 -4 2 6 14 14 17 16 22 5 22 -12 0 -12 2 0 9
9 6 10 11 2 15 -6 4 -22 -1 -36 -10 -14 -9 -25 -13 -25 -9 0 4 -8 1 -17 -6
-10 -8 -14 -9 -10 -2 4 6 2 15 -4 19 -8 4 -4 11 12 20 19 10 20 13 7 14 -20 0
-25 20 -5 20 7 1 5 6 -5 14 -23 17 -23 26 2 26 12 0 20 7 20 18 0 9 -4 13 -8
7 -4 -5 -17 -15 -29 -22 -17 -10 -22 -9 -27 3 -3 9 -4 20 0 25 3 5 0 9 -5 9
-6 0 -11 -4 -11 -9z m-310 -155 c0 -2 -8 -10 -17 -17 -16 -13 -17 -12 -4 4 13
16 21 21 21 13z m-45 -16 c-3 -5 -12 -10 -18 -10 -7 0 -6 4 3 10 19 12 23 12
15 0z m65 0 c0 -5 -5 -10 -11 -10 -5 0 -7 5 -4 10 3 6 8 10 11 10 2 0 4 -4 4
-10z m520 -80 c0 -5 -2 -10 -4 -10 -3 0 -8 5 -11 10 -3 6 -1 10 4 10 6 0 11
-4 11 -10z m-20 -16 c0 -8 -19 -13 -24 -6 -3 5 1 9 9 9 8 0 15 -2 15 -3z"/>
<path d="M1176 1751 c-3 -5 1 -11 9 -15 15 -6 29 7 18 18 -9 9 -21 8 -27 -3z"/>
<path d="M1985 1741 c-3 -6 0 -11 8 -11 8 0 17 -7 21 -15 8 -22 25 -18 23 5
-1 11 -4 20 -8 20 -4 0 -14 3 -22 6 -8 3 -18 1 -22 -5z"/>
<path d="M1005 1730 c3 -5 16 -10 28 -9 21 0 21 1 2 9 -28 12 -37 12 -30 0z"/>
<path d="M2480 1720 c20 -13 33 -13 25 0 -3 6 -14 10 -23 10 -15 0 -15 -2 -2
-10z"/>
<path d="M2040 1659 c0 -5 5 -7 10 -4 6 3 10 8 10 11 0 2 -4 4 -10 4 -5 0 -10
-5 -10 -11z"/>
<path d="M1313 1645 c0 -8 7 -17 15 -20 23 -8 24 0 4 18 -15 14 -19 15 -19 2z"/>
<path d="M2160 1520 c0 -5 5 -10 11 -10 5 0 7 5 4 10 -3 6 -8 10 -11 10 -2 0
-4 -4 -4 -10z"/>
<path d="M2230 1495 c0 -9 6 -12 15 -9 8 4 12 10 9 15 -8 14 -24 10 -24 -6z"/>
<path d="M2148 1493 c6 -2 18 -2 25 0 6 3 1 5 -13 5 -14 0 -19 -2 -12 -5z"/>
<path d="M2138 1468 c5 -5 16 -8 23 -6 8 3 3 7 -10 11 -17 4 -21 3 -13 -5z"/>
<path d="M946 1362 c-3 -5 -5 -43 -5 -85 l0 -77 65 0 64 0 0 79 0 78 -46 7
c-61 8 -72 8 -78 -2z m102 -84 c3 -67 3 -68 -23 -68 -14 0 -25 5 -25 10 0 6
-8 10 -17 8 -15 -3 -18 6 -21 59 l-3 62 43 -2 43 -2 3 -67z"/>
<path d="M2010 1225 l0 -75 33 1 c26 1 27 3 8 6 -19 4 -21 7 -10 14 11 7 11 9
-3 9 -11 0 -18 8 -18 20 0 11 6 20 14 20 8 0 16 12 18 27 2 14 8 28 15 30 15
5 27 -57 20 -103 -4 -25 -2 -34 9 -34 11 0 14 17 14 78 l0 77 -50 3 -50 3 0
-76z"/>
<path d="M317 1219 c7 -7 15 -10 18 -7 3 3 -2 9 -12 12 -14 6 -15 5 -6 -5z"/>
<path d="M360 1220 c0 -5 5 -10 11 -10 5 0 7 5 4 10 -3 6 -8 10 -11 10 -2 0
-4 -4 -4 -10z"/>
<path d="M386 1205 c-3 -8 -1 -15 4 -15 6 0 10 7 10 15 0 8 -2 15 -4 15 -2 0
-6 -7 -10 -15z"/>
<path d="M343 1185 c0 -8 6 -16 14 -19 11 -4 11 -1 3 14 -13 24 -17 25 -17 5z"/>
<path d="M2337 1145 c3 -8 9 -12 14 -9 12 7 11 11 -5 17 -10 4 -13 1 -9 -8z"/>
<path d="M319 1098 c4 -13 6 -29 3 -37 -3 -10 0 -11 9 -5 12 7 12 5 0 -9 -9
-11 -10 -17 -2 -17 18 0 34 51 21 64 -8 8 -9 6 -4 -8 5 -13 4 -17 -4 -12 -7 4
-12 16 -12 27 0 10 -4 19 -10 19 -6 0 -6 -9 -1 -22z"/>
<path d="M2350 1011 c0 -6 4 -13 10 -16 6 -3 7 1 4 9 -7 18 -14 21 -14 7z"/>
<path d="M360 980 c0 -5 5 -10 10 -10 6 0 10 5 10 10 0 6 -4 10 -10 10 -5 0
-10 -4 -10 -10z"/>
<path d="M2191 944 c0 -11 3 -14 6 -6 3 7 2 16 -1 19 -3 4 -6 -2 -5 -13z"/>
<path d="M960 356 c0 -9 5 -16 10 -16 6 0 10 4 10 9 0 6 -4 13 -10 16 -5 3
-10 -1 -10 -9z"/>
<path d="M2653 353 c9 -2 23 -2 30 0 6 3 -1 5 -18 5 -16 0 -22 -2 -12 -5z"/>
<path d="M1255 290 c-13 -6 7 -9 63 -9 48 -1 82 3 82 9 0 12 -117 12 -145 0z"/>
<path d="M770 230 c20 -13 33 -13 25 0 -3 6 -14 10 -23 10 -15 0 -15 -2 -2
-10z"/>
</g>
</svg>
