<?xml version="1.0" standalone="no"?>
<!DOCTYPE svg PUBLIC "-//W3C//DTD SVG 20010904//EN"
 "http://www.w3.org/TR/2001/REC-SVG-20010904/DTD/svg10.dtd">
<svg version="1.0" xmlns="http://www.w3.org/2000/svg"
 width="275.000000pt" height="183.000000pt" viewBox="0 0 275.000000 183.000000"
 preserveAspectRatio="xMidYMid meet">

<g transform="translate(0.000000,183.000000) scale(0.100000,-0.100000)"
fill="#000000" stroke="none">
<path d="M0 1765 c0 -36 3 -65 8 -65 15 0 107 35 110 43 6 13 40 7 46 -8 6
-16 76 -22 76 -7 0 7 178 32 225 32 15 0 17 -2 6 -9 -16 -10 -9 -52 14 -75 8
-8 15 -21 15 -29 0 -26 23 -36 60 -27 19 4 27 8 18 9 -29 2 -21 28 10 34 16 3
34 17 42 31 11 21 21 26 50 26 20 0 45 7 56 15 10 8 26 15 35 15 9 0 30 7 45
15 20 10 60 15 127 15 53 0 97 4 97 9 0 5 9 13 20 16 66 21 -20 25 -520 25
l-540 0 0 -65z m640 -25 c0 -5 -6 -10 -14 -10 -8 0 -18 5 -21 10 -3 6 3 10 14
10 12 0 21 -4 21 -10z"/>
<path d="M1239 1803 c-1 -16 -3 -37 -5 -48 -2 -11 -6 -33 -9 -50 -3 -16 -2
-36 3 -43 12 -18 69 -24 84 -8 22 21 45 25 66 10 27 -19 36 -4 27 46 -6 33 -4
40 9 40 9 0 25 6 36 12 15 10 25 10 38 2 25 -16 26 -41 3 -49 -29 -9 -26 -25
4 -25 14 0 25 5 25 10 0 6 6 10 13 10 8 0 22 9 32 20 10 11 24 20 32 20 7 0
16 7 19 15 4 8 12 15 19 15 18 0 26 15 19 34 -5 14 -33 16 -210 16 l-204 0 -1
-27z"/>
<path d="M1995 1806 c-22 -12 -40 -27 -40 -32 0 -5 18 -10 40 -12 35 -2 43 -7
52 -32 10 -27 13 -28 54 -23 57 6 139 44 139 63 0 12 2 13 9 1 7 -11 9 -11 13
0 3 8 5 -14 5 -48 1 -35 -3 -63 -8 -63 -5 0 -9 -7 -9 -15 0 -8 5 -15 10 -15 6
0 10 -6 10 -14 0 -15 -37 -32 -47 -22 -7 6 -43 -38 -43 -52 0 -5 -13 -12 -30
-14 -24 -4 -27 -2 -19 9 9 10 7 13 -5 13 -9 0 -19 7 -22 15 -4 8 -9 15 -13 15
-4 0 -8 -7 -8 -15 0 -8 4 -15 9 -15 4 0 8 -11 8 -25 0 -14 5 -25 10 -25 15 0
12 -26 -5 -40 -8 -7 -13 -16 -10 -20 3 -4 -2 -11 -10 -14 -8 -3 -15 -9 -14
-13 4 -26 -2 -33 -20 -23 -14 7 -22 7 -26 -1 -7 -10 -59 -4 -80 10 -5 4 -43 5
-83 3 -73 -4 -73 -4 -98 -44 -14 -22 -28 -37 -32 -34 -3 4 0 12 6 18 7 7 12
17 12 22 0 6 -5 3 -11 -6 -6 -11 -22 -18 -40 -18 -27 0 -29 2 -19 21 7 11 17
19 23 16 18 -7 59 11 52 22 -3 6 -13 8 -23 5 -14 -5 -14 -4 -3 4 8 6 20 8 27
5 10 -4 64 90 64 111 0 6 -252 -4 -259 -10 -2 -2 38 -5 90 -5 171 -3 17 -17
-236 -22 -126 -2 -202 -3 -167 0 34 2 62 7 62 11 0 4 -51 4 -112 1 -62 -4
-205 -10 -318 -14 -113 -4 -206 -8 -207 -9 -1 0 1 -14 4 -29 5 -27 8 -28 54
-26 31 2 54 -2 62 -10 10 -11 0 -13 -54 -9 -69 6 -108 -9 -93 -33 4 -7 3 -10
-4 -5 -6 3 -13 2 -17 -4 -3 -5 -2 -10 4 -10 15 0 61 22 61 29 0 3 26 5 58 3
57 -4 59 -5 73 -40 8 -20 15 -40 17 -44 2 -3 -11 -9 -27 -13 -30 -6 -30 -7
-15 -30 9 -13 13 -29 9 -35 -3 -5 -2 -10 2 -10 5 0 17 -14 27 -30 9 -17 22
-28 27 -25 19 12 15 -82 -5 -104 -17 -18 -23 -73 -7 -55 5 5 11 18 14 29 3 11
5 -22 4 -72 0 -61 -5 -93 -12 -93 -6 0 -12 19 -13 43 -1 31 1 37 7 22 7 -16 9
-12 9 18 0 20 -4 37 -9 37 -4 0 -6 -6 -3 -13 3 -8 -2 -19 -10 -26 -20 -17 -30
2 -29 58 1 56 5 74 18 83 16 12 2 17 -53 20 -28 2 -52 6 -52 11 0 4 -13 7 -29
7 -17 0 -33 5 -36 10 -4 6 14 10 47 10 66 0 128 10 128 20 0 5 -72 6 -160 3
-126 -5 -160 -3 -160 7 0 9 -11 11 -39 7 -29 -4 -42 0 -54 13 -19 22 -8 40 38
63 25 13 27 17 12 22 -9 4 -17 11 -17 17 0 5 5 6 12 2 7 -4 8 -3 4 5 -5 7 3
22 18 35 l25 24 -35 4 c-19 2 -37 1 -39 -3 -3 -4 -21 -10 -41 -13 -19 -4 -41
-8 -47 -10 -7 -1 -9 -1 -4 1 4 3 5 8 2 13 -3 5 2 16 11 24 14 15 13 16 -8 17
-13 1 -27 1 -31 0 -5 -1 -6 2 -3 7 3 5 -6 20 -20 35 -18 19 -21 27 -10 27 8 0
17 4 20 9 3 4 -15 8 -40 8 -45 0 -75 20 -53 34 6 3 4 11 -6 19 -14 11 -13 14
2 26 16 12 16 15 3 23 -9 7 -19 6 -27 -1 -7 -6 -13 -7 -13 -2 0 5 -5 1 -11 -8
-13 -23 -31 -23 -27 0 2 10 -3 17 -12 17 -8 0 -20 7 -27 15 -9 11 -12 12 -13
2 0 -7 -5 -10 -10 -7 -6 4 -8 11 -5 16 4 5 -3 9 -13 9 -11 0 -26 8 -33 18 -13
16 -13 16 5 2 18 -14 19 -14 7 9 -10 19 -15 21 -22 10 -5 -8 -9 -382 -9 -836
l0 -823 1375 0 1375 0 0 915 0 915 -357 -1 c-350 -1 -359 -2 -398 -23z m330
-38 c-3 6 -1 12 4 12 12 0 15 -33 4 -43 -8 -8 -32 23 -33 42 0 11 4 9 16 -5 8
-10 13 -13 9 -6z m-5 -168 c0 -5 -5 -10 -11 -10 -5 0 -7 5 -4 10 3 6 8 10 11
10 2 0 4 -4 4 -10z m-626 -142 c-3 -4 -56 -7 -117 -6 l-112 2 90 6 c117 8 145
8 139 -2z m-127 -24 c63 -3 111 -10 107 -15 -7 -12 -621 -12 -629 1 -4 6 54
11 157 12 90 2 183 4 208 5 25 1 96 0 157 -3z m-1327 -24 c0 -11 -2 -20 -4
-20 -2 0 -6 9 -9 20 -3 11 -1 20 4 20 5 0 9 -9 9 -20z m726 12 c-6 -11 -122
-23 -142 -15 -33 12 -9 20 67 22 47 1 78 -2 75 -7z m571 -78 c46 -4 81 -10 76
-15 -7 -6 -135 -13 -605 -32 -47 -2 -58 1 -62 16 -2 9 0 15 5 11 5 -3 9 -1 9
5 0 6 43 11 108 13 290 8 392 8 469 2z m260 -91 c-2 -21 -4 -6 -4 32 0 39 2
55 4 38 2 -18 2 -50 0 -70z m78 87 c3 -5 1 -10 -4 -10 -6 0 -11 5 -11 10 0 6
2 10 4 10 3 0 8 -4 11 -10z m-187 -64 c-22 -22 -48 -25 -48 -5 0 4 7 6 15 2 9
-3 15 -2 14 3 -3 19 2 24 21 24 20 0 20 -1 -2 -24z m-1248 10 c0 -2 -7 -7 -16
-10 -8 -3 -12 -2 -9 4 6 10 25 14 25 6z m1040 -27 c-194 -12 -535 -18 -435 -8
119 12 517 26 530 19 6 -3 -37 -8 -95 -11z m-635 1 c3 -5 -1 -10 -9 -10 -8 0
-18 5 -21 10 -3 6 1 10 9 10 8 0 18 -4 21 -10z m1145 -44 c0 -10 -7 -13 -21
-11 -12 2 -30 -5 -42 -17 -12 -11 -16 -17 -8 -13 9 5 12 3 9 -5 -2 -7 -15 -15
-28 -17 -13 -2 -29 -8 -37 -14 -10 -9 -13 -2 -13 40 l0 51 70 0 c54 0 70 -3
70 -14z m-901 -12 c11 -10 -11 -14 -77 -15 -42 -1 -72 -6 -72 -12 0 -6 -3 -7
-7 -4 -3 4 2 16 12 27 16 18 26 20 79 14 34 -4 63 -8 65 -10z m1131 -31 c0
-27 3 -65 6 -85 6 -36 5 -38 -20 -38 -15 0 -36 -9 -48 -20 -22 -20 -68 -28
-68 -11 0 5 10 13 23 17 31 10 66 37 67 51 0 21 -48 46 -80 41 -16 -3 -30 -1
-30 3 0 4 -8 9 -17 12 -13 3 -8 8 18 20 38 17 56 42 36 51 -7 2 16 5 51 5 l62
1 0 -47z m100 32 c0 -14 12 -19 33 -16 4 0 7 -7 7 -16 0 -13 -3 -14 -12 -5
-20 20 -28 14 -28 -23 0 -32 -2 -35 -30 -35 -25 0 -31 -5 -39 -32 -8 -27 -9
-17 -10 55 l-1 87 40 0 c29 0 40 -4 40 -15z m-2020 -5 c0 -5 -2 -10 -4 -10 -3
0 -8 5 -11 10 -3 6 -1 10 4 10 6 0 11 -4 11 -10z m1045 0 c-46 -12 -245 -12
-245 0 0 6 52 10 138 9 85 -1 126 -4 107 -9z m158 3 c-24 -2 -62 -2 -85 0 -24
2 -5 4 42 4 47 0 66 -2 43 -4z m17 -32 c-9 -18 -20 -21 -75 -21 -50 0 -65 3
-65 14 0 16 18 20 98 24 51 3 53 2 42 -17z m69 10 c18 -11 5 -31 -20 -31 -18
0 -26 20 -12 33 8 9 15 9 32 -2z m-502 -24 c0 -7 -18 -13 -41 -14 -34 -1 -37
0 -16 7 l25 8 -27 1 c-16 1 -28 -3 -28 -9 0 -5 -10 -10 -22 -10 -22 -1 -22 -1
-4 -12 11 -6 41 -10 68 -9 26 1 48 -3 48 -8 0 -15 -23 -19 -77 -11 -41 5 -53
3 -53 -7 0 -7 6 -13 14 -13 8 0 17 -4 20 -9 4 -5 -3 -7 -13 -4 -14 4 -21 -1
-24 -19 -2 -12 -5 11 -6 52 l-1 75 68 -3 c44 -2 69 -8 69 -15z m283 8 c0 -11
-14 -15 -57 -17 -192 -6 -212 -5 -210 6 2 13 70 22 185 24 67 2 82 -1 82 -13z
m-1025 -25 l-30 -8 30 -2 c17 -2 36 -4 42 -4 7 -1 13 -6 12 -11 0 -6 10 -13
23 -17 50 -14 -37 -8 -101 7 -35 9 -66 13 -69 10 -3 -3 -7 -77 -9 -165 l-4
-160 43 0 43 0 -29 -15 c-15 -8 -39 -15 -52 -15 -24 0 -24 2 -24 93 -1 50 -1
126 -1 167 -1 140 -10 126 79 127 55 1 68 -1 47 -7z m1140 -19 c-8 -14 -105
-15 -105 -2 0 6 24 11 53 13 60 3 61 3 52 -11z m75 -1 c-16 -11 -40 -13 -40
-5 0 8 44 24 50 18 2 -2 -2 -8 -10 -13z m-190 0 c0 -6 -32 -10 -75 -10 -43 0
-75 4 -75 10 0 6 32 10 75 10 43 0 75 -4 75 -10z m1177 -72 c-2 -13 -4 -3 -4
22 0 25 2 35 4 23 2 -13 2 -33 0 -45z m-750 10 c-3 -8 -6 -5 -6 6 -1 11 2 17
5 13 3 -3 4 -12 1 -19z m-750 6 c-3 -3 -12 -4 -19 -1 -8 3 -5 6 6 6 11 1 17
-2 13 -5z m93 -24 c0 -5 -7 -10 -15 -10 -8 0 -15 5 -15 10 0 6 7 10 15 10 8 0
15 -4 15 -10z m-657 -7 c-9 -3 -10 -10 -4 -22 8 -15 6 -17 -20 -13 -28 4 -40
-10 -19 -23 17 -11 1 -23 -23 -18 -18 4 -19 3 -7 -6 10 -7 11 -11 3 -11 -7 0
-13 -7 -13 -15 0 -8 -4 -15 -10 -15 -5 0 -9 21 -9 48 1 78 4 82 62 81 29 0 46
-3 40 -6z m277 -4 c0 -5 4 -8 9 -5 5 3 11 -3 14 -14 7 -26 4 -25 -29 5 -20 19
-23 25 -10 25 9 0 16 -5 16 -11z m-207 -24 c-5 -16 -2 -17 74 -19 31 -1 43 -5
44 -16 1 -8 2 -27 3 -42 2 -19 -2 -28 -11 -28 -8 0 -12 4 -9 9 7 11 -60 20
-76 10 -7 -5 -16 -3 -20 4 -6 9 -8 9 -8 0 0 -7 -7 -13 -15 -13 -8 0 -16 6 -16
13 -6 49 -2 73 11 79 12 5 10 7 -5 8 l-20 1 20 8 c25 10 36 5 28 -14z m384 3
c-3 -8 -6 -5 -6 6 -1 11 2 17 5 13 3 -3 4 -12 1 -19z m860 -40 c-2 -13 -4 -3
-4 22 0 25 2 35 4 23 2 -13 2 -33 0 -45z m430 40 c-3 -8 -6 -5 -6 6 -1 11 2
17 5 13 3 -3 4 -12 1 -19z m119 -105 c-3 -8 -9 -12 -14 -9 -9 5 -7 62 4 107 8
32 9 30 12 -25 2 -32 1 -65 -2 -73z m-1346 67 c0 -4 -6 -13 -13 -19 -10 -8
-14 -7 -14 2 0 7 -3 26 -6 42 l-7 30 20 -24 c11 -13 20 -27 20 -31z m1070 46
c0 -2 -7 -9 -15 -16 -12 -10 -15 -10 -15 4 0 9 7 16 15 16 8 0 15 -2 15 -4z
m465 -6 c-3 -5 -12 -10 -18 -10 -7 0 -6 4 3 10 19 12 23 12 15 0z m-1780 -80
c4 -6 -8 -10 -29 -10 -32 0 -36 3 -36 25 0 25 1 25 29 10 17 -8 33 -19 36 -25z
m1175 22 c0 -17 -39 -44 -56 -40 -16 3 -16 6 6 26 24 22 50 29 50 14z m-1451
-18 c6 4 11 1 11 -6 0 -8 -9 -14 -20 -15 -14 -1 -20 4 -20 20 0 16 3 19 9 8 5
-7 14 -10 20 -7z m2058 10 c-3 -3 -12 -4 -19 -1 -8 3 -5 6 6 6 11 1 17 -2 13
-5z m-597 -24 c0 -5 -4 -10 -10 -10 -5 0 -10 5 -10 10 0 6 5 10 10 10 6 0 10
-4 10 -10z m-992 -12 c7 -7 12 -17 12 -22 0 -6 -4 -5 -9 3 -5 7 -14 10 -20 7
-18 -11 -13 -24 12 -29 21 -4 20 -4 -3 -5 -14 -1 -32 3 -40 8 -12 7 -12 10 -1
10 7 0 11 6 8 14 -5 13 4 22 24 25 3 1 10 -4 17 -11z m-175 -5 c-7 -2 -21 -2
-30 0 -10 3 -4 5 12 5 17 0 24 -2 18 -5z m-359 -34 c-3 -5 0 -9 5 -9 6 0 11 7
11 15 0 8 5 15 10 15 6 0 10 -7 10 -15 0 -8 -4 -16 -10 -16 -27 -5 -35 -3 -35
6 0 6 -4 17 -10 25 -8 13 -7 13 8 1 9 -7 14 -17 11 -22z m76 1 c0 -20 -5 -30
-15 -30 -10 0 -15 10 -15 30 0 20 5 30 15 30 10 0 15 -10 15 -30z m84 6 c-8
-32 11 -66 39 -67 12 -1 4 -6 -21 -12 -55 -13 -82 8 -82 65 0 37 1 38 35 38
32 0 35 -2 29 -24z m98 -21 c-2 -14 -8 -25 -12 -25 -4 0 -7 11 -7 25 0 14 5
25 12 25 8 0 10 -9 7 -25z m126 17 c15 -5 16 -28 0 -38 -7 -5 -8 -3 -3 7 8 12
6 12 -8 0 -14 -11 -17 -11 -18 0 0 10 -2 11 -6 2 -2 -7 -11 -13 -19 -13 -8 0
-14 6 -15 13 0 10 -2 10 -6 0 -7 -20 -33 -15 -33 5 0 10 3 22 7 26 7 7 79 6
101 -2z m732 -2 c0 -5 -5 -10 -11 -10 -5 0 -7 5 -4 10 3 6 8 10 11 10 2 0 4
-4 4 -10z m274 -52 c-4 -7 -6 -46 -5 -88 2 -41 3 -94 3 -118 -1 -24 3 -40 8
-37 6 4 10 -1 10 -10 0 -9 -4 -13 -10 -10 -5 3 -10 -1 -10 -10 0 -10 5 -14 13
-10 6 4 3 -1 -8 -11 -16 -13 -17 -16 -3 -11 18 7 34 -8 19 -17 -4 -3 -7 -19
-5 -36 2 -19 0 -29 -6 -25 -6 3 -10 -1 -10 -9 0 -9 7 -16 15 -16 8 0 15 -7 15
-16 0 -10 -6 -14 -15 -10 -9 3 -15 0 -15 -10 0 -8 5 -12 10 -9 16 10 12 -11
-5 -25 -13 -11 -15 -1 -15 79 l0 91 -37 1 c-21 1 -41 1 -45 0 -5 0 -8 25 -8
57 0 55 1 58 26 60 14 1 33 7 42 12 13 8 6 9 -25 5 -35 -6 -43 -4 -43 9 0 9 6
16 13 17 10 0 10 2 0 6 -8 3 -13 23 -13 47 0 41 1 43 40 55 22 6 44 21 50 31
6 11 13 20 16 20 3 0 2 -5 -2 -12z m-1083 -24 c20 2 43 0 50 -5 9 -6 -7 -9
-43 -9 -49 0 -58 3 -58 18 0 11 3 13 8 5 4 -7 23 -10 43 -9z m1174 -5 c-8 -12
23 -49 42 -49 20 0 16 -16 -9 -34 l-23 -16 26 9 c15 6 31 6 40 0 10 -6 7 -9
-13 -9 -15 0 -38 -4 -52 -10 l-26 -10 0 65 c0 39 4 65 11 65 5 0 7 -5 4 -11z
m409 -81 c8 -116 4 -338 -6 -338 -5 0 -15 0 -23 0 -9 0 -20 11 -25 25 -5 14
-15 25 -22 26 -7 0 -4 4 7 9 11 5 14 9 6 9 -7 1 -11 7 -8 15 4 11 -4 14 -31
14 -76 -1 -92 2 -92 17 0 10 10 15 30 15 28 0 30 2 30 40 0 27 -6 42 -17 49
-17 10 -17 10 0 11 13 0 17 9 17 39 0 33 -4 40 -22 43 -21 3 -20 5 12 25 l35
23 -47 -6 c-47 -7 -48 -6 -48 20 0 15 7 29 15 32 8 4 13 9 11 13 -3 4 35 8 84
10 l88 2 6 -93z m184 86 c22 -6 22 -6 22 -231 l0 -225 -22 6 c-13 3 -44 6 -70
6 -39 0 -48 3 -49 18 0 10 -3 12 -6 5 -2 -7 -11 -13 -19 -13 -11 0 -14 21 -15
103 -1 56 -3 155 -5 220 l-4 117 73 0 c39 0 82 -3 95 -6z m-408 -49 c0 -21 -5
-25 -30 -26 -16 -1 -36 -2 -42 -3 -7 -1 -19 2 -26 7 -9 8 0 15 35 28 63 23 63
23 63 -6z m-1041 1 c49 10 51 10 51 -11 0 -21 -4 -22 -71 -18 -50 2 -68 0 -63
-8 5 -8 1 -8 -14 0 -34 18 -45 14 -38 -16 4 -16 7 -64 7 -108 0 -44 3 -72 6
-62 6 23 18 22 20 -2 1 -11 -4 -22 -12 -24 -7 -3 -16 -24 -20 -46 -14 -87 -25
-35 -25 122 l0 162 42 0 c26 0 43 6 46 14 4 11 6 11 13 0 6 -10 18 -11 58 -3z
m328 -10 c-5 -14 -87 -26 -87 -12 0 6 -5 5 -12 -2 -11 -11 -48 -17 -48 -8 0 2
-3 11 -6 19 -4 12 9 14 76 14 55 0 80 -3 77 -11z m139 1 c4 -4 -8 -7 -27 -8
-19 0 -42 -2 -53 -4 -23 -4 -47 5 -41 15 6 10 111 8 121 -3z m133 -4 c0 -10 2
-87 4 -171 3 -109 1 -152 -7 -149 -13 4 -13 4 -15 118 -1 82 -3 90 -17 79 -21
-19 -15 7 9 34 23 26 22 40 -3 33 -11 -3 -22 -1 -25 4 -3 4 -11 6 -18 4 -7 -2
-28 -1 -47 4 l-35 8 39 16 c21 10 44 17 52 17 7 0 16 5 19 10 11 17 44 11 44
-7z m-1369 -93 c0 -54 -5 -99 -12 -111 -10 -17 -10 -23 0 -26 17 -6 15 -23 -3
-23 -26 0 -35 37 -35 144 l0 106 25 0 c25 0 25 -1 25 -90z m573 83 c-7 -2 -19
-2 -25 0 -7 3 -2 5 12 5 14 0 19 -2 13 -5z m-503 -129 c0 -103 -2 -114 -15
-100 -24 24 -18 235 6 220 5 -3 9 -57 9 -120z m112 86 c11 0 10 -28 -2 -32
-11 -4 -25 -90 -22 -130 3 -33 21 -18 25 20 3 31 4 28 5 -15 2 -42 -2 -55 -19
-66 -13 -9 -16 -17 -10 -22 19 -11 13 -45 -9 -45 -17 0 -20 7 -20 41 0 29 3
38 13 33 9 -6 9 -4 -1 8 -7 8 -10 22 -6 31 3 8 1 18 -5 22 -6 3 -11 -1 -11
-10 0 -24 -20 -7 -22 18 0 12 -4 2 -8 -23 -5 -33 -7 -17 -8 65 -2 113 5 142
30 132 8 -3 21 -1 29 4 10 6 17 3 23 -11 5 -11 13 -20 18 -20z m383 16 c7 3
16 1 20 -5 6 -10 -8 -16 -29 -12 -4 1 -13 -5 -20 -13 -7 -10 -31 -16 -63 -17
-29 -2 -53 -7 -53 -12 0 -5 -6 -4 -14 2 -11 9 -15 9 -19 -1 -4 -9 -6 -7 -6 4
-1 9 -3 22 -6 30 -4 10 12 12 80 10 77 -3 85 -2 86 15 0 10 3 13 5 6 3 -7 11
-10 19 -7z m255 -6 c0 -5 -23 -10 -51 -10 -31 0 -48 4 -44 10 3 6 26 10 51 10
24 0 44 -4 44 -10z m280 2 c0 -9 -150 -6 -158 3 -3 3 31 5 76 5 45 0 82 -4 82
-8z m109 4 c-8 -8 -88 -10 -95 -3 -4 4 17 7 46 7 29 0 51 -2 49 -4z m-849 -32
c0 -12 -7 -15 -25 -12 -14 3 -25 1 -25 -3 0 -5 7 -9 15 -9 11 0 14 -7 9 -25
-5 -19 -2 -25 10 -25 19 0 22 -40 4 -58 -9 -9 -9 -12 0 -12 7 0 12 -4 12 -8 0
-5 -14 -6 -32 -4 -30 5 -31 6 -10 13 12 5 22 13 22 19 0 13 -13 13 -27 -1 -8
-8 -12 9 -15 65 l-3 76 33 0 c23 0 32 -5 32 -16z m1416 1 c-3 -9 0 -15 9 -15
9 0 15 -10 15 -25 0 -24 -9 -29 -47 -28 -7 1 -10 -4 -6 -10 4 -6 0 -8 -8 -5
-8 3 -23 2 -34 -3 -17 -6 -17 -8 -2 -8 12 -1 17 -9 17 -31 0 -20 5 -30 15 -30
8 0 15 -5 15 -11 0 -5 -5 -7 -11 -3 -8 4 -9 -1 -4 -17 7 -22 7 -22 -9 -6 -10
9 -27 17 -39 17 -13 0 -31 9 -40 21 -10 11 -21 18 -25 14 -3 -3 0 -10 7 -14 9
-6 10 -11 2 -15 -17 -11 -22 14 -19 94 l3 73 35 -28 c19 -16 32 -25 27 -20
-13 15 44 65 76 65 22 0 28 -4 23 -15z m-620 -22 c-10 -10 -19 5 -10 18 6 11
8 11 12 0 2 -7 1 -15 -2 -18z m-566 7 c0 -5 -4 -10 -10 -10 -5 0 -10 5 -10 10
0 6 5 10 10 10 6 0 10 -4 10 -10z m483 3 c-7 -2 -21 -2 -30 0 -10 3 -4 5 12 5
17 0 24 -2 18 -5z m-286 -47 c-8 -20 -36 -21 -43 -1 -4 8 0 22 7 31 11 13 14
13 27 0 8 -8 12 -22 9 -30z m278 24 c3 -6 -1 -7 -9 -4 -18 7 -21 14 -7 14 6 0
13 -4 16 -10z m72 -54 c-4 -9 -11 -16 -17 -16 -11 0 -14 53 -3 64 11 10 27
-30 20 -48z m-917 23 c0 -11 -4 -18 -10 -14 -5 3 -7 12 -3 20 7 21 13 19 13
-6z m223 14 c-7 -2 -21 -2 -30 0 -10 3 -4 5 12 5 17 0 24 -2 18 -5z m1432 -33
c10 0 15 -11 15 -35 0 -32 -2 -35 -27 -34 -24 2 -25 2 -5 6 29 6 31 49 2 58
-11 3 -20 14 -20 23 1 16 2 15 11 0 5 -10 17 -18 24 -18z m-1400 0 c3 -5 1
-10 -4 -10 -6 0 -11 -7 -11 -15 0 -9 -9 -15 -24 -15 -16 0 -23 -5 -22 -17 0
-10 -6 -19 -15 -20 -12 -3 -16 6 -17 40 l-3 44 45 1 c25 1 48 -2 51 -8z m64
-67 c-1 -32 -4 -48 -6 -35 -2 12 -9 22 -16 22 -8 0 -8 3 1 12 7 7 12 22 12 35
0 13 2 23 5 23 3 0 4 -26 4 -57z m669 6 c11 0 6 -5 -11 -13 -16 -7 -32 -19
-37 -26 -10 -16 -43 -5 -38 13 3 6 14 13 26 15 17 3 22 11 23 35 l1 32 10 -27
c5 -16 17 -28 26 -29z m-51 19 c-3 -8 -6 -5 -6 6 -1 11 2 17 5 13 3 -3 4 -12
1 -19z m60 0 c-3 -8 -6 -5 -6 6 -1 11 2 17 5 13 3 -3 4 -12 1 -19z m-502 -29
c-4 -5 -2 -16 5 -24 9 -11 7 -12 -7 -9 -15 4 -18 13 -15 41 4 28 6 33 14 19 5
-9 6 -21 3 -27z m105 -47 c0 -4 -11 -9 -25 -10 -14 -1 -25 3 -25 8 0 6 11 10
25 10 14 0 25 -4 25 -8z m627 -31 c0 -22 -5 -37 -9 -35 -10 6 -7 74 3 74 4 0
7 -18 6 -39z m-916 -4 c-10 -9 -11 -8 -5 6 3 10 9 15 12 12 3 -3 0 -11 -7 -18z
m-390 -70 c-10 -9 -11 -8 -5 6 3 10 9 15 12 12 3 -3 0 -11 -7 -18z m1619 3 c0
-5 -7 -10 -15 -10 -8 0 -15 5 -15 10 0 6 7 10 15 10 8 0 15 -4 15 -10z m43 -7
c-7 -2 -19 -2 -25 0 -7 3 -2 5 12 5 14 0 19 -2 13 -5z m-1325 -28 c-3 -3 -9 2
-12 12 -6 14 -5 15 5 6 7 -7 10 -15 7 -18z m1552 5 c0 -6 -29 -10 -67 -9 -50
1 -61 3 -43 9 36 12 110 12 110 0z m55 0 c3 -5 -1 -10 -10 -10 -9 0 -13 5 -10
10 3 6 8 10 10 10 2 0 7 -4 10 -10z m168 -47 c-34 -2 -93 -2 -130 0 -37 2 -9
3 62 3 72 0 102 -1 68 -3z m-290 -10 c-40 -2 -107 -2 -150 0 -43 1 -10 3 72 3
83 0 118 -2 78 -3z m-380 -10 c-13 -2 -33 -2 -45 0 -13 2 -3 4 22 4 25 0 35
-2 23 -4z"/>
<path d="M1741 568 c-1 -45 1 -48 24 -48 22 0 24 3 18 33 -8 43 -13 47 -14 11
0 -27 -1 -26 -14 11 l-13 40 -1 -47z"/>
<path d="M2200 650 c-13 -8 -13 -10 2 -10 9 0 23 -3 32 -6 9 -3 16 -1 16 6 0
6 -4 8 -10 5 -5 -3 -10 -1 -10 4 0 13 -10 14 -30 1z"/>
<path d="M2188 583 c6 -2 18 -2 25 0 6 3 1 5 -13 5 -14 0 -19 -2 -12 -5z"/>
<path d="M2229 548 c-3 -22 -1 -34 4 -29 5 5 7 21 5 37 -3 27 -4 26 -9 -8z"/>
<path d="M2180 550 c0 -13 7 -20 20 -20 13 0 20 7 20 20 0 13 -7 20 -20 20
-13 0 -20 -7 -20 -20z"/>
<path d="M2200 489 c0 -5 5 -7 10 -4 6 3 10 8 10 11 0 2 -4 4 -10 4 -5 0 -10
-5 -10 -11z"/>
<path d="M2440 783 c-48 -8 -102 -24 -97 -29 5 -5 126 22 135 30 6 6 4 6 -38
-1z"/>
<path d="M2362 430 c0 -14 2 -19 5 -12 2 6 2 18 0 25 -3 6 -5 1 -5 -13z"/>
<path d="M2477 379 c7 -7 15 -10 18 -7 3 3 -2 9 -12 12 -14 6 -15 5 -6 -5z"/>
<path d="M1840 1750 c0 -11 4 -20 9 -20 11 0 22 26 14 34 -12 12 -23 5 -23
-14z"/>
<path d="M87 1656 c-4 -10 -1 -13 9 -9 15 6 19 23 5 23 -5 0 -11 -7 -14 -14z"/>
<path d="M2161 1564 c0 -11 3 -14 6 -6 3 7 2 16 -1 19 -3 4 -6 -2 -5 -13z"/>
<path d="M1395 1509 c-67 -5 -66 -6 33 -7 56 -1 102 2 102 6 0 9 -32 10 -135
1z"/>
<path d="M2060 1488 c0 -5 -5 -6 -12 -2 -8 5 -9 2 -5 -10 4 -10 7 -22 7 -27 0
-6 5 -7 10 -4 6 3 10 0 11 -7 0 -7 4 -3 9 10 5 12 14 22 21 22 6 0 9 6 7 13
-5 14 -48 19 -48 5z"/>
<path d="M843 1080 c-1 -11 2 -20 8 -20 5 0 9 9 9 20 0 11 -4 20 -8 20 -4 0
-8 -9 -9 -20z"/>
</g>
</svg>
