<?xml version="1.0" standalone="no"?>
<!DOCTYPE svg PUBLIC "-//W3C//DTD SVG 20010904//EN"
 "http://www.w3.org/TR/2001/REC-SVG-20010904/DTD/svg10.dtd">
<svg version="1.0" xmlns="http://www.w3.org/2000/svg"
 width="300.000000pt" height="168.000000pt" viewBox="0 0 300.000000 168.000000"
 preserveAspectRatio="xMidYMid meet">

<g transform="translate(0.000000,168.000000) scale(0.100000,-0.100000)"
fill="#000000" stroke="none">
<path d="M106 1624 c-55 -20 -106 -53 -106 -69 0 -9 18 -2 50 20 93 62 202 67
306 14 l39 -20 -25 20 c-57 47 -186 64 -264 35z"/>
<path d="M456 1509 c69 -75 125 -182 153 -290 11 -41 20 -64 20 -51 1 40 -48
174 -89 242 -21 36 -62 88 -91 115 l-53 50 60 -66z"/>
<path d="M2340 1419 c-210 -34 -259 -44 -288 -60 -18 -11 -45 -19 -60 -20 -15
0 -21 -3 -15 -6 11 -4 293 32 428 54 22 4 43 6 48 5 4 -1 7 7 7 18 0 23 -23
24 -120 9z"/>
<path d="M2899 1164 c0 -148 0 -365 1 -481 1 -133 -3 -213 -9 -213 -14 0 -17
36 -8 125 8 87 0 373 -13 445 -5 28 -8 -43 -8 -190 -1 -292 -2 -302 -24 -296
-10 2 -18 0 -18 -5 0 -5 5 -9 10 -9 6 0 10 -9 10 -20 0 -11 -7 -20 -15 -20
-12 0 -15 20 -16 113 -1 79 -4 100 -9 72 -4 -23 -8 43 -9 158 0 111 3 197 8
197 5 0 8 22 8 50 -1 27 -5 50 -9 50 -5 0 -9 15 -9 33 -2 33 -18 -149 -19
-213 -1 -19 1 -96 4 -170 3 -74 1 -121 -3 -105 -7 29 -8 29 -14 -15 -4 -25 -8
-58 -10 -75 -6 -50 -10 116 -7 355 1 124 -1 222 -5 218 -4 -4 -7 -60 -7 -125
0 -65 -3 -109 -8 -98 -5 13 -9 -8 -14 -62 -3 -46 -9 -120 -13 -165 l-7 -83 -7
50 c-4 28 -8 120 -10 205 -1 85 -4 135 -6 110 -3 -31 -7 -40 -14 -30 -9 15
-14 -136 -13 -360 1 -58 -1 -84 -3 -57 -2 26 -8 45 -14 42 -5 -4 -8 36 -7 102
1 81 3 97 8 63 4 -26 7 26 7 125 -1 162 -1 165 -7 55 -7 -125 -13 -108 -14 37
-1 59 -5 96 -13 104 -11 11 -13 8 -13 -13 0 -15 3 -28 8 -30 11 -5 -3 -429
-16 -458 -9 -21 -11 -12 -13 60 l-3 85 -7 -80 c-4 -51 -5 -13 -4 105 2 102 -2
266 -9 365 l-12 180 -1 -405 c-1 -392 4 -458 28 -418 7 11 12 11 30 0 18 -12
23 -12 30 0 7 10 9 8 9 -7 0 -15 3 -17 9 -7 6 11 10 10 15 -5 6 -13 -6 -30
-51 -69 -54 -49 -58 -51 -65 -31 -5 18 -6 16 -7 -9 -1 -17 -8 -37 -16 -44 -21
-17 -29 -6 -15 20 16 30 7 46 -39 70 -22 11 -45 29 -50 39 -10 18 -8 19 30 14
l40 -6 -2 159 c-2 159 -9 217 -24 182 -8 -20 -32 -13 -38 10 -3 10 -6 -21 -7
-68 -1 -68 -4 -79 -11 -55 -5 17 -10 54 -11 83 -2 45 -5 52 -23 52 -17 0 -20
-6 -19 -42 1 -24 -2 -61 -6 -83 -6 -33 -8 -25 -9 43 -1 51 -5 82 -12 82 -6 0
-8 -8 -6 -17 3 -10 2 -38 -3 -63 -4 -28 -9 76 -11 275 -1 176 -4 290 -6 253
l-4 -68 -52 -1 c-29 -1 -79 -5 -112 -9 -43 -6 -29 -7 49 -3 l108 6 -3 -369
c-4 -318 -6 -371 -19 -381 -31 -23 -208 -45 -196 -24 4 5 -9 6 -29 1 -19 -4
-37 -5 -40 -1 -7 12 57 31 105 31 103 2 130 5 130 17 0 6 -13 14 -30 18 -16 4
-30 11 -30 16 0 6 -9 7 -20 4 -12 -4 -27 -2 -33 4 -7 5 -38 11 -70 12 -65 3
-75 19 -28 44 16 8 32 20 34 27 4 10 8 9 16 -2 7 -10 14 -11 19 -4 15 22 93
54 117 48 21 -5 26 0 40 33 11 27 14 52 10 85 -6 44 -9 48 -41 54 -19 3 -49 3
-67 0 -17 -4 -41 -7 -52 -7 -11 0 -36 -5 -56 -11 -29 -8 -35 -14 -32 -29 3
-11 0 -19 -6 -19 -6 0 -11 11 -11 25 0 26 -35 43 -66 31 -12 -5 -15 -2 -10 9
3 9 2 13 -4 10 -6 -3 -10 -13 -10 -21 0 -9 -5 -12 -11 -8 -6 3 -15 0 -20 -7
-6 -10 -9 -1 -10 26 l-1 40 -8 -33 c-8 -34 -20 -54 -20 -34 0 6 -7 9 -17 5
-14 -5 -15 -1 -9 27 6 32 5 33 -8 15 -15 -20 -15 -20 -16 0 0 15 -2 17 -9 6
-5 -7 -6 -23 -4 -35 4 -15 2 -17 -5 -7 -8 11 -10 11 -15 0 -3 -8 -6 2 -6 23
l-1 36 -67 0 c-53 0 -69 -4 -75 -17 -6 -15 -7 -15 -7 0 -1 21 -49 29 -100 18
-20 -5 -49 -11 -66 -15 -16 -3 -36 -14 -43 -23 -7 -9 -16 -15 -20 -15 -4 1
-11 0 -17 -2 -5 -1 -19 -4 -30 -6 -10 -2 -22 -14 -26 -28 -5 -18 -7 -11 -8 28
l-1 52 -37 0 c-25 0 -33 -3 -25 -9 10 -6 9 -10 -7 -14 -12 -3 -19 -2 -16 3 2
4 -19 10 -48 14 -78 9 -97 7 -97 -8 0 -10 -7 -12 -22 -8 -18 4 -20 2 -16 -16
5 -17 2 -22 -13 -22 -10 0 -19 -4 -19 -10 0 -5 7 -7 15 -4 8 4 15 2 15 -4 0
-16 -31 -8 -41 11 -7 11 -4 19 8 27 16 10 15 10 -4 5 -25 -7 -30 4 -11 24 11
10 9 11 -6 5 -11 -4 -21 -2 -27 7 -8 12 -10 12 -18 -1 -5 -8 -7 -18 -5 -22 3
-5 2 -8 -3 -7 -19 3 -33 -2 -33 -12 0 -7 11 -8 30 -4 26 6 30 4 27 -14 -2 -11
-7 -24 -12 -28 -4 -5 -5 -2 0 6 5 9 4 12 -3 7 -6 -3 -9 -15 -7 -26 2 -11 -1
-20 -6 -20 -6 0 -7 -5 -4 -10 4 -7 13 -6 27 1 16 9 19 8 16 -3 -3 -7 -11 -13
-19 -13 -7 0 -15 -9 -17 -20 -6 -31 -48 -66 -69 -58 -10 4 -2 -7 16 -24 33
-29 34 -32 22 -61 -19 -47 -37 -58 -59 -39 -10 9 -35 23 -55 32 -36 15 -38 17
-31 53 4 20 11 47 15 60 7 19 3 28 -28 55 -20 18 -45 36 -57 40 -23 10 -145 0
-181 -13 -29 -11 -65 -61 -69 -97 -2 -15 -7 -40 -11 -54 -4 -17 -1 -38 9 -57
21 -41 20 -45 -6 -36 -21 6 -21 6 -5 -10 20 -20 23 -79 4 -94 -10 -8 -72 -23
-112 -27 -23 -2 -22 21 2 62 14 25 22 50 19 60 -5 13 -11 8 -27 -23 -39 -78
-38 -78 -106 -47 -56 26 -63 33 -92 93 -17 36 -31 70 -31 75 0 6 -9 21 -20 35
l-20 25 0 -97 c0 -90 2 -98 19 -98 29 0 35 -18 9 -23 -13 -2 -3 -5 22 -6 l45
-1 -25 -20 c-14 -10 -34 -20 -45 -22 -18 -3 -20 -12 -23 -111 -3 -103 -2 -108
16 -103 40 13 185 35 193 30 19 -12 -4 -23 -74 -35 -39 -7 -65 -14 -56 -16 9
-2 44 2 77 10 37 8 63 10 64 5 2 -6 15 0 28 12 14 12 19 19 12 15 -6 -3 -12 0
-12 7 0 8 19 19 48 25 46 11 198 66 236 85 16 8 18 7 13 -7 -4 -9 -3 -13 3
-10 5 3 8 -3 7 -14 0 -11 -6 -17 -14 -14 -7 3 -13 0 -13 -5 0 -6 23 -12 52
-14 49 -3 51 -4 34 -21 -10 -9 -13 -17 -8 -17 5 0 17 11 26 25 14 22 45 38 32
17 -3 -5 -7 -21 -10 -36 -4 -22 -2 -27 10 -22 9 3 20 6 25 6 6 0 8 4 4 9 -8
13 12 24 28 14 15 -9 59 -5 71 8 13 12 0 23 -16 13 -41 -26 -71 -10 -79 41 -2
11 -8 23 -12 26 -5 3 -2 13 7 21 8 9 12 19 8 23 -4 4 10 5 30 2 24 -4 39 -1
42 6 3 9 5 9 5 0 1 -9 24 -13 80 -13 94 0 172 -14 224 -39 l37 -19 98 34 c53
19 125 39 160 45 56 10 62 13 62 35 0 18 -5 24 -22 24 -17 0 -20 3 -9 9 11 7
10 10 -5 13 -14 4 -10 7 16 14 l34 10 19 104 c19 107 22 118 33 107 5 -5 -38
-272 -52 -320 -5 -15 -1 -17 23 -11 44 10 64 26 24 18 -29 -5 -33 -4 -28 11 4
9 7 25 7 36 0 13 7 19 23 20 16 1 18 2 5 6 -29 7 -22 36 7 31 21 -5 25 -1 31
28 8 44 24 33 24 -17 0 -24 5 -39 13 -40 6 0 3 -4 -8 -9 -34 -15 0 -11 45 5
23 8 53 15 66 15 16 0 22 5 18 14 -3 8 3 16 15 19 18 4 21 0 21 -23 0 -26 -4
-29 -78 -49 -43 -12 -84 -21 -90 -21 -7 0 -12 -4 -12 -10 0 -12 -9 -14 85 15
44 14 83 25 88 25 15 0 6 -29 -10 -33 -13 -3 -12 -5 5 -6 18 -1 23 -6 20 -23
-2 -17 -22 -28 -105 -57 -56 -19 -98 -38 -92 -41 5 -4 -18 -14 -51 -23 -33
-10 -60 -21 -60 -25 0 -10 -45 -32 -63 -31 -7 0 -1 5 12 10 36 14 18 23 -21
10 -23 -8 -56 -8 -108 -1 -100 13 -139 11 -70 -4 l55 -12 -58 -14 c-43 -10
-67 -23 -90 -48 -33 -35 -105 -78 -115 -68 -3 3 -1 6 4 6 6 0 19 7 30 15 15
12 11 12 -19 -2 -20 -9 -37 -20 -37 -24 0 -13 610 -11 625 1 9 8 15 8 20 0 4
-7 227 -10 701 -10 l694 0 -2 243 c0 133 -4 222 -7 197 -5 -35 -11 -46 -26
-48 -12 -2 -16 0 -9 5 7 4 13 41 14 83 4 121 -3 154 -10 45 -6 -100 -6 -99 -8
48 -1 104 1 147 9 147 8 0 9 21 4 73 -4 39 -7 92 -7 117 1 25 -5 59 -12 75
-13 27 -14 19 -13 -90 2 -232 -3 -448 -10 -441 -4 3 -8 223 -10 488 -1 265 -5
483 -8 486 -3 3 -5 -116 -6 -264z m-1359 -356 c0 -9 4 -8 10 2 7 11 8 5 3 -20
-3 -19 -15 -42 -25 -51 -25 -22 -23 -29 8 -29 18 0 25 4 21 14 -8 21 31 27
121 20 42 -3 95 -7 117 -9 22 -2 42 -4 45 -5 3 -1 10 -2 15 -1 6 1 2 -5 -7
-15 -18 -19 -5 -20 -213 16 -53 9 -69 5 -45 -10 12 -8 11 -10 -7 -10 -13 0
-24 -8 -28 -20 -7 -21 -9 -21 -170 -4 -58 6 -85 18 -70 33 9 9 87 18 173 20
16 1 22 7 22 25 0 31 10 56 21 56 5 0 9 -6 9 -12z m97 -10 c-3 -8 -6 -5 -6 6
-1 11 2 17 5 13 3 -3 4 -12 1 -19z m20 0 c-3 -8 -6 -5 -6 6 -1 11 2 17 5 13 3
-3 4 -12 1 -19z m-234 -5 c-7 -2 -21 -2 -30 0 -10 3 -4 5 12 5 17 0 24 -2 18
-5z m1534 -15 c-3 -8 -6 -5 -6 6 -1 11 2 17 5 13 3 -3 4 -12 1 -19z m-1767
-18 c0 -5 -2 -10 -4 -10 -3 0 -8 5 -11 10 -3 6 -1 10 4 10 6 0 11 -4 11 -10z
m148 -7 c-10 -2 -26 -2 -35 0 -10 3 -2 5 17 5 19 0 27 -2 18 -5z m552 -13 c0
-5 -2 -10 -4 -10 -3 0 -8 5 -11 10 -3 6 -1 10 4 10 6 0 11 -4 11 -10z m827
-202 c-2 -35 -3 -7 -3 62 0 69 1 97 3 63 2 -35 2 -91 0 -125z m-1262 94 c0
-18 -20 -15 -23 4 -3 10 1 15 10 12 7 -3 13 -10 13 -16z m1322 -44 c-2 -13 -4
-5 -4 17 -1 22 1 32 4 23 2 -10 2 -28 0 -40z m-170 -55 c-3 -10 -5 -2 -5 17 0
19 2 27 5 18 2 -10 2 -26 0 -35z m-1289 -13 c3 -8 11 -22 18 -31 20 -22 23
-94 5 -94 -9 0 -21 23 -31 60 l-17 60 -41 1 c-37 1 -42 -2 -51 -27 -14 -41
-34 -38 -26 4 4 17 9 34 10 37 2 3 31 5 66 5 47 0 63 -4 67 -15z m636 -35 c8
-29 18 -41 36 -46 23 -6 24 -7 6 -14 -13 -6 -21 -4 -24 3 -2 7 -8 12 -14 12
-6 0 -8 -7 -4 -15 4 -10 -3 -17 -22 -21 -15 -3 -40 -10 -56 -15 -16 -5 -35 -9
-42 -9 -15 0 -19 25 -6 33 4 2 1 2 -5 1 -16 -4 -16 -5 -2 35 8 21 16 30 25 27
8 -3 21 -9 31 -13 12 -5 14 -3 9 8 -4 8 4 1 18 -14 19 -21 28 -25 31 -14 8 19
-12 67 -27 67 -9 0 -8 3 2 10 23 15 33 7 44 -35z m-1344 15 c-8 -5 -26 -9 -40
-9 l-25 1 25 8 c14 4 32 8 40 9 13 1 13 0 0 -9z m130 -17 c0 -7 -64 -28 -82
-27 -10 1 -18 -4 -18 -10 0 -6 -5 -4 -10 4 -5 8 -10 10 -10 5 0 -6 -13 -12
-30 -13 -20 -2 -32 4 -39 17 -9 16 -8 19 7 17 9 -2 28 1 42 5 25 8 140 9 140
2z m650 -38 c-14 -36 -22 -28 -14 14 4 19 10 29 16 23 5 -5 4 -20 -2 -37z
m407 23 c-3 -8 -6 -5 -6 6 -1 11 2 17 5 13 3 -3 4 -12 1 -19z m-119 -13 c-3
-3 -9 2 -12 12 -6 14 -5 15 5 6 7 -7 10 -15 7 -18z m628 -17 c11 -13 13 -18 4
-12 -8 5 -19 9 -24 9 -5 0 -11 6 -13 13 -7 19 12 14 33 -10z m-526 -81 c4 -5
5 3 2 18 -4 25 -3 26 17 13 12 -7 24 -21 27 -30 4 -13 13 -17 32 -13 15 3 3
-3 -26 -13 -30 -9 -51 -20 -47 -24 4 -3 32 2 62 13 71 24 95 25 91 2 -4 -25
-38 -42 -70 -36 -40 8 -78 -4 -77 -25 0 -9 3 -12 5 -5 3 7 13 9 22 6 12 -3 13
-2 5 4 -9 6 0 9 25 10 l37 1 -47 -24 c-53 -27 -64 -39 -20 -23 102 38 159 72
177 105 18 34 29 39 75 35 32 -3 45 -15 34 -33 -5 -7 -9 -15 -9 -18 -1 -3 -7
-21 -14 -41 -12 -30 -21 -38 -55 -47 -89 -23 -270 -93 -318 -122 -27 -17 -53
-29 -56 -26 -3 3 0 6 6 6 7 0 12 4 12 9 0 5 -24 14 -52 21 -80 18 -88 21 -88
30 0 9 39 25 53 22 4 -1 7 2 7 6 0 4 25 16 55 27 30 10 55 24 55 32 0 10 4 11
19 2 23 -15 51 -5 51 17 0 12 -5 14 -17 8 -10 -4 -28 -7 -40 -7 -13 1 -23 -3
-23 -9 0 -5 -3 -7 -8 -5 -4 3 -24 -3 -45 -13 -24 -12 -37 -14 -34 -7 2 7 39
25 83 41 l80 30 -2 60 c-2 34 0 50 3 36 2 -14 8 -29 13 -33z m580 32 c9 -16 8
-25 -6 -40 -19 -21 -84 -27 -84 -8 0 6 7 9 14 6 10 -4 13 -1 9 9 -7 19 -10 18
-39 -13 -14 -16 -23 -23 -20 -17 4 7 -10 14 -37 19 l-42 7 85 28 c104 35 107
35 120 9z m-1590 -53 c0 -3 -4 -8 -10 -11 -5 -3 -10 -1 -10 4 0 6 5 11 10 11
6 0 10 -2 10 -4z m1200 -12 c0 -8 -5 -12 -10 -9 -6 4 -8 11 -5 16 9 14 15 11
15 -7z m-1329 -33 c-7 -5 -10 -14 -7 -20 4 -7 -1 -11 -13 -11 -11 0 -24 7 -29
16 -6 10 -12 12 -16 6 -9 -15 22 -35 55 -35 23 0 27 -3 15 -9 -9 -5 -21 -6
-26 -3 -6 3 -15 3 -22 -1 -8 -5 -6 -10 8 -15 17 -7 17 -8 -3 -8 -21 -1 -25 4
-22 25 0 4 -5 10 -11 14 -16 10 -4 46 17 54 9 4 20 1 24 -6 6 -9 10 -8 15 5 5
14 10 15 18 7 8 -8 7 -13 -3 -19z m26 -3 c-3 -8 -6 -5 -6 6 -1 11 2 17 5 13 3
-3 4 -12 1 -19z m921 -94 c-3 -2 -19 -7 -38 -10 -24 -5 -31 -4 -26 4 4 7 16
12 27 12 11 0 23 8 27 18 6 16 7 16 10 -1 2 -10 2 -20 0 -23z m-81 -20 c-3 -3
-12 -4 -19 -1 -8 3 -5 6 6 6 11 1 17 -2 13 -5z m293 -78 c0 -3 -4 -8 -10 -11
-5 -3 -10 -1 -10 4 0 6 5 11 10 11 6 0 10 -2 10 -4z m-124 -61 c-3 -22 -13
-28 -32 -21 -16 6 -15 8 2 21 24 19 33 19 30 0z"/>
<path d="M1888 303 c6 -2 18 -2 25 0 6 3 1 5 -13 5 -14 0 -19 -2 -12 -5z"/>
<path d="M2940 1380 c0 -11 2 -20 4 -20 2 0 6 9 9 20 3 11 1 20 -4 20 -5 0 -9
-9 -9 -20z"/>
<path d="M169 1322 c-5 -13 -8 -172 -7 -365 l3 -341 33 -8 c17 -5 32 -13 32
-18 0 -6 3 -9 8 -9 20 3 42 -2 54 -15 8 -7 28 -17 45 -20 26 -6 32 -4 38 13 4
12 0 30 -9 43 -18 25 -21 42 -6 33 13 -8 -9 44 -28 68 -10 10 -11 17 -4 17 6
0 9 6 6 14 -3 8 -1 17 5 21 6 3 11 21 11 38 0 18 4 48 9 67 5 19 15 125 21
235 7 110 16 205 21 211 7 9 -3 11 -38 9 -26 -1 -79 5 -116 15 l-69 17 -9 -25z"/>
<path d="M1600 1271 c0 -4 11 -6 25 -3 14 2 25 6 25 8 0 2 -11 4 -25 4 -14 0
-25 -4 -25 -9z"/>
<path d="M2641 1264 c0 -11 3 -14 6 -6 3 7 2 16 -1 19 -3 4 -6 -2 -5 -13z"/>
<path d="M1465 1263 c32 -8 47 -24 35 -38 -14 -17 6 -23 45 -14 l30 7 -27 1
c-39 1 -35 26 5 39 29 9 25 10 -38 10 -38 0 -61 -3 -50 -5z"/>
<path d="M862 1203 c-10 -16 -36 -59 -58 -98 l-38 -70 32 30 c32 30 41 41 22
30 -5 -3 -10 -4 -10 -1 0 11 64 111 78 124 9 6 11 12 5 12 -7 0 -20 -12 -31
-27z"/>
<path d="M2872 1180 c0 -14 2 -19 5 -12 2 6 2 18 0 25 -3 6 -5 1 -5 -13z"/>
<path d="M2028 1153 c7 -3 16 -2 19 1 4 3 -2 6 -13 5 -11 0 -14 -3 -6 -6z"/>
<path d="M931 1145 c0 -5 6 -21 14 -35 8 -14 14 -20 14 -15 0 6 -6 21 -14 35
-8 14 -14 21 -14 15z"/>
<path d="M2643 1115 c0 -22 2 -30 4 -17 2 12 2 30 0 40 -3 9 -5 -1 -4 -23z"/>
<path d="M631 1123 c-1 -17 -7 -23 -23 -23 -13 0 -28 -4 -34 -8 -12 -7 -50
-140 -43 -147 5 -4 84 -7 160 -6 l56 1 -16 72 c-9 39 -21 73 -26 74 -6 1 -22
5 -37 8 -17 4 -28 14 -31 29 l-4 22 -2 -22z"/>
<path d="M1728 1113 c6 -2 18 -2 25 0 6 3 1 5 -13 5 -14 0 -19 -2 -12 -5z"/>
<path d="M1633 1103 c9 -2 25 -2 35 0 9 3 1 5 -18 5 -19 0 -27 -2 -17 -5z"/>
<path d="M950 1070 c0 -5 4 -10 9 -10 5 0 13 -9 16 -21 4 -11 9 -19 11 -16 8
7 -15 57 -26 57 -5 0 -10 -4 -10 -10z"/>
<path d="M1624 1055 c1 -8 6 -18 11 -22 4 -4 5 -2 1 5 -5 8 0 12 13 12 12 0
21 5 21 10 0 6 -11 10 -24 10 -16 0 -23 -5 -22 -15z"/>
<path d="M1720 1050 c0 -11 2 -20 4 -20 2 0 6 9 9 20 3 11 1 20 -4 20 -5 0 -9
-9 -9 -20z"/>
<path d="M2835 914 c0 -85 3 -145 7 -132 8 31 8 248 0 270 -4 9 -7 -53 -7
-138z"/>
<path d="M2941 1054 c0 -11 3 -14 6 -6 3 7 2 16 -1 19 -3 4 -6 -2 -5 -13z"/>
<path d="M992 980 c0 -19 2 -27 5 -17 2 9 2 25 0 35 -3 9 -5 1 -5 -18z"/>
<path d="M1278 989 c-17 -11 22 -19 93 -19 38 0 69 4 69 9 0 11 -147 19 -162
10z"/>
<path d="M761 974 c0 -11 3 -14 6 -6 3 7 2 16 -1 19 -3 4 -6 -2 -5 -13z"/>
<path d="M2687 940 c3 -30 7 -57 9 -59 8 -9 2 75 -6 94 -5 12 -6 -1 -3 -35z"/>
<path d="M2800 858 c0 -56 3 -99 6 -95 11 11 15 197 4 197 -6 0 -10 -39 -10
-102z"/>
<path d="M770 940 c0 -8 10 -26 21 -40 11 -14 18 -19 14 -12 -30 57 -35 65
-35 52z"/>
<path d="M975 921 c-7 -22 -29 -38 -80 -58 -16 -6 -24 -12 -17 -12 41 -3 129
66 109 85 -3 3 -8 -4 -12 -15z"/>
<path d="M1420 897 c0 -11 -6 -17 -16 -15 -10 2 -19 -2 -21 -8 -2 -7 6 -10 22
-6 31 5 37 13 24 32 -7 12 -9 12 -9 -3z"/>
<path d="M2082 880 c0 -14 2 -19 5 -12 2 6 2 18 0 25 -3 6 -5 1 -5 -13z"/>
<path d="M828 868 c5 -5 16 -8 23 -6 8 3 3 7 -10 11 -17 4 -21 3 -13 -5z"/>
<path d="M1565 860 c3 -5 8 -10 11 -10 2 0 4 5 4 10 0 6 -5 10 -11 10 -5 0 -7
-4 -4 -10z"/>
<path d="M2017 840 c3 -11 7 -20 9 -20 2 0 4 9 4 20 0 11 -4 20 -9 20 -5 0 -7
-9 -4 -20z"/>
<path d="M2400 849 c0 -5 5 -7 10 -4 6 3 10 8 10 11 0 2 -4 4 -10 4 -5 0 -10
-5 -10 -11z"/>
<path d="M1330 841 c-55 -4 -78 -9 -66 -14 22 -9 133 1 156 14 8 5 11 8 5 7
-5 -1 -48 -4 -95 -7z"/>
<path d="M2311 834 c0 -11 3 -14 6 -6 3 7 2 16 -1 19 -3 4 -6 -2 -5 -13z"/>
<path d="M2056 831 c-3 -5 0 -11 8 -14 15 -6 26 1 26 15 0 11 -27 10 -34 -1z"/>
<path d="M2343 827 c5 -15 37 -22 37 -9 0 5 -9 12 -21 15 -13 3 -19 1 -16 -6z"/>
<path d="M2440 825 c0 -8 5 -15 10 -15 6 0 10 7 10 15 0 8 -4 15 -10 15 -5 0
-10 -7 -10 -15z"/>
<path d="M2752 820 c0 -14 2 -19 5 -12 2 6 2 18 0 25 -3 6 -5 1 -5 -13z"/>
<path d="M2822 640 c0 -14 2 -19 5 -12 2 6 2 18 0 25 -3 6 -5 1 -5 -13z"/>
<path d="M0 624 c0 -8 5 -12 10 -9 6 4 19 1 28 -6 13 -11 12 -8 -2 9 -22 26
-36 28 -36 6z"/>
<path d="M2215 530 c-8 -14 3 -30 21 -30 8 0 14 9 14 20 0 21 -24 28 -35 10z"/>
<path d="M1498 363 c7 -3 16 -2 19 1 4 3 -2 6 -13 5 -11 0 -14 -3 -6 -6z"/>
<path d="M273 343 c9 -2 23 -2 30 0 6 3 -1 5 -18 5 -16 0 -22 -2 -12 -5z"/>
<path d="M1618 323 c7 -3 16 -2 19 1 4 3 -2 6 -13 5 -11 0 -14 -3 -6 -6z"/>
<path d="M1568 313 c6 -2 18 -2 25 0 6 3 1 5 -13 5 -14 0 -19 -2 -12 -5z"/>
<path d="M28 93 c6 -2 18 -2 25 0 6 3 1 5 -13 5 -14 0 -19 -2 -12 -5z"/>
<path d="M174 64 c-18 -14 -18 -15 4 -4 12 6 22 13 22 15 0 8 -5 6 -26 -11z"/>
<path d="M0 25 c0 -9 6 -12 15 -9 8 4 15 7 15 9 0 2 -7 5 -15 9 -9 3 -15 0
-15 -9z"/>
<path d="M179 38 c-6 -21 -5 -38 2 -38 5 0 9 9 9 20 0 16 -7 28 -11 18z"/>
</g>
</svg>
